<?xml version="1.0" encoding="UTF-8" standalone="no"?>
<!-- Created with Inkscape (http://www.inkscape.org/) -->

<svg
   width="38mm"
   height="38.202mm"
   viewBox="0 0 38 38.202019"
   version="1.1"
   id="svg413"
   inkscape:version="1.2.2 (b0a8486541, 2022-12-01)"
   sodipodi:docname="dibujo.svg"
   xmlns:inkscape="http://www.inkscape.org/namespaces/inkscape"
   xmlns:sodipodi="http://sodipodi.sourceforge.net/DTD/sodipodi-0.dtd"
   xmlns="http://www.w3.org/2000/svg"
   xmlns:svg="http://www.w3.org/2000/svg">
  <sodipodi:namedview
     id="namedview415"
     pagecolor="#ffffff"
     bordercolor="#666666"
     borderopacity="1.0"
     inkscape:showpageshadow="2"
     inkscape:pageopacity="0.0"
     inkscape:pagecheckerboard="true"
     inkscape:deskcolor="#d1d1d1"
     inkscape:document-units="mm"
     showgrid="false"
     inkscape:zoom="0.69664703"
     inkscape:cx="396.18342"
     inkscape:cy="561.25984"
     inkscape:window-width="1920"
     inkscape:window-height="1043"
     inkscape:window-x="0"
     inkscape:window-y="0"
     inkscape:window-maximized="1"
     inkscape:current-layer="layer1" />
  <defs
     id="defs410">
    <clipPath
       clipPathUnits="userSpaceOnUse"
       id="clipPath688">
      <rect
         style="fill:#000000;stroke:#435466;stroke-width:0.065409"
         id="rect690"
         width="51.153061"
         height="48.167503"
         x="56.388802"
         y="69.364761" />
    </clipPath>
    <clipPath
       clipPathUnits="userSpaceOnUse"
       id="clipPath692">
      <rect
         style="fill:#000000;stroke:#435466;stroke-width:0.065409"
         id="rect694"
         width="51.153061"
         height="48.167503"
         x="56.388802"
         y="69.364761" />
    </clipPath>
    <clipPath
       clipPathUnits="userSpaceOnUse"
       id="clipPath722">
      <rect
         style="fill:#000000;stroke:#435466;stroke-width:0.060325"
         id="rect724"
         width="78.203194"
         height="52.717381"
         x="43.853016"
         y="67.514565" />
    </clipPath>
  </defs>
  <g
     inkscape:label="Capa 1"
     inkscape:groupmode="layer"
     id="layer1">
    <g
       id="g1335"
       transform="translate(-61.551571,-76.568092)">
      <rect
         style="fill:#e6e6e6;stroke:#435466;stroke-width:0.0127251"
         id="rect608"
         width="37.930107"
         height="37.956451"
         x="61.551571"
         y="76.568092"
         inkscape:export-filename="./rect608.png"
         inkscape:export-xdpi="96"
         inkscape:export-ydpi="96" />
      <path
         fill="#ffffff"
         d="m 44.903708,156.84268 c 0,1.00541 -0.608542,1.66687 -1.878542,1.66687 h -3.96875 v -5.82083 h 3.81 c 1.137708,0 1.640417,0.58208 1.640417,1.37583 0,0.68792 -0.396875,1.16417 -0.899584,1.32292 0.740834,0.10583 1.296459,0.66146 1.296459,1.45521 z m -2.116667,-3.43959 h -2.989792 v 1.82563 h 2.883959 c 0.555625,0 1.058333,-0.34396 1.058333,-1.00542 0,-0.58208 -0.343958,-0.82021 -0.978958,-0.82021 z m 1.349375,3.33375 c 0,-0.60854 -0.47625,-0.97895 -1.058333,-0.97895 h -3.254375 v 2.03729 h 3.095625 c 0.899583,0 1.217083,-0.47625 1.217083,-1.05834 z m 9.604375,1.05834 v 0.71437 h -5.503334 v -5.82083 h 5.450417 v 0.71437 h -4.683125 v 1.79917 h 3.862917 v 0.60854 h -3.862917 v 1.98438 z m 6.085416,-1.53459 v 2.24896 h -0.740833 v -2.24896 l -2.910417,-3.54541 h 0.899584 l 2.354791,2.91041 2.328334,-2.91041 h 0.899583 l -2.8575,3.54541 z m 5.053542,-0.47625 v -0.37041 c 0,-2.09021 1.375833,-2.83104 3.360208,-2.83104 1.984375,0 3.439584,0.74083 3.439584,2.83104 v 0.37041 c 0,2.09021 -1.455209,2.8575 -3.439584,2.8575 -1.984375,0 -3.360208,-0.79375 -3.360208,-2.8575 z m 6.006042,0 v -0.37041 c 0,-1.50813 -1.031875,-2.11667 -2.645834,-2.11667 -1.5875,0 -2.592916,0.60854 -2.592916,2.11667 v 0.37041 c 0,1.53459 1.005416,2.14313 2.592916,2.14313 1.5875,0 2.645834,-0.60854 2.645834,-2.14313 z m 9.842499,-3.06916 v 5.79437 h -0.767291 l -4.180417,-4.73604 v 4.73604 h -0.740833 v -5.82083 h 0.79375 l 4.1275,4.7625 v -4.7625 h 0.767291 z m 10.027709,2.69875 v 0.34396 c 0,2.06375 -1.375834,2.75166 -3.280834,2.75166 h -2.989791 v -5.82083 h 2.963333 c 1.905,0 3.280833,0.74083 3.280833,2.72521 z m -0.79375,0 c 0,-1.40229 -0.873125,-2.01084 -2.487084,-2.01084 h -2.2225 v 4.39209 h 2.2225 c 1.5875,0 2.513542,-0.52917 2.513542,-2.03729 v -0.34396 z m 13.440831,-2.01084 h -2.56646 v 5.10646 h -0.79375 v -5.10646 h -2.566455 v -0.68791 h 5.926665 z m 9.10167,-0.68791 v 5.79437 H 111.711 v -2.67229 h -4.445 v 2.64583 h -0.74083 v -5.76791 h 0.74083 v 2.43416 h 4.47146 v -2.43416 z m 9.23396,5.08 v 0.71437 h -5.47688 v -5.82083 h 5.45042 v 0.71437 h -4.68313 v 1.79917 h 3.83646 v 0.60854 h -3.83646 v 1.98438 z m -81.967919,8.78416 v 1.93146 h 3.677708 v 0.635 h -3.704166 v 2.54 h -0.767292 v -5.82083 h 5.291667 v 0.71437 z m 10.980208,3.01625 h -2.592917 v 2.09021 h -0.714375 v -5.82083 h 3.518959 c 1.349375,0 2.116666,0.50271 2.116666,1.79917 0,0.97895 -0.529166,1.66687 -1.481666,1.85208 l 1.5875,2.16958 h -0.873125 l -1.534584,-2.11666 z m -2.592917,-0.68791 h 2.725209 c 0.820208,0 1.402291,-0.39688 1.402291,-1.24354 0,-0.87313 -0.582083,-1.0848 -1.402291,-1.0848 h -2.725209 z m 12.673542,1.64041 h -3.862917 l -0.529166,1.13771 h -0.846667 l 2.831042,-5.87375 h 0.926041 l 2.831042,5.87375 h -0.846667 l -0.529166,-1.13771 z m -0.264583,-0.60854 -1.666875,-3.43958 -1.5875,3.43958 h 3.227916 z m 12.250208,-4.04812 v 5.79437 h -0.767292 v -4.55083 l -2.725208,4.15396 h -0.555625 l -2.69875,-4.1275 v 4.49791 h -0.740833 v -5.76791 h 0.79375 l 2.910416,4.47146 2.989792,-4.49792 h 0.79375 z m 9.260416,5.10646 v 0.68791 H 76.60079 v -5.82083 h 5.450417 v 0.71437 h -4.709583 v 1.79917 h 3.836458 v 0.60854 h -3.836458 v 2.01084 h 4.709583 z m 12.435417,-5.10646 -2.196042,5.82083 h -0.79375 l -1.878541,-4.92125 -1.852084,4.92125 h -0.79375 l -2.169583,-5.82083 h 0.873125 l 1.693333,4.86833 1.799167,-4.89479 h 0.899583 l 1.799167,4.89479 1.74625,-4.89479 h 0.873125 z m 2.645833,3.06916 v -0.37041 c 0,-2.06375 1.375834,-2.83104 3.360205,-2.83104 2.01084,0 3.43959,0.76729 3.43959,2.83104 v 0.37041 c 0,2.09021 -1.42875,2.8575 -3.43959,2.8575 -1.984371,0 -3.360205,-0.79375 -3.360205,-2.8575 z m 6.032505,0 v -0.37041 c 0,-1.50813 -1.05834,-2.11667 -2.64584,-2.11667 -1.587498,0 -2.619373,0.60854 -2.619373,2.11667 v 0.37041 c 0,1.53459 1.005417,2.16959 2.592913,2.16959 1.61396,0 2.64584,-0.635 2.64584,-2.16959 z m 7.4877,0.635 h -2.59291 v 2.09021 h -0.74084 v -5.82083 h 3.4925 c 1.37584,0 2.11667,0.50271 2.11667,1.79917 0,0.97895 -0.52917,1.66687 -1.48167,1.85208 l 1.5875,2.16958 h -0.87312 l -1.53458,-2.11666 z m -2.59291,-0.68791 h 2.69875 c 0.79375,0 1.37583,-0.39688 1.37583,-1.24354 0,-0.87313 -0.55562,-1.0848 -1.37583,-1.0848 h -2.69875 z m 10.6627,-0.39688 -1.79916,1.48167 v 1.69333 h -0.76729 v -5.82083 h 0.76729 v 3.25437 l 4.02166,-3.22791 h 0.97896 l -2.61937,2.14312 2.72521,3.65125 h -0.9525 z M 83.26829,95.53872 a 2.7516666,2.7516666 0 0 1 -5.503333,0 2.7516666,2.7516666 0 1 1 5.503333,0 z m 9.472084,-7.064375 C 92.15829,87.44247 91.417457,86.48997 90.57079,85.643303 l -3.175,1.852084 C 86.416832,86.64872 85.279124,85.987262 84.06204,85.563928 a 13.070417,13.070417 0 0 0 -2.566458,3.677709 15.610416,15.610416 0 0 1 10.609792,3.704166 l 2.010833,-1.164167 a 15.08125,15.08125 0 0 0 -1.375833,-3.307291 z m -12.22375,21.193125 c 1.190625,0 2.38125,-0.15875 3.545416,-0.44979 v -3.70417 a 10.583333,10.583333 0 0 0 3.307292,-1.905 12.620625,12.620625 0 0 0 -1.878542,-4.048124 15.610416,15.610416 0 0 1 -8.519583,7.328954 v 2.30188 c 1.164167,0.3175 2.354792,0.47625 3.545417,0.47625 z M 68.292874,88.474345 c -0.608542,1.058333 -1.058333,2.143125 -1.375833,3.307291 l 3.175,1.852084 a 10.583333,10.583333 0 0 0 0,3.81 c 1.508125,0.396875 2.989791,0.529166 4.471458,0.396875 A 15.610416,15.610416 0 0 1 72.446832,86.80747 l -1.984375,-1.137708 c -0.846666,0.846666 -1.5875,1.772708 -2.169583,2.804583 z"
         id="path2"
         style="stroke-width:0.264583"
         clip-path="url(#clipPath722)" />
      <path
         fill="#00b4ff"
         d="m 92.740374,102.60309 c 0.608541,-1.03187 1.058333,-2.11666 1.375833,-3.280829 l -3.175,-1.852083 a 10.583333,10.583333 0 0 0 0,-3.836458 c -1.508125,-0.396875 -2.989792,-0.529167 -4.471458,-0.396875 a 15.610416,15.610416 0 0 1 2.116666,11.033125 l 1.984375,1.16417 c 0.846667,-0.84667 1.5875,-1.79917 2.169584,-2.83105 z m -24.4475,0 c 0.582083,1.05834 1.322917,1.98438 2.169583,2.83105 l 3.175,-1.85209 a 10.583333,10.583333 0 0 0 3.33375,1.93146 c 1.058333,-1.08479 1.931458,-2.32833 2.566458,-3.65125 A 15.610416,15.610416 0 0 1 68.954332,98.158095 l -2.037291,1.164166 c 0.3175,1.137709 0.79375,2.248959 1.375833,3.280829 z m 12.22375,-21.166662 c -1.190625,0 -2.38125,0.132292 -3.545417,0.449792 v 3.677708 a 10.583333,10.583333 0 0 0 -3.307292,1.905 c 0.396875,1.508125 1.058334,2.8575 1.878542,4.074583 a 15.610416,15.610416 0 0 1 8.519583,-7.328958 v -2.354791 a 14.102291,14.102291 0 0 0 -3.545416,-0.47625 z"
         id="path4"
         style="stroke-width:0.264583"
         clip-path="url(#clipPath692)" />
      <path
         fill="#00b4ff"
         d="m 80.516624,79.002262 a 16.562922,16.562922 0 1 1 -0.02646,33.125828 16.562922,16.562922 0 0 1 0.02646,-33.125828 m 0,-2.434167 a 18.983854,18.983854 0 1 0 0,37.967705 18.983854,18.983854 0 0 0 0,-37.967705 z"
         id="path6"
         style="stroke-width:0.264583"
         clip-path="url(#clipPath688)" />
    </g>
  </g>
</svg>
