<?xml version="1.0" encoding="UTF-8" standalone="no"?>
<!-- Created with Inkscape (http://www.inkscape.org/) -->

<svg
   version="1.1"
   id="svg2"
   width="148"
   height="146"
   viewBox="0 0 148 146"
   sodipodi:docname="02.svg"
   xml:space="preserve"
   inkscape:version="1.2.2 (b0a8486541, 2022-12-01)"
   xmlns:inkscape="http://www.inkscape.org/namespaces/inkscape"
   xmlns:sodipodi="http://sodipodi.sourceforge.net/DTD/sodipodi-0.dtd"
   xmlns="http://www.w3.org/2000/svg"
   xmlns:svg="http://www.w3.org/2000/svg"><defs
     id="defs6" /><sodipodi:namedview
     id="namedview4"
     pagecolor="#ffffff"
     bordercolor="#111111"
     borderopacity="1"
     inkscape:showpageshadow="0"
     inkscape:pageopacity="0"
     inkscape:pagecheckerboard="1"
     inkscape:deskcolor="#d1d1d1"
     showgrid="false"
     inkscape:zoom="3.4041096"
     inkscape:cx="76.231388"
     inkscape:cy="49.645875"
     inkscape:window-width="1920"
     inkscape:window-height="2123"
     inkscape:window-x="26"
     inkscape:window-y="23"
     inkscape:window-maximized="0"
     inkscape:current-layer="g8" /><g
     inkscape:groupmode="layer"
     inkscape:label="Image"
     id="g8"><rect
       style="fill:#e6e6e6;fill-rule:evenodd"
       id="rect359"
       width="148"
       height="146"
       x="0"
       y="0"
       ry="10.848359" /><path
       d="m 115.70567,52.744777 a 86.710061,86.710061 0 0 0 -4.16637,-1.31312 c 0.23512,-0.96069 0.45153,-1.90975 0.64366,-2.84213 3.15411,-15.310908 1.09216,-27.645691 -5.95073,-31.706891 -6.752648,-3.893332 -17.796059,0.166352 -28.949193,9.872883 a 86.578598,86.578598 0 0 0 -3.223375,2.95691 78.810137,78.810137 0 0 0 -2.144367,-1.980543 C 60.2262,17.353375 48.509799,12.979192 41.474498,17.052021 34.72791,20.957488 32.730176,32.553044 35.56978,47.063547 a 86.449158,86.449158 0 0 0 0.956646,4.28772 c -1.658458,0.47124 -3.258769,0.97282 -4.790314,1.50677 -13.704528,4.77818 -22.4564345,12.26601 -22.4564345,20.03296 0,8.02178 9.3955695,16.06783 23.6694345,20.94663 a 73.578915,73.578915 0 0 0 3.499448,1.09468 84.675922,84.675922 0 0 0 -1.016311,4.620425 c -2.70713,14.258688 -0.593102,25.580198 6.135284,29.460888 6.949344,4.0076 18.613159,-0.11124 29.97006,-10.03924 a 73.602679,73.602679 0 0 0 2.701061,-2.4892 84.977781,84.977781 0 0 0 3.498943,3.19253 c 11.001445,9.46636 21.866365,13.2889 28.588183,9.3976 6.94277,-4.01924 9.19938,-16.1816 6.26978,-30.978788 a 73.324079,73.324079 0 0 0 -0.77614,-3.459495 c 0.81911,-0.24271 1.62306,-0.49249 2.40679,-0.75238 14.83915,-4.91621 24.49411,-12.86468 24.49411,-20.99365 0,-7.79526 -9.03455,-15.33366 -23.01465,-20.14622 z m -3.21832,35.89146 c -0.70788,0.2341 -1.43396,0.46012 -2.1742,0.68007 -1.63823,-5.18622 -3.84883,-10.7006 -6.55445,-16.39851 2.58174,-5.56191 4.7074,-11.006 6.29962,-16.15834 1.32424,0.38326 2.60904,0.78726 3.84782,1.2135 11.97832,4.1239 19.28464,10.22025 19.28464,14.91804 0,5.00369 -7.89083,11.49948 -20.70343,15.74524 z m -5.31617,10.534235 c 1.29542,6.542818 1.47998,12.458658 0.62193,17.083638 -0.77058,4.15575 -2.32083,6.92608 -4.23817,8.03594 -4.078897,2.36128 -12.802488,-0.70788 -22.210701,-8.80399 a 79.244977,79.244977 0 0 1 -3.254725,-2.96803 c 3.647597,-3.9889 7.292666,-8.62601 10.850263,-13.776328 6.257646,-0.55518 12.169443,-1.46329 17.530603,-2.70258 0.26394,1.06536 0.49855,2.10998 0.7008,3.13135 z M 53.408824,123.88201 c -3.985357,1.40716 -7.159686,1.44761 -9.078542,0.34129 -4.082942,-2.3547 -5.780333,-11.44538 -3.465065,-23.63909 a 79.344585,79.344585 0 0 1 0.945017,-4.297328 c 5.302011,1.17305 11.170828,2.01644 17.443137,2.5251 3.581867,5.039588 7.332105,9.671648 11.111671,13.727788 a 68.091845,68.091845 0 0 1 -2.465946,2.27128 c -5.022397,4.38986 -10.054907,7.50452 -14.490272,9.07096 z M 34.738023,88.605397 c -6.311748,-2.15752 -11.524262,-4.96122 -15.097026,-8.02077 -3.210735,-2.7491 -4.831271,-5.47898 -4.831271,-7.69363 0,-4.71346 7.026706,-10.72537 18.746645,-14.81135 1.422331,-0.49551 2.910898,-0.96322 4.45559,-1.4021 1.620031,5.26864 3.744677,10.77745 6.308715,16.34795 -2.597409,5.65291 -4.752393,11.2497 -6.388098,16.58053 a 68.117127,68.117127 0 0 1 -3.194555,-1.00063 z m 6.258657,-42.60418 c -2.432574,-12.431862 -0.817094,-21.809735 3.248657,-24.163431 4.330194,-2.506901 13.905767,1.067379 23.998598,10.029121 a 72.971151,72.971151 0 0 1 1.942115,1.79245 c -3.760857,4.038447 -7.476714,8.636118 -11.026724,13.64588 -6.087755,0.56428 -11.915112,1.47036 -17.272741,2.68437 a 81.073326,81.073326 0 0 1 -0.889905,-3.98788 z m 55.83493,13.78745 a 175.85725,175.85725 0 0 0 -3.93631,-6.47355 c 4.129965,0.52232 8.087,1.21553 11.80286,2.06296 -1.11541,3.5758 -2.50589,7.31391 -4.14261,11.14656 a 192.72043,192.72043 0 0 0 -3.72394,-6.73597 z M 74.06219,37.611341 c 2.550386,2.763255 5.104816,5.848088 7.617279,9.195346 a 162.83228,162.83228 0 0 0 -15.298772,-0.003 C 68.895688,43.487239 71.47186,40.40645 74.06219,37.611341 Z M 51.146647,59.826587 a 163.40212,163.40212 0 0 0 -3.65417,6.6935 c -1.609918,-3.819 -2.987753,-7.5743 -4.112775,-11.20066 3.693103,-0.82619 7.631437,-1.50171 11.735109,-2.01442 a 162.57138,162.57138 0 0 0 -3.968164,6.52108 z m 4.085974,33.04377 c -4.239685,-0.47326 -8.237177,-1.11389 -11.929268,-1.91784 1.142718,-3.69108 2.550891,-7.52627 4.195697,-11.42718 a 162.40098,162.40098 0 0 0 3.669339,6.69754 c 1.311598,2.26521 2.669713,4.4839 4.064232,6.64748 z m 18.982268,15.689623 c -2.621173,-2.82747 -5.235267,-5.95579 -7.78818,-9.320238 2.478587,0.0971 5.005207,0.14664 7.57329,0.14664 2.638363,0 5.246391,-0.0592 7.813462,-0.17344 -2.520554,3.425128 -5.065377,6.557988 -7.598572,9.347038 z M 100.60763,79.326117 c 1.73026,3.94389 3.18849,7.75885 4.34638,11.38673 -3.75277,0.85653 -7.804865,1.54621 -12.074384,2.05841 a 193.36055,193.36055 0 0 0 3.973726,-6.5863 175.65651,175.65651 0 0 0 3.754278,-6.85884 z m -8.544086,4.09609 a 181.29628,181.29628 0 0 1 -6.209614,10.01901 166.5537,166.5537 0 0 1 -11.853931,0.41613 c -4.028335,0 -7.946443,-0.1254 -11.719436,-0.37012 a 156.84666,156.84666 0 0 1 -6.326917,-10.03468 h 5.06e-4 a 155.43495,155.43495 0 0 1 -5.522968,-10.42958 156.88509,156.88509 0 0 1 5.506282,-10.43464 l -5.04e-4,5.1e-4 a 155.38843,155.38843 0 0 1 6.276354,-9.99171 c 3.849342,-0.29124 7.796776,-0.44293 11.786177,-0.44293 h 5.06e-4 c 4.007604,0 7.960094,0.15321 11.808425,0.44647 a 166.53196,166.53196 0 0 1 6.236917,9.95834 181.2619,181.2619 0 0 1 5.580102,10.38558 166.59011,166.59011 0 0 1 -5.561899,10.47762 z M 103.4705,21.672951 c 4.33424,2.499823 6.02,12.580518 3.29669,25.800146 -0.17394,0.84339 -0.36911,1.70245 -0.58147,2.57365 -5.37078,-1.2398 -11.202177,-2.16156 -17.30763,-2.73444 C 85.321505,42.24744 81.635986,37.64269 77.936309,33.656323 a 81.299341,81.299341 0 0 1 2.977135,-2.730388 C 90.469806,22.609879 99.401212,19.326334 103.4705,21.672951 Z M 73.999999,61.332347 c 6.383547,0 11.558645,5.1751 11.558645,11.55865 0,6.38355 -5.175099,11.55864 -11.558645,11.55864 -6.383549,0 -11.558645,-5.17509 -11.558645,-11.55864 0,-6.38355 5.175096,-11.55865 11.558645,-11.55865 z"
       fill="#00d8ff"
       id="path291"
       style="stroke-width:0.505628" /></g></svg>
