<?xml version="1.0" encoding="UTF-8" standalone="no"?>
<!-- Created with Inkscape (http://www.inkscape.org/) -->

<svg
   version="1.1"
   id="svg2"
   width="148"
   height="146"
   viewBox="0 0 148 146"
   sodipodi:docname="04.svg"
   xml:space="preserve"
   inkscape:version="1.2.2 (b0a8486541, 2022-12-01)"
   xmlns:inkscape="http://www.inkscape.org/namespaces/inkscape"
   xmlns:sodipodi="http://sodipodi.sourceforge.net/DTD/sodipodi-0.dtd"
   xmlns:xlink="http://www.w3.org/1999/xlink"
   xmlns="http://www.w3.org/2000/svg"
   xmlns:svg="http://www.w3.org/2000/svg"><defs
     id="defs6"><linearGradient
       xlink:href="#a"
       id="f"
       x1=".46521288"
       x2=".5565635"
       y1="-.67390651"
       y2=".81129867"
       gradientTransform="matrix(966.20058,0,0,966.1963,-382.56136,-227.17007)"
       gradientUnits="userSpaceOnUse" /><linearGradient
       id="a"><stop
         offset="0"
         stop-color="#1972e7"
         id="stop292" /><stop
         offset="1"
         stop-color="#1969d5"
         id="stop294" /></linearGradient><linearGradient
       xlink:href="#b"
       id="e"
       x1="101.74381"
       x2="101.59915"
       y1="33.726189"
       y2="135.466"
       gradientTransform="matrix(15.765437,0,0,15.765367,-846.03835,-894.5496)"
       gradientUnits="userSpaceOnUse" /><linearGradient
       id="b"
       x2="1"
       gradientTransform="translate(29.399 42.333) scale(61.286)"
       gradientUnits="userSpaceOnUse"><stop
         offset="0"
         stop-color="#afccfb"
         id="stop298" /><stop
         offset="1"
         stop-color="#8bb5f8"
         id="stop300" /></linearGradient><linearGradient
       xlink:href="#c"
       id="g"
       x1=".01820255"
       x2="1.7695541"
       y1="-.51170158"
       y2=".4994337"
       gradientTransform="matrix(395.99625,685.88806,-685.89111,395.99449,-439.10091,-170.36746)"
       gradientUnits="userSpaceOnUse" /><linearGradient
       id="c"
       x2="1"
       gradientTransform="matrix(25.118 43.506 -43.506 25.118 25.812 45.935)"
       gradientUnits="userSpaceOnUse"><stop
         offset="0"
         stop-color="#659cf6"
         id="stop304" /><stop
         offset="1"
         stop-color="#4285f4"
         id="stop306" /></linearGradient><linearGradient
       xlink:href="#d"
       id="h"
       x1="67.452377"
       x2="67.733002"
       y1="40.320694"
       y2="95.25"
       gradientTransform="matrix(15.765437,0,0,15.765367,-846.03842,-894.5496)"
       gradientUnits="userSpaceOnUse" /><linearGradient
       id="d"><stop
         offset="0"
         stop-color="#3680f0"
         id="stop310" /><stop
         offset="1"
         stop-color="#2678ec"
         id="stop312" /></linearGradient></defs><sodipodi:namedview
     id="namedview4"
     pagecolor="#ffffff"
     bordercolor="#111111"
     borderopacity="1"
     inkscape:showpageshadow="0"
     inkscape:pageopacity="0"
     inkscape:pagecheckerboard="1"
     inkscape:deskcolor="#d1d1d1"
     showgrid="false"
     inkscape:zoom="1.7020548"
     inkscape:cx="210.62777"
     inkscape:cy="-28.788732"
     inkscape:window-width="1920"
     inkscape:window-height="2123"
     inkscape:window-x="20"
     inkscape:window-y="20"
     inkscape:window-maximized="0"
     inkscape:current-layer="g8" /><g
     inkscape:groupmode="layer"
     inkscape:label="Image"
     id="g8"><rect
       style="fill:#e6e6e6;fill-rule:evenodd"
       id="rect359"
       width="148"
       height="146"
       x="0"
       y="0"
       ry="10.848359" /><g
       id="g352"
       transform="matrix(0.23972843,0,0,0.23972843,12.631333,11.631333)"><path
         fill="url(#e)"
         d="m 255.99319,255.99433 110.85049,63.99671 -110.85049,191.99385 c 141.38068,0 255.9917,-114.61051 255.9917,-255.99056 0,-46.64165 -12.53559,-90.3316 -34.33115,-127.99716 h -221.6632 z"
         id="path317"
         style="fill:url(#e)" /><path
         fill="url(#f)"
         d="M 255.99054,0 C 161.2404,0 78.576848,51.513314 34.31224,128.0274 l 110.82781,191.96363 110.85049,-63.9967 V 127.99717 h 221.6632 C 433.38157,51.501975 350.72936,0 255.99054,0 Z"
         id="path319"
         style="fill:url(#f)" /><path
         fill="url(#g)"
         d="m 0.00151177,255.99433 c 0,141.38005 114.60723823,255.99056 255.99168823,255.99056 L 366.84368,319.99103 255.9932,255.99433 145.14271,319.99103 34.314897,128.0274 C 12.531434,165.68239 0,209.35646 0,255.99056"
         id="path321"
         style="fill:url(#g)" /><path
         fill="#ffffff"
         d="m 383.99094,255.99433 c 0,70.69003 -57.30741,127.99717 -127.99775,127.99717 -70.69034,0 -127.99773,-57.30714 -127.99773,-127.99717 0,-70.69002 57.30739,-127.99716 127.99773,-127.99716 70.69034,0 127.99775,57.30714 127.99775,127.99716"
         id="path323" /><path
         fill="url(#h)"
         d="m 359.99158,255.99433 c 0,57.43565 -46.56249,103.99794 -103.99839,103.99794 -57.4359,0 -103.9984,-46.56229 -103.9984,-103.99794 0,-57.43564 46.5625,-103.99793 103.9984,-103.99793 57.4359,0 103.99839,46.56229 103.99839,103.99793"
         id="path325"
         style="fill:url(#h)" /></g></g></svg>
