<?xml version="1.0" encoding="UTF-8" standalone="no"?>
<!-- Created with Inkscape (http://www.inkscape.org/) -->

<svg
   version="1.1"
   id="svg2"
   width="148"
   height="146"
   viewBox="0 0 148 146"
   sodipodi:docname="05.svg"
   xml:space="preserve"
   inkscape:version="1.2.2 (b0a8486541, 2022-12-01)"
   xmlns:inkscape="http://www.inkscape.org/namespaces/inkscape"
   xmlns:sodipodi="http://sodipodi.sourceforge.net/DTD/sodipodi-0.dtd"
   xmlns="http://www.w3.org/2000/svg"
   xmlns:svg="http://www.w3.org/2000/svg"><defs
     id="defs6" /><sodipodi:namedview
     id="namedview4"
     pagecolor="#ffffff"
     bordercolor="#111111"
     borderopacity="1"
     inkscape:showpageshadow="0"
     inkscape:pageopacity="0"
     inkscape:pagecheckerboard="1"
     inkscape:deskcolor="#d1d1d1"
     showgrid="false"
     inkscape:zoom="3.4041096"
     inkscape:cx="123.2334"
     inkscape:cy="73.146881"
     inkscape:window-width="1920"
     inkscape:window-height="2123"
     inkscape:window-x="26"
     inkscape:window-y="23"
     inkscape:window-maximized="0"
     inkscape:current-layer="g8" /><g
     inkscape:groupmode="layer"
     inkscape:label="Image"
     id="g8"><rect
       style="fill:#e6e6e6;fill-rule:evenodd"
       id="rect359"
       width="148"
       height="146"
       x="0"
       y="0"
       ry="10.848359" /><g
       style="fill:none"
       id="g300"
       transform="matrix(0.57957873,0,0,0.57957873,9.0871862,8.0871847)"><path
         fill="#000000"
         d="m 218.46,109.358 -9.062,-5.614 c -0.076,-0.882 -0.162,-1.762 -0.258,-2.642 l 7.803,-7.265 a 3.107,3.107 0 0 0 0.933,-2.89 3.093,3.093 0 0 0 -1.967,-2.312 l -9.97,-3.715 c -0.25,-0.863 -0.512,-1.72 -0.781,-2.58 l 6.214,-8.628 a 3.114,3.114 0 0 0 -0.592,-4.263 3.134,3.134 0 0 0 -1.431,-0.637 l -10.507,-1.709 a 80.869,80.869 0 0 0 -1.263,-2.353 l 4.417,-9.7 a 3.12,3.12 0 0 0 -0.243,-3.035 3.106,3.106 0 0 0 -2.705,-1.385 l -10.671,0.372 a 85.152,85.152 0 0 0 -1.685,-2.044 l 2.456,-10.381 a 3.125,3.125 0 0 0 -3.762,-3.763 l -10.384,2.456 a 88.996,88.996 0 0 0 -2.047,-1.684 l 0.373,-10.671 a 3.11,3.11 0 0 0 -1.385,-2.704 3.127,3.127 0 0 0 -3.034,-0.246 l -9.681,4.417 c -0.782,-0.429 -1.567,-0.854 -2.353,-1.265 l -1.713,-10.506 a 3.098,3.098 0 0 0 -1.887,-2.373 3.108,3.108 0 0 0 -3.014,0.35 l -8.628,6.213 c -0.85,-0.27 -1.703,-0.53 -2.56,-0.778 l -3.716,-9.97 a 3.111,3.111 0 0 0 -2.311,-1.97 3.134,3.134 0 0 0 -2.89,0.933 l -7.266,7.802 A 93.746,93.746 0 0 0 120.247,14.56 L 114.633,5.478 A 3.125,3.125 0 0 0 111.97,4 c -1.09,0 -2.085,0.56 -2.642,1.478 l -5.615,9.081 a 93.32,93.32 0 0 0 -2.642,0.259 L 93.805,7.016 a 3.13,3.13 0 0 0 -2.89,-0.933 3.106,3.106 0 0 0 -2.312,1.97 l -3.715,9.97 c -0.857,0.247 -1.71,0.506 -2.56,0.778 L 73.7,12.588 A 3.101,3.101 0 0 0 70.686,12.238 3.127,3.127 0 0 0 68.8,14.61 l -1.713,10.506 c -0.79,0.41 -1.575,0.832 -2.353,1.265 l -9.681,-4.417 a 3.125,3.125 0 0 0 -4.42,2.95 l 0.372,10.67 c -0.69,0.553 -1.373,1.115 -2.048,1.685 L 38.574,34.813 a 3.143,3.143 0 0 0 -2.93,0.832 3.124,3.124 0 0 0 -0.833,2.93 l 2.436,10.383 a 93.897,93.897 0 0 0 -1.68,2.043 L 24.895,50.629 a 3.138,3.138 0 0 0 -2.704,1.385 3.126,3.126 0 0 0 -0.246,3.035 l 4.418,9.7 c -0.43,0.779 -0.855,1.563 -1.266,2.353 l -10.507,1.71 a 3.097,3.097 0 0 0 -2.373,1.886 3.117,3.117 0 0 0 0.35,3.013 l 6.214,8.628 a 89.12,89.12 0 0 0 -0.78,2.58 l -9.97,3.715 a 3.117,3.117 0 0 0 -1.035,5.202 l 7.803,7.265 c -0.098,0.879 -0.184,1.76 -0.258,2.642 l -9.062,5.614 A 3.122,3.122 0 0 0 4,112.021 c 0,1.092 0.56,2.084 1.478,2.642 l 9.062,5.614 c 0.074,0.882 0.16,1.762 0.258,2.642 l -7.803,7.265 a 3.117,3.117 0 0 0 1.034,5.201 l 9.97,3.716 a 110,110 0 0 0 0.78,2.58 l -6.212,8.627 a 3.112,3.112 0 0 0 0.6,4.27 c 0.419,0.33 0.916,0.547 1.443,0.63 l 10.507,1.709 c 0.407,0.792 0.83,1.576 1.265,2.353 l -4.417,9.68 a 3.126,3.126 0 0 0 2.95,4.42 l 10.65,-0.374 c 0.553,0.69 1.115,1.372 1.685,2.047 l -2.435,10.383 a 3.09,3.09 0 0 0 0.831,2.91 3.117,3.117 0 0 0 2.931,0.83 l 10.384,-2.436 a 82.268,82.268 0 0 0 2.047,1.68 l -0.371,10.671 a 3.11,3.11 0 0 0 1.385,2.704 3.125,3.125 0 0 0 3.034,0.241 l 9.681,-4.416 c 0.779,0.432 1.563,0.854 2.353,1.265 l 1.713,10.505 a 3.147,3.147 0 0 0 1.887,2.395 3.111,3.111 0 0 0 3.014,-0.349 l 8.628,-6.213 c 0.853,0.271 1.71,0.535 2.58,0.783 l 3.716,9.969 a 3.112,3.112 0 0 0 2.312,1.967 3.112,3.112 0 0 0 2.89,-0.933 l 7.266,-7.802 c 0.877,0.101 1.761,0.186 2.642,0.264 l 5.615,9.061 a 3.12,3.12 0 0 0 2.642,1.478 3.165,3.165 0 0 0 2.663,-1.478 l 5.614,-9.061 c 0.884,-0.078 1.765,-0.163 2.643,-0.264 l 7.265,7.802 a 3.106,3.106 0 0 0 2.89,0.933 3.105,3.105 0 0 0 2.312,-1.967 l 3.716,-9.969 c 0.863,-0.248 1.719,-0.512 2.58,-0.783 l 8.629,6.213 a 3.12,3.12 0 0 0 4.9,-2.045 l 1.713,-10.506 c 0.793,-0.411 1.577,-0.838 2.353,-1.265 l 9.681,4.416 a 3.13,3.13 0 0 0 3.035,-0.241 3.126,3.126 0 0 0 1.385,-2.704 l -0.372,-10.671 a 81.794,81.794 0 0 0 2.046,-1.68 l 10.383,2.436 a 3.123,3.123 0 0 0 3.763,-3.74 l -2.436,-10.382 a 84.588,84.588 0 0 0 1.68,-2.048 l 10.672,0.374 a 3.104,3.104 0 0 0 2.704,-1.385 3.118,3.118 0 0 0 0.244,-3.035 l -4.417,-9.68 c 0.43,-0.779 0.852,-1.563 1.263,-2.353 l 10.507,-1.709 a 3.08,3.08 0 0 0 2.373,-1.886 3.11,3.11 0 0 0 -0.35,-3.014 l -6.214,-8.627 c 0.272,-0.857 0.532,-1.717 0.781,-2.58 l 9.97,-3.716 a 3.109,3.109 0 0 0 1.967,-2.311 3.107,3.107 0 0 0 -0.933,-2.89 l -7.803,-7.265 c 0.096,-0.88 0.182,-1.761 0.258,-2.642 l 9.062,-5.614 a 3.11,3.11 0 0 0 1.478,-2.642 3.157,3.157 0 0 0 -1.476,-2.663 z m -60.687,75.337 c -3.468,-0.747 -5.656,-4.169 -4.913,-7.637 a 6.412,6.412 0 0 1 7.617,-4.933 c 3.468,0.741 5.676,4.169 4.933,7.637 a 6.414,6.414 0 0 1 -7.617,4.933 z m -3.076,-20.847 c -3.158,-0.677 -6.275,1.334 -6.936,4.5 l -3.22,15.026 c -9.929,4.5 -21.055,7.018 -32.614,7.018 -11.89,0 -23.12,-2.622 -33.234,-7.328 l -3.22,-15.026 c -0.677,-3.158 -3.778,-5.18 -6.936,-4.499 l -13.273,2.848 a 80.222,80.222 0 0 1 -6.853,-8.091 h 64.61 c 0.731,0 1.218,-0.132 1.218,-0.797 v -22.91 c 0,-0.665 -0.487,-0.797 -1.218,-0.797 H 94.133 v -14.469 h 20.415 c 1.864,0 9.97,0.533 12.551,10.898 0.811,3.179 2.601,13.54 3.818,16.863 1.214,3.715 6.152,11.146 11.415,11.146 h 32.202 c 0.365,0 0.755,-0.041 1.166,-0.116 a 80.56,80.56 0 0 1 -7.307,8.587 L 154.81,163.79 Z m -89.38,20.537 A 6.407,6.407 0 0 1 57.7,179.452 c -0.74,-3.467 1.462,-6.894 4.934,-7.637 a 6.417,6.417 0 0 1 7.617,4.933 c 0.74,3.468 -1.464,6.894 -4.934,7.637 z M 40.753,85.105 a 6.438,6.438 0 0 1 -3.261,8.484 c -3.241,1.438 -7.019,-0.025 -8.464,-3.261 -1.445,-3.237 0.025,-7.039 3.262,-8.483 a 6.416,6.416 0 0 1 8.463,3.26 z M 33.22,102.94 47.05,96.79 c 2.952,-1.311 4.294,-4.769 2.972,-7.72 L 47.174,82.63 H 58.36 v 50.362 H 35.86 A 79.158,79.158 0 0 1 32.846,111.32 c 0,-2.869 0.155,-5.697 0.452,-8.483 l -0.08,0.103 z m 60.687,-4.892 v -14.86 h 26.629 c 1.376,0 9.722,1.59 9.722,7.822 0,5.18 -6.399,7.038 -11.663,7.038 h -24.77 z m 96.811,13.375 c 0,1.973 -0.072,3.922 -0.216,5.862 h -8.113 c -0.811,0 -1.137,0.532 -1.137,1.327 v 3.715 c 0,8.752 -4.934,10.671 -9.268,11.146 -4.129,0.464 -8.691,-1.726 -9.248,-4.252 -2.436,-13.684 -6.482,-16.595 -12.881,-21.672 7.948,-5.036 16.204,-12.487 16.204,-22.498 0,-10.753 -7.369,-17.523 -12.385,-20.847 -7.059,-4.644 -14.862,-5.572 -16.968,-5.572 H 52.899 C 64.273,45.959 79.734,36.959 97.073,33.657 l 9.887,10.361 a 5.849,5.849 0 0 0 8.278,0.19 L 126.302,33.64 c 23.119,4.314 42.729,18.721 54.082,38.598 l -7.576,17.09 c -1.306,2.951 0.027,6.419 2.973,7.72 l 14.573,6.48 c 0.255,2.607 0.383,5.224 0.384,7.843 l -0.021,0.052 z M 106.912,24.94 a 6.398,6.398 0 0 1 9.062,0.209 6.437,6.437 0 0 1 -0.213,9.082 6.396,6.396 0 0 1 -9.062,-0.21 6.436,6.436 0 0 1 0.213,-9.083 z m 75.137,60.476 a 6.402,6.402 0 0 1 8.463,-3.26 6.425,6.425 0 0 1 3.261,8.482 6.402,6.402 0 0 1 -8.463,3.261 6.425,6.425 0 0 1 -3.261,-8.483 z"
         id="path291" /></g></g></svg>
