<?xml version="1.0" encoding="UTF-8" standalone="no"?>
<!-- Created with Inkscape (http://www.inkscape.org/) -->

<svg
   version="1.1"
   id="svg2"
   width="148"
   height="146"
   viewBox="0 0 148 146"
   sodipodi:docname="07.svg"
   xml:space="preserve"
   inkscape:version="1.2.2 (b0a8486541, 2022-12-01)"
   xmlns:inkscape="http://www.inkscape.org/namespaces/inkscape"
   xmlns:sodipodi="http://sodipodi.sourceforge.net/DTD/sodipodi-0.dtd"
   xmlns="http://www.w3.org/2000/svg"
   xmlns:svg="http://www.w3.org/2000/svg"><defs
     id="defs6" /><sodipodi:namedview
     id="namedview4"
     pagecolor="#ffffff"
     bordercolor="#111111"
     borderopacity="1"
     inkscape:showpageshadow="0"
     inkscape:pageopacity="0"
     inkscape:pagecheckerboard="1"
     inkscape:deskcolor="#d1d1d1"
     showgrid="false"
     inkscape:zoom="3.4041096"
     inkscape:cx="6.0221328"
     inkscape:cy="73.146881"
     inkscape:window-width="1920"
     inkscape:window-height="2123"
     inkscape:window-x="20"
     inkscape:window-y="20"
     inkscape:window-maximized="0"
     inkscape:current-layer="g8" /><g
     inkscape:groupmode="layer"
     inkscape:label="Image"
     id="g8"><rect
       style="fill:#e6e6e6;fill-rule:evenodd"
       id="rect359"
       width="148"
       height="146"
       x="0"
       y="0"
       ry="10.848359" /><path
       fill="#107c10"
       d="m 68.030187,132.65206 c -9.223323,-0.88365 -18.560755,-4.19558 -26.581763,-9.42928 -6.72128,-4.38345 -8.238092,-6.18831 -8.238092,-9.78552 0,-7.22641 7.945862,-19.885522 21.541498,-34.313322 7.719037,-8.196345 18.473087,-17.798175 19.635047,-17.539343 2.262692,0.50514 20.339181,18.137718 27.107773,26.439822 10.70118,13.122503 15.61899,23.870983 13.11973,28.662163 -1.8995,3.64174 -13.68888,10.761 -22.348617,13.49544 -7.138752,2.25435 -16.513756,3.20895 -24.235576,2.47004 z M 24.131732,105.92418 c -5.58576,-8.56929 -8.407863,-17.004983 -9.768818,-29.206266 -0.450869,-4.028594 -0.29223,-6.331641 1.02002,-14.603131 1.632311,-10.297615 7.50056,-22.223366 14.555818,-29.556938 3.003008,-3.117116 3.270189,-3.200611 6.9328,-1.962113 4.439107,1.502895 9.184359,4.781433 16.545763,11.438701 l 4.299949,3.888046 -2.351752,2.880549 C 44.472305,62.176012 32.975157,81.143106 28.647375,92.874043 26.295622,99.24743 25.349356,105.64865 26.365202,108.3135 c 0.681868,1.8007 0.05566,1.12996 -2.240427,-2.38515 z m 98.040258,1.45698 c 0.55245,-2.69409 -0.14612,-7.63973 -1.78121,-12.62989 C 116.84924,83.945727 105.00837,63.844505 94.136033,50.176508 L 90.712772,45.873774 94.41713,42.47417 c 4.834313,-4.439107 8.19078,-7.097005 11.81443,-9.355523 2.85689,-1.781209 6.94115,-3.357858 8.69731,-3.357858 1.08125,0 4.89276,3.965974 7.96813,8.27984 4.76474,6.679534 8.2687,14.792385 10.04435,23.225297 1.14805,5.454952 1.24406,17.116306 0.18508,22.557343 -0.87669,4.464155 -2.71357,10.250306 -4.49478,14.175921 -1.34982,2.94039 -4.67567,8.65278 -6.13682,10.51192 -0.75144,0.956 -0.75144,0.95461 -0.33397,-1.10769 z M 69.018202,27.720749 c -5.018,-2.546573 -12.757911,-5.281007 -17.032812,-6.018539 -1.49733,-0.25744 -4.053643,-0.403556 -5.677605,-0.320061 -3.52902,0.178121 -3.371773,-0.0056 2.286349,-2.678772 4.703505,-2.222336 8.627731,-3.52902 13.957444,-4.647842 5.990706,-1.259371 17.255463,-1.273286 23.151543,-0.03061 6.366431,1.342866 13.865599,4.132963 18.090409,6.735197 l 1.25798,0.77093 -2.88055,-0.144723 c -5.727705,-0.289447 -14.074339,2.024733 -23.036047,6.383129 -2.702429,1.316425 -5.051399,2.365669 -5.223953,2.337838 -0.171163,-0.0334 -2.374017,-1.106298 -4.898324,-2.386542 z"
       id="path293"
       style="stroke-width:1.39157" /></g></svg>
