<?xml version="1.0" encoding="UTF-8" standalone="no"?>
<!-- Created with Inkscape (http://www.inkscape.org/) -->

<svg
   version="1.1"
   id="svg2"
   width="148"
   height="146"
   viewBox="0 0 148 146"
   sodipodi:docname="08.svg"
   xml:space="preserve"
   inkscape:version="1.2.2 (b0a8486541, 2022-12-01)"
   xmlns:inkscape="http://www.inkscape.org/namespaces/inkscape"
   xmlns:sodipodi="http://sodipodi.sourceforge.net/DTD/sodipodi-0.dtd"
   xmlns="http://www.w3.org/2000/svg"
   xmlns:svg="http://www.w3.org/2000/svg"><defs
     id="defs6" /><sodipodi:namedview
     id="namedview4"
     pagecolor="#ffffff"
     bordercolor="#111111"
     borderopacity="1"
     inkscape:showpageshadow="0"
     inkscape:pageopacity="0"
     inkscape:pagecheckerboard="1"
     inkscape:deskcolor="#d1d1d1"
     showgrid="false"
     inkscape:zoom="3.4041096"
     inkscape:cx="123.2334"
     inkscape:cy="73.146881"
     inkscape:window-width="1920"
     inkscape:window-height="2123"
     inkscape:window-x="26"
     inkscape:window-y="23"
     inkscape:window-maximized="0"
     inkscape:current-layer="g8" /><g
     inkscape:groupmode="layer"
     inkscape:label="Image"
     id="g8"><rect
       style="fill:#e6e6e6;fill-rule:evenodd"
       id="rect359"
       width="148"
       height="146"
       x="0"
       y="0"
       ry="10.848359" /><path
       class="st0"
       d="m 15.04836,94.800002 c -4.610001,3.07 -3.070001,8.899998 6.75,11.669998 10.13,3.38 21.18,4.3 31.93,2.46 0.61,0 1.23,-0.31 1.54,-0.31 V 98.170002 l -10.44,3.379998 c -3.99,1.23 -7.98,1.54 -11.97,0.61 -3.07,-0.92 -2.46,-2.759998 1.23,-4.299998 l 21.18,-7.37 v -11.35 l -29.48,10.13 c -3.68,1.23 -7.37,3.07 -10.74,5.53 z m 71.22,-46.06 v 29.78 c 12.59,6.14 22.41,0 22.41,-15.96 0,-16.27 -5.83,-23.64 -22.72,-29.47 -8.9,-3.08 -18.11,-5.84 -27.32,-7.68 V 114.14 l 21.49,6.45 V 45.980002 c 0,-3.38 0,-5.83 2.46,-4.91 3.38,0.92 3.68,4.3 3.68,7.67 z m 39.92,38.99 c -8.9,-3.07 -18.42,-4.3 -27.63,-3.38 -4.91,0.31 -9.52,1.54 -13.82,3.07 l -0.92,0.31 v 11.98 l 19.96,-7.37 c 3.99,-1.23 7.98,-1.54 11.97,-0.61 3.07,0.92 2.46,2.76 -1.23,4.3 l -30.7,11.359998 v 11.67 l 42.37,-15.66 c 3.07,-1.23 5.83,-2.76 8.29,-5.219998 2.15,-3.08 1.23,-7.38 -8.29,-10.45 z"
       id="path293" /></g><style
     type="text/css"
     id="style291"><![CDATA[
	.st0{fill:#0070D1;}
]]></style></svg>
