<?xml version="1.0" encoding="UTF-8" standalone="no"?>
<!-- Created with Inkscape (http://www.inkscape.org/) -->

<svg
   version="1.1"
   id="svg2"
   width="148"
   height="146"
   viewBox="0 0 148 146"
   sodipodi:docname="10.svg"
   xml:space="preserve"
   inkscape:version="1.2.2 (b0a8486541, 2022-12-01)"
   xmlns:inkscape="http://www.inkscape.org/namespaces/inkscape"
   xmlns:sodipodi="http://sodipodi.sourceforge.net/DTD/sodipodi-0.dtd"
   xmlns="http://www.w3.org/2000/svg"
   xmlns:svg="http://www.w3.org/2000/svg"><defs
     id="defs6" /><sodipodi:namedview
     id="namedview4"
     pagecolor="#ffffff"
     bordercolor="#111111"
     borderopacity="1"
     inkscape:showpageshadow="0"
     inkscape:pageopacity="0"
     inkscape:pagecheckerboard="1"
     inkscape:deskcolor="#d1d1d1"
     showgrid="false"
     inkscape:zoom="4.814138"
     inkscape:cx="96.278919"
     inkscape:cy="144.78189"
     inkscape:window-width="1920"
     inkscape:window-height="2123"
     inkscape:window-x="26"
     inkscape:window-y="23"
     inkscape:window-maximized="0"
     inkscape:current-layer="g8" /><g
     inkscape:groupmode="layer"
     inkscape:label="Image"
     id="g8"><rect
       style="fill:#e6e6e6;fill-rule:evenodd"
       id="rect359"
       width="148"
       height="146"
       x="0"
       y="0"
       ry="10.848359" /><g
       style="fill:none"
       id="g306"
       transform="matrix(0.86355139,0,0,0.86355139,20.459814,11.890786)"><path
         d="M 10.383,126.892 0,0 124,0.255 113.021,126.892 62.468,141.53 Z"
         fill="#1b73ba"
         id="path291" /><path
         d="M 62.468,129.275 V 12.085 l 51.064,0.17 -9.106,104.85 z"
         fill="#1c88c7"
         id="path293" /><path
         d="M 100.851,27.064 H 22.298 l 2.128,15.318 h 37.276 l -36.68,15.745 2.127,14.808 H 81.192 L 79.234,93.615 60.936,97.19 44.341,92.935 43.064,81.19 H 27.83 l 2.042,24.426 32.681,9.106 31.32,-9.957 4,-47.745 H 64.765 L 100.85,42.042 Z"
         fill="#ffffff"
         id="path295" /></g></g></svg>
