<?xml version="1.0" encoding="UTF-8" standalone="no"?>
<!-- Created with Inkscape (http://www.inkscape.org/) -->

<svg
   version="1.1"
   id="svg2"
   width="148"
   height="146"
   viewBox="0 0 148 146"
   sodipodi:docname="11.svg"
   xml:space="preserve"
   inkscape:version="1.2.2 (b0a8486541, 2022-12-01)"
   xmlns:inkscape="http://www.inkscape.org/namespaces/inkscape"
   xmlns:sodipodi="http://sodipodi.sourceforge.net/DTD/sodipodi-0.dtd"
   xmlns="http://www.w3.org/2000/svg"
   xmlns:svg="http://www.w3.org/2000/svg"><defs
     id="defs6" /><sodipodi:namedview
     id="namedview4"
     pagecolor="#ffffff"
     bordercolor="#111111"
     borderopacity="1"
     inkscape:showpageshadow="0"
     inkscape:pageopacity="0"
     inkscape:pagecheckerboard="1"
     inkscape:deskcolor="#d1d1d1"
     showgrid="false"
     inkscape:zoom="3.4041096"
     inkscape:cx="136.74648"
     inkscape:cy="34.663984"
     inkscape:window-width="1920"
     inkscape:window-height="2123"
     inkscape:window-x="26"
     inkscape:window-y="23"
     inkscape:window-maximized="0"
     inkscape:current-layer="g8" /><g
     inkscape:groupmode="layer"
     inkscape:label="Image"
     id="g8"><rect
       style="fill:#e6e6e6;fill-rule:evenodd"
       id="rect359"
       width="148"
       height="146"
       x="0"
       y="0"
       ry="10.848359" /><g
       style="fill:none"
       id="g309"
       transform="matrix(0.87742334,0,0,0.87742334,19.599753,10.90826)"><path
         d="M 10.383,126.894 0,0 124,0.255 113.021,126.894 62.468,141.532 Z"
         fill="#e9ca32"
         id="path291" /><path
         d="M 62.468,129.277 V 12.085 l 51.064,0.17 -9.106,104.851 z"
         fill="#ffde25"
         id="path293" /><g
         fill="#ffffff"
         id="g297"><path
           d="M 57,26 H 43.5 v 78 L 33,102 V 91.5 l -12.5,-2 V 113 l 36.5,9.5 z m 10.127,0 H 104.5 L 102,40.95 H 81.394 V 65.483 H 102 L 99.5,115 67.127,122.5 V 107 L 89,99.5 90.263,79 67.127,82.35 Z"
           id="path295" /></g></g></g></svg>
