<?xml version="1.0" encoding="UTF-8" standalone="no"?>
<!-- Created with Inkscape (http://www.inkscape.org/) -->

<svg
   version="1.1"
   id="svg2"
   width="148"
   height="146"
   viewBox="0 0 148 146"
   sodipodi:docname="12.svg"
   xml:space="preserve"
   inkscape:version="1.2.2 (b0a8486541, 2022-12-01)"
   xmlns:inkscape="http://www.inkscape.org/namespaces/inkscape"
   xmlns:sodipodi="http://sodipodi.sourceforge.net/DTD/sodipodi-0.dtd"
   xmlns="http://www.w3.org/2000/svg"
   xmlns:svg="http://www.w3.org/2000/svg"><defs
     id="defs6" /><sodipodi:namedview
     id="namedview4"
     pagecolor="#ffffff"
     bordercolor="#111111"
     borderopacity="1"
     inkscape:showpageshadow="0"
     inkscape:pageopacity="0"
     inkscape:pagecheckerboard="1"
     inkscape:deskcolor="#d1d1d1"
     showgrid="false"
     inkscape:zoom="3.4041096"
     inkscape:cx="51.555332"
     inkscape:cy="162.15694"
     inkscape:window-width="1920"
     inkscape:window-height="2123"
     inkscape:window-x="26"
     inkscape:window-y="23"
     inkscape:window-maximized="0"
     inkscape:current-layer="g8" /><g
     inkscape:groupmode="layer"
     inkscape:label="Image"
     id="g8"><rect
       style="fill:#e6e6e6;fill-rule:evenodd"
       id="rect359"
       width="148"
       height="146"
       x="0"
       y="0"
       ry="10.848359" /><path
       d="m 38.714272,82.835783 c -0.830504,0.0563 -1.912419,0.428428 -2.637649,1.729088 -0.592571,1.06221 -1.980327,1.23163 -2.628009,1.01767 -1.079953,-0.3566 -2.459604,-0.60408 -3.796088,0.34799 -1.335631,0.95215 -2.779351,0.23221 -2.526147,-1.5031 0.253203,-1.735739 0.879898,-3.281491 2.544318,-4.238852 3.633827,-2.090549 1.108191,-3.545274 3.102936,-5.643927 1.998071,-2.10198 1.556672,-2.745311 1.490641,-5.600755 -6.754422,-1.014863 -10.583099,-2.961236 -14.857356,-8.302053 -4.275281,-5.340901 -5.932108,-9.737239 -6.375384,-16.43382 -0.442765,-6.695557 -0.05887,-11.03593 2.833949,-16.594119 2.893241,-5.558189 5.939701,-8.233631 11.218325,-11.009143 5.278625,-2.774999 10.450441,-3.439488 15.231275,-3.358527 4.780749,0.08019 7.966522,0.430821 10.667813,1.972222 2.700779,1.541401 5.171901,3.480181 6.747255,3.494513 1.575441,0.01365 2.648143,-0.398744 3.413639,-0.985684 0.204406,5.191096 -4.467231,5.641538 -8.646793,5.75159 -4.179049,0.109198 -6.747767,-1.619461 -10.596919,-0.976557 -3.849749,0.643417 -10.152278,2.394939 -13.22271,7.739168 -3.070347,5.344656 -3.175194,7.233614 -2.920028,11.715263 0.255165,4.481989 4.112933,7.825758 6.290073,7.862101 2.177651,0.03668 2.663498,-0.594021 4.569178,-1.83726 1.906191,-1.243154 11.636776,-13.288656 14.956999,-15.994297 3.320308,-2.705557 6.596511,-3.540923 10.134533,-3.584517 3.538108,-0.04351 4.442405,0.07678 7.29538,1.246054 2.853059,1.169018 4.607055,3.322697 6.90764,4.639133 1.175758,-0.692215 1.906191,-1.725247 2.984694,-2.514119 3.858878,-2.820044 5.864115,-3.580251 10.450099,-3.133647 2.635687,0.256615 5.959749,1.7621 7.94255,3.486409 3.531374,3.070346 6.448584,7.345201 8.806154,10.592227 1.83539,2.528962 3.99572,5.554777 7.07954,6.500706 3.36715,1.032094 5.90089,-3.328839 6.27284,-5.74775 0.21064,-1.370523 0.48585,-2.572045 0.48833,-4.080431 0,-1.508897 -0.15229,-3.33993 -0.58695,-4.911957 -0.43508,-1.57254 -1.18002,-3.13689 -1.98655,-4.434216 -1.3126,-2.111023 -3.46107,-4.320666 -5.69562,-5.457607 -1.25416,-0.638127 -4.20533,-1.797505 -6.06511,-1.838199 -2.2796,-0.04948 -4.01628,0.716102 -6.12304,0.859766 -2.550972,0.173693 -7.107268,0.74724 -9.10679,-1.223106 -1.272415,-1.254244 -1.432288,-2.090975 -1.650087,-3.726218 0.562456,0.46341 1.348513,0.7678 2.048832,0.827176 1.596938,0.135048 3.092357,-1.169445 4.381493,-1.924789 1.062294,-0.622345 2.565902,-1.735313 3.960822,-2.297769 3.58402,-1.444744 7.98657,-1.4026 11.77029,-1.0158 3.03256,0.310191 6.96412,1.659131 9.62378,3.164189 2.67254,1.511713 5.24748,4.060809 7.13354,6.463852 2.37293,3.023511 3.67017,5.617566 4.52994,9.388317 1.09863,4.815641 1.4026,12.048829 0.0751,16.797501 -1.04651,3.741575 -4.52183,9.488814 -7.48067,12.306469 -2.91773,2.778839 -6.28675,4.120185 -10.11833,4.854031 0.15032,0.77309 0.1748,1.494482 0.37341,2.128254 0.28152,0.899947 0.82001,1.903291 1.92675,1.585933 0.44089,-0.126345 0.67737,-0.23597 1.25902,0.272911 0.58165,0.508795 0.27863,2.474875 -1.35756,3.357077 -0.82965,0.447628 -1.70519,0.544797 -3.034,0.571585 -1.32889,0.02645 -3.40263,0.03242 -4.84541,-0.220188 -1.44236,-0.252777 -2.30451,-1.397823 -3.90188,-1.576891 -2.46916,-0.276152 -4.35957,-2.059837 -6.33947,-3.335579 -0.826237,-0.532768 -1.104863,-0.538057 -1.580643,-0.807043 0.257042,0.787421 0.600249,1.605043 0.7707,2.361923 0.172333,0.757307 0.09862,1.458564 0.189563,2.064103 0.0909,0.605538 0.25849,1.076114 0.3566,1.56725 0.39542,0.354297 0.52185,0.891842 1.18625,1.060844 0.66543,0.169001 1.70605,-0.09384 2.38632,-0.185296 0.67977,-0.09188 1.13592,-0.462386 1.66971,-0.360951 0.53371,0.10152 1.03969,0.483543 1.48732,0.842105 0.44754,0.358051 0.83195,0.410688 1.19435,1.304407 0.36189,0.894231 0.69409,2.724752 0.74392,3.948369 0.0495,1.223529 -0.0876,2.328399 -0.45002,3.299149 -0.36283,0.97084 -0.68164,1.40166 -1.66348,2.36338 -0.98227,0.96171 -2.58117,2.37292 -4.17666,3.35562 0.29347,0.43569 0.42416,0.83392 0.88228,1.30595 0.45813,0.47245 1.4131,1.00146 1.8382,1.49976 0.4246,0.49779 0.64001,0.85542 0.64624,1.41455 0.008,0.55862 -0.0205,1.28436 -0.47391,1.89373 -1.12976,1.516489 -2.46626,1.787949 -4.09101,2.501239 0.27334,1.70605 0.49643,2.92481 0.10152,4.62898 -0.16132,0.69409 -0.51937,2.26766 -1.3753,2.67118 -0.856864,0.40403 -2.508402,0.20867 -3.553378,0.37434 -1.045488,0.16662 -1.630466,0.3241 -2.445187,0.48585 -0.494975,0.71619 -1.23266,1.506 -1.485437,2.14745 -0.252777,0.64145 -0.176679,0.87171 0.03583,1.52707 0.21251,0.65536 0.935351,1.60939 1.140268,2.37677 0.204832,0.76737 0.244587,1.5931 0.05375,2.36235 -0.191438,0.76976 -0.519374,1.32795 -1.174734,2.01104 -0.655786,0.68359 -1.945435,1.2202 -2.587827,1.77353 -0.642905,0.55435 -1.282909,0.62089 -1.10768,1.53713 0.24126,1.25902 2.080909,3.30061 3.411165,3.78654 0.797574,0.29202 1.868399,0.19963 2.836765,-0.20919 -0.06569,1.07561 -0.996178,1.7999 -1.604105,2.51412 1.646761,-0.47057 3.242761,-1.37197 4.347113,-2.56633 -0.342268,1.03739 -1.520841,2.70275 -3.283454,4.16566 -1.762527,1.4624 -1.752034,1.16322 -2.628009,1.74487 1.598816,0.32119 3.085191,0.23452 4.323567,0.0119 -0.678735,0.37435 -1.791277,0.90046 -3.265709,1.05556 -1.47392,0.15458 -2.382483,0.0452 -3.710862,-0.27761 -1.328891,-0.32264 -2.541418,-1.53048 -4.151239,-2.36294 0.156973,0.59743 0.268048,1.31549 0.945418,1.92922 0.676858,0.61467 1.701274,0.92674 2.789844,1.45814 -1.385794,-0.15757 -2.842055,-0.20492 -4.203961,-0.50504 -1.008633,-0.22266 -1.685918,-0.45863 -2.423603,-0.82385 -0.737259,-0.3653 -1.306881,-0.8985 -1.959852,-1.34758 0.313091,0.59838 0.405995,1.30117 0.938251,1.79418 0.532853,0.4931 1.398761,0.67643 2.099165,1.01486 -0.730519,-0.0162 -1.433226,0.14264 -2.190533,-0.0478 -0.757307,-0.19007 -1.468204,-0.48977 -2.255711,-1.06989 -0.787933,-0.5802 -1.600266,-1.29494 -2.272347,-2.02494 -0.671654,-0.73095 -1.501219,-1.67782 -1.752034,-2.35135 -0.251327,-0.67353 0.150745,-1.14504 0.226416,-1.71663 -0.464349,0.30448 -1.034483,0.47246 -1.391083,0.91479 -0.356686,0.44234 -0.672593,0.84638 -0.514597,1.61801 0.157911,0.7707 0.869747,1.71373 1.372912,2.57111 -1.501732,-1.22788 -2.340425,-1.70034 -2.697537,-3.18193 -0.335017,-1.38682 0.530891,-2.64576 1.188639,-3.69457 0.326486,-0.52083 0.815233,-1.00531 1.120647,-1.50796 -0.678309,-0.66398 -1.45336,-1.23454 -2.034499,-1.99142 -0.581566,-0.75628 -0.825727,-1.7807 -1.418809,-2.50499 -0.593595,-0.72429 -1.392107,-1.18241 -2.087137,-1.77362 0.610828,1.31311 1.61511,2.92345 1.833421,3.93976 0.2178,1.0158 -0.24416,1.63712 -0.605111,2.18618 -0.360952,0.54812 -0.943029,0.6702 -1.494992,1.00769 -0.551963,0.33698 -1.410705,0.0717 -1.740091,0.57159 -0.328362,0.50018 -0.416403,1.25322 -0.102373,1.74862 l 1.289563,2.03544 c -0.475354,-0.23981 -1.293914,-0.93723 -1.662543,-1.43221 -0.369056,-0.49454 -0.935351,-0.95173 -1.012899,-1.62091 -0.07763,-0.66875 -0.114914,-1.24938 0.318381,-1.84493 0.43321,-0.59548 1.619887,-0.79459 2.150778,-1.25271 0.531318,-0.45812 0.829054,-0.75637 0.798939,-1.348 -0.02986,-0.59223 -0.608439,-1.01538 -1.105803,-1.38827 -1.517514,-1.13831 -3.463887,-2.18763 -4.752511,-3.5591 -0.727618,-0.77505 -1.077053,-1.40072 -1.223617,-1.93545 -0.145968,-0.53464 0.0085,-0.95164 0.370079,-1.60939 0.36189,-0.65767 1.602228,-1.5356 1.752973,-2.24983 0.15083,-0.71473 -0.47578,-0.86795 -1.041137,-1.12022 -0.565356,-0.25175 -1.639082,0.12925 -2.163745,-0.30874 -0.524152,-0.4385 0.154157,-1.35952 -0.437049,-1.86456 -0.590694,-0.50495 -1.943046,-0.223 -2.640976,-0.76592 -0.69793,-0.54377 -0.986111,-1.21824 -1.226945,-2.00669 -0.240747,-0.78836 -0.268047,-1.65154 -0.105273,-2.22261 0.1632,-0.57107 0.652971,-0.67114 0.948744,-0.96691 0.295347,-0.29586 0.551451,-0.54096 0.157997,-0.98236 -0.393967,-0.44089 -1.684042,0.0247 -2.425566,-0.54139 -0.741951,-0.566289 -0.287669,-1.922909 -0.812332,-2.495009 -0.524237,-0.57149 -1.464877,-0.34798 -1.961729,-0.53037 -0.496425,-0.18283 -0.691276,0.46196 -0.995666,-0.55768 -0.304475,-1.01964 -0.313092,-4.05791 -0.722841,-5.19195 -0.409323,-1.13455 -1.213977,-0.0768 -1.587896,-1.204 -0.373406,-1.12679 -0.01877,-2.92915 -0.187599,-4.63137 l -0.762629,-4.631382 c -2.659659,1.787012 -4.415532,2.348018 -7.273369,2.85306 -0.238359,6.991932 -0.895169,11.109212 1.478186,18.866551 2.372928,7.75683 7.175773,12.3289 13.654981,18.89615 C 47.158962,113.3903 43.077082,108.18256 40.52227,101.51183 37.967458,94.839741 38.458083,89.259961 38.714698,82.835356 Z m 45.431492,-2.810489 c 0.657749,0.029 1.457199,0.1963 1.918647,0.495913 0.462386,0.30021 0.952584,0.545309 1.371973,0.971779 1.046426,1.065621 1.831032,2.350405 2.178078,3.827225 0.2207,0.94115 0.253715,2.14839 0.334078,3.25377 -0.316419,-1.0216 -0.52944,-2.08714 -0.98031,-3.00193 -0.711409,-1.44329 -1.919585,-2.851609 -3.420378,-3.500315 -0.495401,-0.214472 -0.825726,-0.174717 -1.098124,-0.136924 0.12208,0.204405 0.325973,0.376307 0.335102,0.676005 0.0085,0.299613 -0.05886,0.886044 -0.566296,1.132594 -0.819498,0.39729 -1.730535,0.11773 -2.363373,-0.4414 -0.638042,-0.56391 -0.855415,-1.517432 -0.521763,-2.337442 0.398318,-0.976556 1.914808,-0.979457 2.812366,-0.939275 z m -8.247537,-1.390145 c 0.08275,-1.679264 0.688888,-3.095769 2.193946,-3.919107 0.777867,-0.426044 1.977,-0.976556 3.078963,-1.105803 1.057943,-0.124468 3.632377,-0.03327 5.180944,0.673532 1.189151,0.542834 1.999095,1.387755 3.043559,2.005323 1.043611,0.617481 1.7865,1.031581 2.780289,1.724222 1.52613,1.063659 2.420361,2.234639 3.478305,2.936409 0.508795,0.336979 1.22447,0.287157 1.899963,0.493013 -0.525175,0.156034 -1.211588,0.328362 -1.778395,0.146991 -0.70612,-0.22599 -1.694108,-0.871283 -2.242232,-1.334607 -0.968452,-0.818134 -1.470593,-1.21739 -2.527512,-1.834445 -0.630961,-0.367606 -1.670221,-0.800815 -2.363374,-1.25322 -0.694091,-0.451893 -1.898513,-1.444232 -2.564878,-1.780273 -0.847737,-0.42647 -2.373867,-0.663976 -3.317408,-0.636164 -1.299629,0.03839 -3.181422,0.252265 -4.187666,1.165179 -0.998993,0.907113 -1.378628,1.705113 -1.153663,2.883686 0.376734,-0.433722 0.627122,-0.978519 1.004368,-1.300653 0.781194,-0.667304 1.677302,-0.699381 2.649593,-0.573035 1.091896,0.142213 1.641897,0.773089 2.002848,1.809534 -0.243222,-0.17813 -0.689313,-0.569708 -1.041648,-0.691276 -0.827177,-0.28528 -1.452336,-0.197239 -2.226876,0.218311 -0.914365,0.490624 -0.665427,1.216366 -0.797574,2.023921 -0.06057,0.372468 -0.200993,0.672593 -0.301574,1.00906 -0.343719,-0.09094 -0.661588,-0.234521 -0.921958,-0.492075 0.01109,0.377246 -0.04436,0.707059 0.03327,1.13114 0.07678,0.424167 0.283403,0.928697 0.425105,1.392109 -0.636677,-0.636679 -1.28871,-1.230274 -1.699909,-2.052161 -0.411711,-0.823423 -0.690764,-1.736252 -0.646232,-2.639611 z m 1.101964,-12.223117 c 0.469126,-0.69648 0.606988,-1.764916 0.89662,-2.63381 -0.115853,1.100513 0.106724,2.310737 -0.430821,3.107713 -0.537119,0.797062 -1.480575,0.657322 -2.262366,0.888942 0.608013,-0.463837 1.327015,-0.665853 1.796567,-1.362845 z M 65.762756,82.729485 c 0.603149,-0.488235 2.229264,-0.09811 3.44563,-0.01109 l -2.622719,0.671656 c -0.08105,0.29773 -0.04436,0.63855 -0.244161,0.89227 -0.199628,0.25371 -0.579262,0.34755 -0.868893,0.52133 0.02901,-0.78179 -0.31258,-1.58695 0.290143,-2.074251 z m 8.571548,-33.888129 c 0.726254,0.391152 1.648211,0.908137 2.289153,0.923919 0.641454,0.01621 0.809005,-0.419389 1.186763,-0.670204 0.593509,1.934942 1.274718,4.061747 2.285314,5.817621 0.423143,0.735808 0.693153,0.39354 1.014776,1.133102 0.321708,0.739135 0.464348,2.24317 0.769762,3.188161 0.305413,0.943968 0.703731,1.639083 1.055554,2.459093 -0.893293,-1.266187 -2.047893,-2.880359 -2.545769,-3.933951 -0.49779,-1.053166 -0.178983,-1.145046 -0.582077,-2.147963 -0.402584,-1.003344 -1.216878,-2.567267 -1.825744,-3.850688 -0.435598,0.05716 -0.975105,0.136925 -1.30688,0.03498 -0.330752,-0.102459 -0.264721,-0.454794 -0.564333,-0.682148 -0.299698,-0.227866 -0.80329,-0.139739 -1.223106,-0.503079 -0.419816,-0.363852 -0.515108,-1.109215 -0.553413,-1.768841 z m -3.909467,9.550067 c 0.683086,-0.06057 1.531761,0.123018 2.17185,0.08616 0.640004,-0.03583 1.096675,-0.202017 1.645225,-0.303025 -0.101947,-0.964101 -0.0085,-2.735245 -0.895169,-3.378661 -0.5744,-0.415465 -2.935385,-0.102459 -3.566261,0.03327 -1.418382,0.305926 -3.070858,1.152724 -4.443343,1.682165 1.315497,-0.919142 2.450988,-1.770206 4.028731,-2.244194 0.947892,-0.285281 3.160862,-0.655787 4.139381,-0.391578 0.446603,0.120715 0.537119,0.305413 0.808067,0.684621 0.931512,1.300142 0.928611,2.424115 1.170383,3.938729 0.23742,0.370506 0.490624,0.617482 0.683086,0.998993 0.19195,0.382023 0.301148,0.982784 0.354211,1.47392 -0.243136,-0.3537 -0.09427,-0.796977 -0.76925,-1.05982 -0.67592,-0.26327 -1.70989,-0.01792 -2.620416,0.07763 0.66355,0.478681 0.993363,0.939702 1.0187,1.952174 0.02986,1.188128 -0.976556,2.044054 -2.026821,2.125356 -1.458564,0.113037 -2.210582,-0.207733 -2.800423,-1.454213 -0.258492,-0.545736 -0.07166,-1.202546 -0.09282,-1.734887 -1.752034,0.121654 -1.72337,0.06484 -3.004316,1.132676 0.696053,1.019638 1.134467,1.606493 2.284802,2.216382 0.645293,0.342695 1.375812,0.675408 2.175263,0.811394 0.799365,0.136413 2.111535,0.268048 2.951593,0.138801 0.840144,-0.129246 1.316436,-0.368629 1.938781,-0.944991 0.623283,-0.57585 0.680185,-1.400638 0.923919,-2.053097 -0.05545,0.62806 -0.127881,1.426999 -0.360525,1.882219 -0.708423,1.383917 -1.934429,1.794178 -3.398283,1.798955 -1.404476,0.0085 -3.142178,-0.319746 -4.448974,-0.861642 -1.045061,-0.432783 -2.776962,-1.659216 -3.188161,-2.724751 -0.281015,-0.727619 -0.05801,-1.621338 -0.08813,-2.431794 1.447133,-0.962224 1.804757,-0.725741 3.517036,-1.007182 0.715675,-0.117815 1.208261,-0.3839 1.891859,-0.444215 z m -8.427543,-6.516489 c 0.04095,-0.576362 0.104336,-0.563907 0.156546,-0.846372 -1.317886,-0.352335 -1.846388,0.502653 -2.619478,2.090976 -0.289119,0.594021 0,0.947806 -0.313091,1.338872 -0.30968,0.391151 -0.809006,0.336552 -1.312597,0.711836 -0.502568,0.375795 -1.001894,1.094797 -1.471958,1.483987 -0.965551,0.797488 -2.270982,1.28487 -3.390605,1.821904 0.7649,-0.564333 2.248887,-1.419833 2.728591,-2.24027 0.25508,-0.434234 0.217287,-1.254244 0.613643,-1.644372 0.396355,-0.391066 0.535242,-0.661502 1.046938,-0.761145 0.511696,-0.09998 0.30584,-0.693153 0.471002,-1.164156 0.164736,-0.471514 0.49361,-0.806616 0.843471,-1.277192 0.34952,-0.471003 0.791346,-1.178573 1.481598,-1.435104 0.690764,-0.257127 1.767817,0.02133 2.29103,-0.126857 0.522275,-0.148442 0.22215,-0.527991 0.602211,-0.756369 0.380146,-0.228377 1.119197,-0.127369 1.627139,-0.371444 0.899947,-0.432783 1.330768,-1.155113 1.871726,-1.929226 0.07934,1.665444 0.05972,2.864065 -0.538569,4.430377 -0.673958,1.763039 -1.356618,2.801361 -3.269549,3.885665 -0.658687,0.373321 -1.313961,0.502568 -1.860208,0.698868 0.318381,-0.434148 0.774113,-0.622771 0.955484,-1.303041 0.180945,-0.680698 0.04607,-2.030149 0.08616,-2.606937 z m 30.873749,8.118205 c -0.909502,0.05886 -1.124912,-0.06057 -1.852616,0.452405 0.39499,0.613728 0.788957,1.227371 1.182412,1.841099 -0.03413,-1.211162 0.0836,-1.454299 0.670204,-2.293504 z m -2.382057,-0.880752 c 1.259022,-0.53618 2.356208,-0.969902 3.726219,-1.055554 0.549062,-0.03413 1.401661,0.05033 1.956439,0.07593 0.472539,-0.695541 1.074238,-1.244091 1.294938,-2.037741 0.146479,-0.526625 0.07422,-2.970362 -0.184358,-3.60465 -0.753467,-1.846815 -1.485863,-1.924363 -2.522734,-2.982306 -0.752018,-0.767373 -0.782218,-1.935367 -1.007183,-3.244125 -0.08275,-0.480643 -0.318296,-1.089082 -0.428859,-1.585507 -1.355679,-0.228293 -2.81339,-0.303452 -4.37245,-0.225477 0.756282,-0.72523 1.487313,-1.388183 1.704174,-2.476752 0.216349,-1.08857 0.0401,-2.427016 -0.57875,-3.403572 -0.619018,-0.976557 -1.607518,-1.826682 -2.515142,-2.622293 -0.907625,-0.7951 -2.208705,-1.45191 -3.068897,-2.102492 1.118685,-0.400621 2.26083,-0.988927 3.356651,-1.201522 2.854936,-0.55384 5.314455,0.292958 8.067957,1.95789 1.600777,0.96794 2.924891,1.88802 4.598439,3.640054 1.67304,1.752034 3.74815,4.965107 5.36812,6.870786 1.61989,1.905168 2.92771,3.413127 4.3408,4.549556 1.4136,1.13643 2.69276,1.460015 4.0388,2.190534 l 2.09771,2.227387 1.69795,-2.10053 2.73192,0.308741 0.56484,-3.066508 2.50695,-0.68701 -0.40881,-4.133494 1.8028,-1.279581 -1.35474,-2.572045 1.37632,-2.809977 -1.79512,-3.21256 0.69213,-3.093381 -2.07749,-1.771144 -0.27146,-3.286781 -2.89853,-1.105803 -1.16279,-2.859287 -3.25897,-0.03668 -1.59882,-2.123052 -2.19343,0.153645 -2.44613,-0.266085 -1.38246,-1.021089 -2.0072,1.332645 -2.42898,-1.266614 -4.828186,1.832995 3.147466,-2.737207 3.26094,-0.520825 2.49782,-0.636676 3.37388,1.107679 2.96943,-0.751591 2.86304,1.692231 3.03025,-0.167551 1.48825,2.670665 3.01677,0.348069 1.63234,2.969338 1.89707,1.035933 0.50359,3.803681 1.68984,1.60274 -0.74297,3.328413 1.9909,2.520346 -1.86686,2.700352 1.99611,1.688307 -2.5514,2.261427 2.58399,2.691224 -3.12111,1.006245 2.03305,2.886587 -2.5491,0.439864 1.67159,3.173829 -2.87268,-0.03839 1.44713,2.377194 -3.15131,-0.379123 0.75398,3.420293 -2.38154,-2.095241 -0.81566,4.145523 -1.64343,-2.976505 -0.8904,3.712313 -2.02869,-2.737718 0.0555,3.892831 -2.24223,-3.499803 c 0.47296,1.985616 0.37818,4.15994 1.68259,6.032604 4.04118,-0.547185 6.68267,-1.565373 9.77895,-4.544778 2.81954,-2.71332 6.19052,-8.371068 7.10292,-11.959423 1.04165,-4.094763 1.07373,-11.625686 0.0478,-15.79467 -0.98705,-4.013887 -2.27047,-5.931084 -4.56295,-9.206348 -2.19105,-2.327457 -4.34609,-4.786038 -7.12741,-6.445681 -4.0823,-2.436144 -9.31691,-3.092442 -13.96986,-3.029738 -2.57588,0.03583 -4.30207,0.529952 -5.84202,1.090532 -2.693701,0.979371 -4.847806,3.115817 -7.586037,4.171883 -0.893207,0.343634 -1.608882,0.354212 -2.312101,-0.02133 0.688375,1.377689 1.437577,1.996109 3.155146,2.497312 1.242215,0.362401 4.206776,0.133085 6.247502,-0.0546 2.19096,-0.202444 3.33371,-0.853965 6.31499,-0.812845 2.91192,0.0401 5.21925,1.14607 6.48117,1.866949 2.60267,1.488764 4.46962,3.140302 6.09138,5.755428 0.89039,1.436042 1.51461,3.056953 1.95414,4.710368 0.43943,1.653926 0.63181,3.50603 0.66005,5.124979 0.0281,1.618949 -0.0957,3.064205 -0.49156,4.520807 -0.92631,3.410738 -2.96943,6.881791 -7.16665,6.345696 -2.56872,-0.328363 -6.4409,-5.149379 -7.73772,-6.918219 -2.61657,-3.569588 -5.30874,-7.519833 -8.596969,-10.492584 -2.004299,-1.811923 -4.749184,-3.058915 -7.444759,-3.305464 -5.056475,-0.462898 -6.556244,0.497875 -10.362399,3.635277 0.774539,0.246549 1.530396,0.382961 2.323618,0.740585 1.76159,0.79365 3.371922,1.819004 4.777423,3.135013 1.472043,1.378627 2.132095,2.251275 2.184817,4.225886 0.03412,1.311231 -1.044037,2.362435 -2.033049,3.307853 -0.605112,0.579262 -1.4055,1.109641 -1.895698,1.559145 -0.649132,0.59641 -1.453275,1.248955 -0.637615,2.19915 0.306864,0.357112 0.839632,0.62661 1.289136,0.95975 0.713286,0.529441 0.386289,2.496459 -0.552901,3.018222 -1.202461,0.667303 -2.638588,0.592656 -3.629988,-0.300125 1.251343,-0.187172 2.046016,-0.353273 2.013427,-1.37675 -0.01877,-0.593595 -0.773089,-1.086693 -1.513163,-1.424099 -1.785561,-0.813868 -3.134074,-0.694176 -4.910934,-1.972307 -1.795201,-1.291952 -1.834444,-1.999522 -2.319353,-4.027794 -0.865481,0.09103 -1.662543,0.110137 -2.819532,0.493611 -1.156989,0.382961 -2.435632,1.294852 -3.486409,1.520329 -2.645753,0.569622 -3.172805,0.400621 -4.620876,0.02559 -2.549096,-0.659625 -5.868807,0.470064 -9.165655,1.52468 -0.54855,0.175144 -2.765957,0.0085 -4.258475,0.529868 -2.305959,0.809005 -5.54053,2.767833 -7.408843,4.341311 -2.831049,2.383934 -6.551552,9.519952 -8.653447,17.710498 -0.2207,2.48972 0.487297,4.167533 -1.081403,5.383473 -1.568274,1.215853 -1.52468,4.331756 -2.05651,5.205342 -0.531829,0.873671 -1.147434,0.487809 -2.29248,1.714753 -1.144619,1.226859 -1.727635,1.022027 -1.698459,3.34223 0.986111,-0.64862 2.424627,-1.4026 3.687402,-1.44807 1.11877,-0.0409 1.130714,1.43186 4.001518,-1.405924 1.535173,-1.518453 4.48489,-1.565374 6.531333,-2.234554 2.046443,-0.669692 5.734868,-2.04977 9.428498,-6.179084 3.69363,-4.12974 5.461447,-8.477276 6.177633,-14.762146 0.113891,1.113993 0.312068,2.371052 -0.165162,5.444726 -0.47723,3.074271 -1.505485,6.526638 0.660564,10.662094 l 1.349963,2.576822 C 59.404434,76.512523 57.834795,74.723549 57.36183,73.448831 l -1.089935,-2.941186 c -2.439045,3.829616 -2.999539,4.514152 -6.387328,7.257587 -0.134962,1.702297 -0.167551,3.47728 0.388251,5.105784 0.556228,1.628075 -0.330325,3.505515 0.09282,4.577875 0.423229,1.07228 1.402174,0.46188 1.721408,1.54806 0.319831,1.08575 -0.166527,3.23218 0.328874,4.29064 0.495914,1.05794 1.711853,0.4164 2.301097,0.75773 0.589755,0.34227 0.782217,0.81097 1.097698,1.26047 0.314968,0.44993 -0.123531,1.51265 0.517924,1.85731 0.640515,0.34517 1.640532,0.0529 2.307324,0.3839 0.666877,0.33126 0.768312,1.127809 0.608439,1.841099 -0.159873,0.71371 -0.872648,1.04122 -1.185739,1.76645 -0.31258,0.72566 -0.277603,1.2307 0.09819,1.89706 0.37571,0.66637 1.208176,1.03355 2.037826,1.37001 0.829053,0.33605 1.994659,0.14742 2.850585,0.61279 0.856439,0.46427 1.625689,1.39109 2.077582,2.06462 0.451893,0.67353 0.577812,1.14888 0.554351,1.85688 -0.02303,0.70749 -0.310191,1.52323 -0.688375,2.20674 -0.378184,0.68411 -1.211588,1.51658 0.09,2.82244 1.302018,1.30543 1.254159,0.74246 2.000034,1.58977 -0.08105,-1.46531 -0.68701,-2.65915 -0.24416,-3.76256 0.442764,-1.10291 1.772167,-1.29443 2.472913,-1.79034 0.70083,-0.49694 1.104437,-1.17858 1.656827,-1.76739 -0.0085,0.75782 0.07337,1.57254 -0.0128,2.14318 -0.175656,1.16032 -0.517924,2.19054 1.211162,2.37669 0.778805,0.0836 1.518452,-0.42119 2.337951,-0.72472 -0.429371,0.76882 -1.176185,1.38724 -1.288198,2.30732 -0.11244,0.92008 0.02218,1.93059 0.659625,2.84351 0.636677,0.9124 1.737702,1.5902 2.543381,2.12638 0.806104,0.5366 1.237949,0.57917 1.857308,0.86983 0.02986,0.90472 -0.147844,1.86208 -0.04436,2.71374 0.102885,0.85209 0.371444,1.60556 0.864031,2.30972 0.493013,0.70458 1.282908,1.10861 2.02776,1.62944 -0.408299,-0.95071 -1.235988,-1.85253 -1.224983,-2.8511 0.01109,-0.99908 0.31113,-1.70707 1.285297,-2.59363 0.974168,-0.88655 3.255131,-1.65529 4.331245,-2.51744 1.075688,-0.86216 1.422734,-1.39015 1.809022,-2.22739 0.386289,-0.83682 0.278627,-2.18524 0.349947,-2.93777 0.354211,1.0541 0.404971,1.38153 0.519886,2.48443 0.11534,1.1029 -0.642905,2.64959 -0.963675,3.46576 1.330854,-0.64239 2.175263,-1.66971 2.601307,-2.67348 0.28528,0.16892 0.141701,0.63327 0.246549,1.52698 0.473903,-0.47194 1.01341,-0.83485 1.490641,-1.28051 0.477742,-0.44516 1.001467,-0.83622 1.238376,-1.45712 0.236482,-0.6214 0.139825,-1.28197 -0.03668,-2.00387 -0.176679,-0.7219 -0.983296,-1.55864 -1.417444,-2.34802 -0.434148,-0.78938 0.07678,-1.56435 0.04692,-2.51557 -0.86932,-0.14887 -1.60692,-0.59163 -2.605998,-0.44805 -0.999505,0.14358 -2.144125,1.26516 -3.165128,1.27813 -1.0216,0.0128 -1.594635,-0.94354 -2.431793,-1.2063 -0.837755,-0.26335 -1.685065,-0.2346 -2.526659,-0.3514 1.066559,-1.02151 5.205428,-1.50787 8.035965,-1.96983 2.49117,-0.40642 4.963144,-0.64145 7.486903,-0.67643 1.127301,-0.0162 2.575884,0.35617 3.358528,0.13121 0.783158,-0.22454 0.616118,-0.75782 0.848248,-1.33947 0.65007,-1.62518 0.32981,-3.07223 -0.0239,-4.70892 -2.265693,-0.26566 -4.626677,-0.59069 -6.909603,-0.41555 -2.231653,0.1719 -4.874591,1.23266 -7.176626,1.30449 -2.001484,0.0623 -4.965618,-0.38296 -6.684125,-1.43135 -2.100019,-1.279579 -3.725281,-4.029159 -4.302069,-4.911439 -0.93919,-1.43801 -2.124502,-4.25899 -2.845381,-5.54864 -0.720453,-1.29007 -0.879387,-1.65051 -1.47921,-2.18908 -0.599822,-0.53806 -1.421283,-0.57969 -2.131668,-0.86975 0.818645,0.0836 1.713303,-0.17574 2.457216,0.25082 1.117746,0.64145 2.369089,3.29966 3.064119,4.45622 0.737258,-2.4701 0.56493,-3.44187 2.697537,-4.83441 -1.718592,1.92633 -1.761675,3.38489 -2.18004,5.65246 1.428961,2.34563 3.415515,6.0814 6.014859,7.118269 0.93919,0.37435 2.551485,0.60938 3.566773,0.73487 3.159411,0.39107 6.206383,-0.60988 9.309318,-1.376319 2.268081,-0.56007 4.56969,-0.33408 7.32788,-0.17233 0.93638,0.0554 3.14466,-0.50837 3.60176,-1.45524 0.24706,-0.51126 0.2288,-1.12542 -0.12583,-1.67013 -0.35524,-0.54429 -1.30066,-0.80807 -1.80758,-1.29827 -0.507,-0.49019 -0.79851,-1.07184 -1.19777,-1.60794 -2.106247,0.40403 -3.839598,0.55956 -5.403521,0.60221 1.121585,-0.46247 2.1977,-0.72574 3.365267,-1.18241 1.167484,-0.45667 2.493054,-1.2063 3.435144,-1.82813 0.94209,-0.62235 1.54379,-0.98279 2.22593,-1.70656 0.6807,-0.7243 1.5548,-1.4706 2.05745,-2.35527 0.50265,-0.88553 0.5802,-1.875995 0.60844,-2.971219 0.0281,-1.095736 -0.0196,-2.632872 -0.44183,-3.515159 -0.42177,-0.882202 -1.23598,-1.15025 -1.88989,-1.359006 -0.65391,-0.208671 -1.10196,0.31932 -1.78224,0.39064 -0.68069,0.07166 -1.31643,0.500264 -2.30016,0.03754 -0.98423,-0.462471 -2.150776,-1.404562 -3.145504,-2.802811 -0.994727,-1.397822 -1.706137,-3.683648 -2.719974,-5.44191 -1.747769,-3.030589 -3.926358,-5.861638 -6.009144,-8.670165 -0.17139,-0.692727 -0.429371,-1.649576 -0.515108,-2.588851 -0.149295,-1.63712 -0.177106,-3.337456 0.330324,-4.933456 0.389702,-1.222594 0.955997,-2.514119 2.236005,-3.015321 0.512207,-0.201079 1.159889,-0.280503 1.61801,-0.110564 0.458121,0.169428 0.907113,0.686414 0.727618,1.283335 -0.198177,0.656811 -0.652971,0.674982 -0.962138,1.006245 -0.524664,0.562456 -0.73487,0.975106 -0.933048,1.676449 0.567319,-0.0094 1.333669,-0.05289 1.799467,0.06995 0.607927,0.159873 1.173284,0.562968 1.482025,1.424098 -0.72523,-0.643331 -1.085669,-0.938252 -1.990905,-0.9612 -0.414527,-0.01024 -0.91863,0.137862 -1.377689,0.207306 -0.17139,0.557678 -0.271887,1.241703 -0.514085,1.673548 -0.242284,0.431247 -0.713286,0.32785 -0.890392,0.832466 -0.177106,0.503079 -0.187685,1.323089 -0.09819,1.985104 z m 6.336568,-0.755856 c 0.277688,0.110051 0.383473,0.134023 0.735296,0.401559 0.351824,0.267621 0.837756,0.53473 1.11587,1.174307 0.279052,0.640004 0.26617,1.629442 0.206794,2.032537 -0.244587,-0.07166 -0.578239,-0.02303 -0.831954,-0.240321 -0.253289,-0.216861 -0.404033,-0.708423 -0.729069,-0.91863 -0.325035,-0.209695 -0.595983,-0.163712 -0.955058,-0.209695 0.184358,0.525176 0.274361,1.050351 0.188623,1.526643 -0.18666,1.038748 -0.797061,1.565288 -1.7865,1.689757 -0.431759,0.05375 -1.117746,-0.08804 -1.493541,-0.156546 0.174205,0.389189 0.469126,0.730092 0.643843,1.119196 0.836304,-0.121056 1.456175,-0.103823 1.905679,-0.313945 0.450016,-0.210633 0.932024,-0.681721 1.50941,-0.881349 0.5773,-0.199628 1.091897,-0.196215 1.723284,-0.294835 -0.497364,0.428433 -0.823337,0.857292 -1.320701,1.286236 l 1.093347,3.177156 c 0.772577,0.483458 1.497383,0.738112 2.470523,1.334609 0.97417,0.596917 2.14174,1.664927 3.40981,2.247005 1.26857,0.582589 2.02349,0.899435 3.34897,1.148884 1.32454,0.250389 2.37915,1.323602 3.68262,1.498319 1.30398,0.174291 3.73961,0.209183 4.7439,0.111075 1.14129,-0.111075 2.62331,-0.699892 2.7564,-1.950723 -0.95643,0.23597 -2.41746,0.02389 -3.15515,-1.776007 -0.32742,-0.799365 -0.16704,-2.269017 -0.66824,-3.214435 -0.50069,-0.944905 -1.19913,-1.248442 -2.03399,-2.41311 -0.83434,-1.164667 -2.19966,-3.001415 -2.96601,-4.562011 -0.76592,-1.560596 -0.94593,-3.327901 -1.59412,-4.725724 -0.64811,-1.397822 -1.62518,-2.527512 -2.38291,-3.60465 -1.65393,-2.355184 -2.9876,-3.964578 -5.71235,-5.152194 -1.310721,-0.571584 -2.802812,-0.723779 -4.203962,-1.085754 -0.570134,0.255677 -1.352266,0.53763 -1.491153,1.204422 -0.138801,0.666877 0.127796,1.651538 0.611766,2.152741 0.810456,0.836731 2.010612,1.741541 2.482553,3.072309 0.303025,0.853537 0.391152,3.71564 0.128308,4.492141 -0.272398,0.806617 -0.905662,1.293914 -1.432288,1.831033 z m 0.26327,6.774043 c -0.252691,0.218737 -0.445665,0.442764 -0.853026,0.624221 -0.406848,0.181457 -0.962138,0.228378 -1.502158,0.362828 0.757307,1.178573 1.552407,2.369602 2.277636,3.608487 0.725742,1.238376 1.354741,2.594567 2.046955,3.891807 -0.03242,-0.742974 0.01109,-1.535685 -0.09717,-2.230714 -0.107748,-0.694177 -0.422717,-1.302104 -0.734785,-2.345199 -0.311641,-1.042588 -0.695115,-2.461483 -1.136941,-3.910918 z M 76.722077,39.22142 c -0.106724,1.158951 0.08906,2.9713 0.329386,4.105853 0.287157,1.358494 0.564845,2.063163 1.666808,2.881724 2.019144,1.498319 3.307853,1.246054 4.860686,2.114862 0.739135,0.413673 1.67551,1.106826 1.948335,1.839649 0.273849,0.732481 -0.180006,1.528519 -0.7405,1.841099 0.98031,0.146052 2.079458,-0.958812 1.620825,-2.093364 -0.225903,-0.558617 -1.301079,-0.807043 -1.630892,-1.370523 -0.328874,-0.562883 -0.328448,-1.143084 -0.173352,-1.71518 0.280076,-1.03107 2.320291,-1.967445 3.041256,-2.783104 1.109129,-1.254244 1.535173,-2.303059 0.906601,-3.918681 -0.882202,-2.269019 -4.290552,-4.089985 -6.330767,-4.980377 -0.934413,-0.407872 -1.458138,-0.436537 -2.186694,-0.654848 1.491579,0.874098 3.064631,1.570151 3.819037,3.524628 0.630449,1.632428 0.08446,2.247522 0.105274,3.668805 0.01024,0.658687 0.877936,0.987988 1.26286,1.404476 0.335529,0.36189 0.308314,0.630449 0.04095,1.129775 -0.02986,-0.450016 -0.22215,-0.786568 -0.568257,-1.031667 -0.571073,-0.40446 -1.186166,-0.317357 -1.490641,-1.147861 -0.46196,-1.261922 0.454282,-2.457216 -0.57585,-3.874148 -0.770274,-1.060332 -1.79469,-2.247009 -3.176644,-2.278148 -0.65391,-0.0145 -1.14607,0.08446 -1.844427,0.29057 l -0.931597,-1.120647 -0.02133,-0.0145 c -1.894759,-1.729512 -3.191062,-3.154634 -5.848759,-4.343274 -2.658294,-1.188127 -3.96799,-1.368134 -7.015388,-1.300141 -3.047398,0.0674 -6.071847,0.32222 -9.601253,3.366206 -3.529491,3.043644 -12.626215,14.699019 -14.832019,16.174304 -2.205889,1.474943 -2.694637,1.974696 -5.450953,1.975634 -2.756402,5.12e-4 -7.058471,-3.898547 -7.22696,-8.77075 -0.16849,-4.873141 -0.236483,-6.605127 3.150795,-12.474872 3.387278,-5.870855 9.524217,-7.673137 14.077101,-8.281576 4.552968,-0.608865 7.289151,0.994727 10.657319,1.002405 3.367656,0.0085 6.696069,-0.573461 7.677403,-3.25223 -0.480131,0.286219 -1.123974,0.608354 -2.933508,0.513573 -1.80996,-0.09478 -4.319301,-2.190021 -7.142161,-3.594071 -2.824394,-1.403965 -5.965123,-1.568189 -9.994793,-1.644799 -4.029244,-0.07678 -9.056969,0.231705 -14.037858,2.920541 -4.980377,2.689859 -8.380621,5.542918 -11.269597,10.805249 -2.888975,5.262842 -3.320735,9.559621 -2.854936,15.932105 0.465799,6.371972 2.431281,11.11109 6.215426,15.775048 3.784145,4.663958 7.565815,6.945945 14.384903,7.794193 l 1.435615,-6.33179 -2.562916,3.677421 0.06398,-4.090497 -2.318329,2.876946 -1.016738,-3.901362 -1.877953,3.127846 -0.932536,-4.355729 -2.721339,2.201027 0.861642,-3.594072 -3.601323,0.398744 1.653927,-2.497824 -3.283369,0.0401 1.910461,-3.335159 -2.912862,-0.462386 2.32268,-3.033493 -3.566346,-1.057004 2.952618,-2.828149 -2.915251,-2.375829 2.280024,-1.774044 -2.132607,-2.837704 2.274736,-2.648142 -0.848675,-3.497414 1.931528,-1.683615 0.574912,-3.997081 2.168011,-1.08857 1.865071,-3.119742 3.447593,-0.366155 1.701274,-2.806138 3.462437,0.176167 3.272363,-1.778395 3.393505,0.78981 3.854527,-1.163644 2.854936,0.668669 3.725707,0.547697 3.597484,2.87652 -5.518008,-1.926325 -2.775511,1.330768 -2.294357,-1.400211 -1.579706,1.073299 -2.794707,0.279565 -2.50644,-0.161836 -1.827193,2.230715 -3.724769,0.03839 -1.328891,3.004828 -3.311606,1.161767 -0.309765,3.454332 -2.375317,1.860209 0.791346,3.250353 -2.050794,3.375846 1.573051,2.952617 -1.54814,2.702741 2.059836,1.344162 -0.467163,4.343701 2.865429,0.721902 0.645293,3.222115 3.122131,-0.324523 1.939633,2.207766 2.397328,-2.340851 c 4.370573,-2.179529 6.170467,-3.398795 9.57694,-7.082358 3.877475,-4.193382 6.099573,-8.070857 11.264222,-10.943112 3.704209,-2.058898 6.725758,-2.800337 10.887148,-2.081335 3.906652,0.674896 5.214897,3.018648 8.092356,5.487296 0.304987,-0.551963 0.366667,-0.698869 0.86932,-1.104864 -0.157911,0.716613 -0.408299,1.460526 -0.471941,2.150352 z"
       id="path237"
       style="stroke-width:0.4787" /></g></svg>
