<?xml version="1.0" encoding="UTF-8" standalone="no"?>
<!-- Created with Inkscape (http://www.inkscape.org/) -->

<svg
   version="1.1"
   id="svg2"
   width="148"
   height="146"
   viewBox="0 0 148 146"
   sodipodi:docname="13.svg"
   xml:space="preserve"
   inkscape:version="1.2.2 (b0a8486541, 2022-12-01)"
   xmlns:inkscape="http://www.inkscape.org/namespaces/inkscape"
   xmlns:sodipodi="http://sodipodi.sourceforge.net/DTD/sodipodi-0.dtd"
   xmlns="http://www.w3.org/2000/svg"
   xmlns:svg="http://www.w3.org/2000/svg"><defs
     id="defs6"><filter
       x="-0.066360106"
       y="-0.2476387"
       width="1.1327202"
       height="1.4952774"
       filterUnits="objectBoundingBox"
       id="a"><feOffset
         in="SourceAlpha"
         result="shadowOffsetOuter1"
         id="feOffset291" /><feGaussianBlur
         stdDeviation="6.5"
         in="shadowOffsetOuter1"
         result="shadowBlurOuter1"
         id="feGaussianBlur293" /></filter><linearGradient
       x1="289.77482"
       y1="138.69308"
       x2="291.19161"
       y2="96.789152"
       id="b"
       gradientTransform="matrix(13.379346,0,0,35.285377,-2431.1636,-3043.0142)"
       gradientUnits="userSpaceOnUse"><stop
         stop-color="#FFEED7"
         offset="0%"
         id="stop296" /><stop
         stop-color="#BDBFC2"
         offset="100%"
         id="stop298" /></linearGradient><linearGradient
       x1="104.50994"
       y1="5.662516"
       x2="100.18964"
       y2="51.918928"
       id="c"
       gradientTransform="matrix(24.911313,0,0,18.951038,-2431.1636,-3043.0142)"
       gradientUnits="userSpaceOnUse"><stop
         stop-color="#FFF"
         stop-opacity=".8"
         offset="0%"
         id="stop301" /><stop
         stop-color="#FFF"
         stop-opacity="0"
         offset="100%"
         id="stop303" /></linearGradient><linearGradient
       x1="121.7453"
       y1="53.925155"
       x2="120.81109"
       y2="35.183548"
       id="d"
       gradientTransform="matrix(17.533756,0,0,26.924935,-2431.1636,-3043.0142)"
       gradientUnits="userSpaceOnUse"><stop
         stop-color="#FFEED7"
         offset="0%"
         id="stop306" /><stop
         stop-color="#BDBFC2"
         offset="100%"
         id="stop308" /></linearGradient><linearGradient
       x1="148.08147"
       y1="59.38152"
       x2="148.08116"
       y2="37.696358"
       id="e"
       gradientTransform="matrix(19.136019,0,0,24.670504,-2431.1636,-3043.0142)"
       gradientUnits="userSpaceOnUse"><stop
         stop-color="#FFEED7"
         offset="0%"
         id="stop311" /><stop
         stop-color="#BDBFC2"
         offset="100%"
         id="stop313" /></linearGradient><linearGradient
       x1="155.5987"
       y1="41.35933"
       x2="154.9111"
       y2="49.216989"
       id="f"
       gradientTransform="matrix(17.9266,0,0,26.3349,-2431.1636,-3043.0142)"
       gradientUnits="userSpaceOnUse"><stop
         stop-color="#FFF"
         stop-opacity=".65"
         offset="0%"
         id="stop316" /><stop
         stop-color="#FFF"
         stop-opacity="0"
         offset="100%"
         id="stop318" /></linearGradient><linearGradient
       x1="123.98147"
       y1="40.585946"
       x2="124.61933"
       y2="46.67872"
       id="g"
       gradientTransform="matrix(17.008264,0,0,27.756815,-2431.1636,-3043.0142)"
       gradientUnits="userSpaceOnUse"><stop
         stop-color="#FFF"
         stop-opacity=".65"
         offset="0%"
         id="stop321" /><stop
         stop-color="#FFF"
         stop-opacity="0"
         offset="100%"
         id="stop323" /></linearGradient><linearGradient
       x1="148.01462"
       y1="182.55439"
       x2="148.01462"
       y2="114.04818"
       id="h"
       gradientTransform="matrix(17.663033,0,0,26.727868,-2431.1636,-3043.0142)"
       gradientUnits="userSpaceOnUse"><stop
         stop-color="#FFEED7"
         offset="0%"
         id="stop326" /><stop
         stop-color="#BDBFC2"
         offset="100%"
         id="stop328" /></linearGradient><linearGradient
       x1="108.99076"
       y1="156.39234"
       x2="101.37568"
       y2="102.29622"
       id="i"
       gradientTransform="matrix(15.051703,0,0,31.364904,-2431.1636,-3043.0142)"
       gradientUnits="userSpaceOnUse"><stop
         stop-color="#FFEED7"
         offset="0%"
         id="stop331" /><stop
         stop-color="#BDBFC2"
         offset="100%"
         id="stop333" /></linearGradient><linearGradient
       x1="104.4008"
       y1="144.85789"
       x2="104.69422"
       y2="204.60011"
       id="j"
       gradientTransform="matrix(24.071998,0,0,19.611801,-2431.1636,-3043.0142)"
       gradientUnits="userSpaceOnUse"><stop
         stop-color="#FFF"
         stop-opacity=".8"
         offset="0%"
         id="stop336" /><stop
         stop-color="#FFF"
         stop-opacity="0"
         offset="100%"
         id="stop338" /></linearGradient><linearGradient
       x1="102.84365"
       y1="110.19015"
       x2="103.19523"
       y2="134.56101"
       id="k"
       gradientTransform="matrix(24.698603,0,0,19.114249,-2431.1636,-3043.0142)"
       gradientUnits="userSpaceOnUse"><stop
         stop-color="#FFF"
         stop-opacity=".65"
         offset="0%"
         id="stop341" /><stop
         stop-color="#FFF"
         stop-opacity="0"
         offset="100%"
         id="stop343" /></linearGradient><linearGradient
       x1="103.16296"
       y1="63.007483"
       x2="103.16296"
       y2="108.00858"
       id="l"
       gradientTransform="matrix(12.426374,0,0,37.991391,-2431.1636,-3043.0142)"
       gradientUnits="userSpaceOnUse"><stop
         stop-color="#FFF"
         stop-opacity=".65"
         offset="0%"
         id="stop346" /><stop
         stop-color="#FFF"
         stop-opacity="0"
         offset="100%"
         id="stop348" /></linearGradient><linearGradient
       x1="330.85984"
       y1="58.718052"
       x2="330.85456"
       y2="99.452096"
       id="m"
       gradientTransform="matrix(12.448823,0,0,37.922879,-2431.1636,-3043.0142)"
       gradientUnits="userSpaceOnUse"><stop
         stop-color="#FFF"
         stop-opacity=".65"
         offset="0%"
         id="stop351" /><stop
         stop-color="#FFF"
         stop-opacity="0"
         offset="100%"
         id="stop353" /></linearGradient><linearGradient
       x1="54.491647"
       y1="225.12467"
       x2="41.523427"
       y2="269.05387"
       id="n"
       gradientTransform="matrix(21.980495,0,0,21.477916,-2431.1636,-3043.0142)"
       gradientUnits="userSpaceOnUse"><stop
         stop-color="#FFA63F"
         offset="0%"
         id="stop356" /><stop
         stop-color="#FF0"
         offset="100%"
         id="stop358" /></linearGradient><linearGradient
       x1="181.20549"
       y1="222.52363"
       x2="179.43188"
       y2="145.70741"
       id="o"
       gradientTransform="matrix(22.182025,0,0,21.282783,-2431.1636,-3043.0142)"
       gradientUnits="userSpaceOnUse"><stop
         stop-color="#FFEED7"
         offset="0%"
         id="stop361" /><stop
         stop-color="#BDBFC2"
         offset="100%"
         id="stop363" /></linearGradient><linearGradient
       x1="180.03928"
       y1="200.21815"
       x2="211.41565"
       y2="249.23073"
       id="p"
       gradientTransform="matrix(20.777549,0,0,22.721413,-2431.1636,-3043.0142)"
       gradientUnits="userSpaceOnUse"><stop
         stop-color="#FFA63F"
         offset="0%"
         id="stop366" /><stop
         stop-color="#FF0"
         offset="100%"
         id="stop368" /></linearGradient><linearGradient
       x1="224.7369"
       y1="142.26587"
       x2="218.79886"
       y2="186.40474"
       id="q"
       gradientTransform="matrix(17.632444,0,0,26.774237,-2431.1636,-3043.0142)"
       gradientUnits="userSpaceOnUse"><stop
         stop-color="#FFF"
         stop-opacity=".65"
         offset="0%"
         id="stop371" /><stop
         stop-color="#FFF"
         stop-opacity="0"
         offset="100%"
         id="stop373" /></linearGradient><linearGradient
       x1="53.035519"
       y1="186.02127"
       x2="55.101031"
       y2="244.90789"
       id="r"
       gradientTransform="matrix(21.452038,0,0,22.007011,-2431.1636,-3043.0142)"
       gradientUnits="userSpaceOnUse"><stop
         stop-color="#FFF"
         stop-opacity=".65"
         offset="0%"
         id="stop376" /><stop
         stop-color="#FFF"
         stop-opacity="0"
         offset="100%"
         id="stop378" /></linearGradient><linearGradient
       x1="172.70894"
       y1="182.05501"
       x2="175.56128"
       y2="200.62211"
       id="s"
       gradientTransform="matrix(22.688778,0,0,20.807433,-2431.1636,-3043.0142)"
       gradientUnits="userSpaceOnUse"><stop
         stop-color="#FFF"
         stop-opacity=".65"
         offset="0%"
         id="stop381" /><stop
         stop-color="#FFF"
         stop-opacity="0"
         offset="100%"
         id="stop383" /></linearGradient><linearGradient
       x1="95.57089"
       y1="77.674402"
       x2="95.991369"
       y2="119.35328"
       id="t"
       gradientTransform="matrix(26.305995,0,0,17.946299,-2431.1636,-3043.0142)"
       gradientUnits="userSpaceOnUse"><stop
         stop-color="#FFA63F"
         offset="0%"
         id="stop386" /><stop
         stop-color="#FF0"
         offset="100%"
         id="stop388" /></linearGradient><linearGradient
       x1="89.542556"
       y1="78.129225"
       x2="89.431004"
       y2="98.909992"
       id="u"
       gradientTransform="matrix(27.211861,0,0,17.348876,-2431.1636,-3043.0142)"
       gradientUnits="userSpaceOnUse"><stop
         stop-color="#FFF"
         stop-opacity=".65"
         offset="0%"
         id="stop391" /><stop
         stop-color="#FFF"
         stop-opacity="0"
         offset="100%"
         id="stop393" /></linearGradient></defs><sodipodi:namedview
     id="namedview4"
     pagecolor="#ffffff"
     bordercolor="#111111"
     borderopacity="1"
     inkscape:showpageshadow="0"
     inkscape:pageopacity="0"
     inkscape:pagecheckerboard="1"
     inkscape:deskcolor="#d1d1d1"
     showgrid="false"
     inkscape:zoom="2.407069"
     inkscape:cx="104.48392"
     inkscape:cy="152.46759"
     inkscape:window-width="1920"
     inkscape:window-height="2123"
     inkscape:window-x="26"
     inkscape:window-y="23"
     inkscape:window-maximized="0"
     inkscape:current-layer="g8" /><g
     inkscape:groupmode="layer"
     inkscape:label="Image"
     id="g8"><rect
       style="fill:#e6e6e6;fill-rule:evenodd"
       id="rect359"
       width="148"
       height="146"
       x="0"
       y="0"
       ry="10.848359" /><g
       fill="none"
       id="g452"
       transform="matrix(0.38994627,0,0,0.38994627,24.248899,15.036795)"><path
         d="m 235.125,249.359 c 0,17.355 -52.617,31.497 -117.54,31.497 -64.923,0 -117.541,-14.05 -117.541,-31.497 0,-17.356 52.618,-31.498 117.54,-31.498 64.924,0 117.45,14.142 117.541,31.498 z"
         fill="#000000"
         fill-opacity="0.2"
         filter="url(#a)"
         transform="translate(10)"
         id="path398" /><path
         d="M 63.213,215.474 C 51.826,199.128 49.622,145.868 76.16,113.084 89.292,97.383 92.69,86.455 93.7,71.67 94.434,54.865 81.854,4.819 129.237,1.054 c 48.027,-3.857 45.364,43.526 45.088,68.596 -0.183,21.12 15.52,33.15 26.355,49.68 19.927,30.303 18.274,82.461 -3.765,110.745 -27.916,35.354 -51.791,20.018 -67.678,21.304 -29.752,1.745 -30.762,17.54 -66.024,-35.905 z"
         fill="#000000"
         id="path400" /><path
         d="m 169.1,122.451 c 8.265,7.622 29.661,41.69 -4.224,62.995 -11.937,7.438 10.653,35.721 21.488,22.039 19.193,-24.61 6.98,-63.913 -4.591,-77.963 -7.714,-9.917 -19.651,-13.774 -12.672,-7.07 z"
         fill="url(#b)"
         transform="translate(10)"
         id="path402"
         style="fill:url(#b)" /><path
         d="m 176.805,117.86 c 13.59,11.02 38.292,49.587 2.204,74.748 -11.846,7.806 10.468,32.508 23.049,19.927 43.618,-43.894 -1.102,-94.308 -16.53,-111.664 -13.774,-15.151 -25.987,3.49 -8.723,16.989 z"
         stroke="#000000"
         stroke-width="0.977"
         fill="#000000"
         id="path404" /><path
         d="M 147.245,25.02 C 146.786,37.601 132.92,48.53 116.299,49.54 99.678,50.55 86.639,41 87.097,28.419 87.557,15.838 101.423,4.91 118.044,3.9 c 16.62,-0.918 29.66,8.54 29.201,21.12 z"
         fill="url(#c)"
         transform="translate(10)"
         id="path406"
         style="fill:url(#c)" /><path
         d="m 107.483,54.957 c 0.46,8.173 -3.397,15.06 -8.723,15.335 -5.326,0.276 -10.01,-6.06 -10.469,-14.233 -0.459,-8.173 3.398,-15.06 8.724,-15.335 5.326,-0.276 10.01,6.06 10.468,14.233 z"
         fill="url(#d)"
         transform="translate(10)"
         id="path408"
         style="fill:url(#d)" /><path
         d="m 117.125,55.6 c 0.184,9.458 6.337,16.988 13.683,16.805 7.346,-0.184 13.131,-7.99 12.948,-17.54 -0.184,-9.458 -6.336,-16.988 -13.683,-16.804 -7.346,0.183 -13.223,8.08 -12.948,17.539 z"
         fill="url(#e)"
         transform="translate(10)"
         id="path410"
         style="fill:url(#e)" /><path
         d="m 133.186,57.712 c -0.092,5.234 2.48,9.458 5.877,9.458 3.306,0 6.153,-4.224 6.245,-9.366 0.091,-5.234 -2.48,-9.459 -5.878,-9.459 -3.397,0 -6.152,4.225 -6.244,9.367 z m -21.212,0.092 c 0.459,4.316 -1.194,7.989 -3.582,8.356 -2.387,0.276 -4.683,-2.938 -5.142,-7.254 -0.46,-4.316 1.194,-7.99 3.581,-8.357 2.388,-0.275 4.684,2.939 5.143,7.255 z"
         fill="#000000"
         id="path412" /><path
         d="m 124.564,54.773 c -0.276,2.939 1.102,5.326 3.03,5.51 1.928,0.184 3.765,-2.112 4.04,-4.959 0.276,-2.938 -1.102,-5.326 -3.03,-5.51 -1.928,-0.183 -3.765,2.113 -4.04,4.96 z"
         fill="url(#f)"
         transform="translate(10)"
         id="path414"
         style="fill:url(#f)" /><path
         d="m 99.953,55.508 c 0.276,2.388 -0.734,4.5 -2.203,4.683 -1.47,0.184 -2.847,-1.653 -3.123,-4.132 -0.275,-2.388 0.735,-4.5 2.204,-4.683 1.47,-0.184 2.847,1.744 3.122,4.132 z"
         fill="url(#g)"
         transform="translate(10)"
         id="path416"
         style="fill:url(#g)" /><path
         d="m 71.027,145.684 c 6.52,-14.785 20.386,-40.772 20.662,-60.883 0,-15.978 47.843,-19.835 51.7,-3.856 3.856,15.978 13.59,39.853 19.834,51.424 6.245,11.478 24.335,48.118 5.051,80.074 -17.356,28.284 -69.973,50.69 -98.073,-3.856 -9.55,-18.917 -7.806,-42.333 0.826,-62.903 z"
         fill="url(#h)"
         transform="translate(10)"
         id="path418"
         style="fill:url(#h)" /><path
         d="m 65.15,134.664 c -5.601,10.56 -17.172,38.293 11.112,53.445 30.395,16.162 30.303,49.312 -6.245,33.517 -33.425,-14.233 -18.641,-71.902 -9.274,-85.676 6.06,-9.642 15.243,-21.488 4.407,-1.286 z"
         fill="url(#i)"
         transform="translate(10)"
         id="path420"
         style="fill:url(#i)" /><path
         d="m 79.925,122.727 c -8.907,14.509 -30.211,48.669 -1.652,66.484 38.384,23.6 27.548,47.108 -7.53,25.895 -49.404,-29.568 -5.97,-89.257 13.774,-112.03 22.59,-25.529 4.316,4.683 -4.592,19.65 z"
         stroke="#000000"
         stroke-width="1.25"
         fill="#000000"
         id="path422" /><path
         d="m 156.428,151.285 c 0,16.162 -15.519,37.1 -42.15,36.916 -27.456,0.183 -39.118,-20.754 -39.118,-36.916 0,-16.161 18.182,-29.293 40.588,-29.293 22.498,0.092 40.68,13.132 40.68,29.293 z"
         fill="url(#j)"
         transform="translate(10)"
         id="path424"
         style="fill:url(#j)" /><path
         d="m 141.92,100.504 c -0.276,16.713 -11.204,20.662 -24.978,20.662 -13.775,0 -23.784,-2.48 -24.978,-20.662 0,-11.387 11.203,-17.998 24.978,-17.998 13.774,-0.092 24.977,6.52 24.977,17.998 z"
         fill="url(#k)"
         transform="translate(10)"
         id="path426"
         style="fill:url(#k)" /><path
         d="m 58.63,126.216 c 9,-13.682 28.008,-34.711 3.582,2.939 -19.835,31.038 -7.346,50.965 -0.918,56.474 18.549,16.53 17.814,27.64 3.214,18.917 -31.314,-18.641 -24.794,-50.047 -5.878,-78.33 z"
         fill="url(#l)"
         transform="translate(10)"
         id="path428"
         style="fill:url(#l)" /><path
         d="m 188.936,131.818 c -7.806,-16.07 -32.6,-56.842 1.193,-9.459 30.763,42.884 9.183,72.729 5.326,75.667 -3.856,2.939 -16.804,8.908 -13.04,-1.469 3.858,-10.377 22.958,-30.028 6.52,-64.74 z"
         fill="url(#m)"
         transform="translate(10)"
         id="path430"
         style="fill:url(#m)" /><path
         d="m 51.835,258.542 c -20.57,-10.928 -50.414,2.112 -39.578,-27.457 2.204,-6.704 -3.214,-16.805 0.275,-23.325 4.133,-7.989 13.04,-6.244 18.366,-11.57 5.234,-5.51 8.54,-15.06 18.366,-13.59 9.734,1.468 16.254,13.406 23.049,28.099 5.05,10.468 22.865,25.253 21.672,37.007 -1.47,17.998 -21.948,21.396 -42.15,10.836 z"
         stroke="#e68c3f"
         stroke-width="6.25"
         fill="url(#n)"
         transform="translate(10)"
         id="path432"
         style="fill:url(#n)" /><path
         d="m 201.608,189.119 c -3.122,5.877 -16.162,15.335 -24.886,12.856 -8.815,-2.388 -12.856,-15.795 -11.111,-25.988 1.653,-11.386 11.111,-12.03 23.05,-6.336 12.855,6.336 16.712,11.662 12.947,19.468 z"
         fill="url(#o)"
         transform="translate(10)"
         id="path434"
         style="fill:url(#o)" /><path
         d="m 194.445,253.49 c 15.06,-18.273 48.578,-14.508 25.988,-39.577 -4.775,-5.418 -3.306,-16.989 -9.183,-21.947 -6.887,-6.061 -14.509,-1.102 -21.488,-4.224 -6.979,-3.398 -14.325,-9.918 -22.865,-5.327 -8.54,4.684 -9.459,16.805 -10.285,32.783 -0.735,11.479 -11.203,30.671 -5.602,41.231 8.081,16.346 29.11,14.142 43.435,-2.938 z"
         stroke="#e68c3f"
         stroke-width="6.251"
         fill="url(#p)"
         transform="translate(10)"
         id="path436"
         style="fill:url(#p)" /><path
         d="m 187.925,229.064 c 23.325,-34.435 5.97,-34.16 0.092,-36.823 -5.877,-2.755 -12.03,-8.173 -18.916,-4.408 -6.888,3.857 -7.255,13.775 -7.439,26.814 -0.275,9.367 -8.08,25.07 -3.397,33.793 5.693,10.193 19.467,-4.591 29.66,-19.376 z"
         fill="url(#q)"
         transform="translate(10)"
         id="path438"
         style="fill:url(#q)" /><path
         d="M 47.06,234.023 C 12.165,211.433 28.51,203.72 33.745,200.138 c 6.336,-4.591 6.428,-13.407 14.233,-12.58 7.806,0.826 12.397,10.468 17.631,22.406 3.857,8.54 17.264,19.927 16.254,29.753 -1.285,11.57 -19.743,3.948 -34.803,-5.694 z"
         fill="url(#r)"
         transform="translate(10)"
         id="path440"
         style="fill:url(#r)" /><path
         d="m 209.588,188.843 c -2.755,4.776 -13.958,12.306 -21.396,10.285 -7.622,-1.928 -11.112,-12.672 -9.55,-20.753 1.377,-9.183 9.55,-9.642 19.834,-5.05 10.928,4.958 14.326,9.182 11.112,15.518 z"
         fill="#000000"
         id="path442" /><path
         d="m 192.058,186.18 c -1.745,3.306 -9.091,8.54 -14.234,7.163 -5.142,-1.377 -7.713,-8.815 -6.887,-14.417 0.735,-6.336 6.244,-6.704 13.223,-3.581 7.53,3.49 9.918,6.428 7.898,10.835 z"
         fill="url(#s)"
         transform="translate(10)"
         id="path444"
         style="fill:url(#s)" /><path
         d="m 97.107,66.344 c 3.673,-3.398 12.58,-13.774 29.477,-2.939 3.122,2.02 5.693,2.204 11.662,4.775 12.03,4.96 6.336,16.897 -6.52,20.937 -5.51,1.745 -10.468,8.449 -20.386,7.806 -8.54,-0.46 -10.744,-6.06 -15.978,-9.091 -9.275,-5.234 -10.652,-12.305 -5.602,-16.07 5.051,-3.765 6.98,-5.143 7.347,-5.418 z"
         stroke="#e68c3f"
         stroke-width="3.75"
         fill="url(#t)"
         transform="translate(10)"
         id="path446"
         style="fill:url(#t)" /><path
         d="m 148.43,75.986 c -5.05,0.275 -15.979,11.203 -27.457,11.203 -11.479,0 -18.366,-10.652 -20.11,-10.652"
         stroke="#e68c3f"
         stroke-width="2.5"
         id="path448" /><path
         d="m 102.8,65.426 c 1.837,-1.653 7.622,-6.153 15.244,-1.562 1.653,0.919 3.306,1.929 5.693,3.306 4.867,2.847 2.48,6.98 -3.398,9.55 -2.663,1.102 -7.07,3.49 -10.376,3.306 -3.673,-0.367 -6.153,-2.755 -8.54,-4.316 -4.5,-2.938 -4.224,-5.418 -2.112,-7.346 1.56,-1.47 3.305,-2.847 3.49,-2.938 z"
         fill="url(#u)"
         transform="translate(10)"
         id="path450"
         style="fill:url(#u)" /></g></g></svg>
