<?xml version="1.0" encoding="UTF-8" standalone="no"?>
<!-- Created with Inkscape (http://www.inkscape.org/) -->

<svg
   version="1.1"
   id="svg2"
   width="148"
   height="146"
   viewBox="0 0 148 146"
   sodipodi:docname="16.svg"
   xml:space="preserve"
   inkscape:version="1.2.2 (b0a8486541, 2022-12-01)"
   xmlns:inkscape="http://www.inkscape.org/namespaces/inkscape"
   xmlns:sodipodi="http://sodipodi.sourceforge.net/DTD/sodipodi-0.dtd"
   xmlns="http://www.w3.org/2000/svg"
   xmlns:svg="http://www.w3.org/2000/svg"><defs
     id="defs6"><clipPath
       clipPathUnits="userSpaceOnUse"
       id="clipPath343"><rect
         style="fill:#0000ff;fill-rule:evenodd"
         id="rect345"
         width="112.83966"
         height="108.05579"
         x="35.160339"
         y="200.88614"
         ry="8.8519402" /></clipPath></defs><sodipodi:namedview
     id="namedview4"
     pagecolor="#ffffff"
     bordercolor="#111111"
     borderopacity="1"
     inkscape:showpageshadow="0"
     inkscape:pageopacity="0"
     inkscape:pagecheckerboard="1"
     inkscape:deskcolor="#d1d1d1"
     showgrid="false"
     inkscape:zoom="2.407069"
     inkscape:cx="64.601389"
     inkscape:cy="152.05214"
     inkscape:window-width="1920"
     inkscape:window-height="2123"
     inkscape:window-x="20"
     inkscape:window-y="20"
     inkscape:window-maximized="0"
     inkscape:current-layer="g8" /><g
     inkscape:groupmode="layer"
     inkscape:label="Image"
     id="g8"><rect
       style="fill:#e6e6e6;fill-rule:evenodd"
       id="rect359"
       width="148"
       height="146"
       x="0"
       y="0"
       ry="10.848359" /><path
       d="m 40.936353,327.52479 c -2.293813,0 -2.960712,-1.33554 -2.960712,-3.33668 0,-0.6669 0.08377,-1.41931 0.186906,-2.21183 0.502488,-3.46055 1.729184,-5.44054 4.689896,-5.44054 2.002461,0 2.978788,0.89568 2.978788,2.52212 v 0.79297 h 1.986591 c 0.02199,0 0.02199,-0.72994 0.02199,-0.89609 0,-2.37669 -1.439144,-4.63083 -4.984333,-4.63083 -4.817277,0 -6.798144,2.61689 -7.528062,7.74711 -0.104481,0.68855 -0.167078,1.33119 -0.167078,2.017 0,3.02376 1.189666,5.77423 5.443184,5.77423 3.231798,0 5.151391,-1.5758 6.276701,-3.5152 l -1.897999,-1.27828 c -1.229772,1.93989 -2.565332,2.45602 -4.04591,2.45602 z m 13.033851,-9.55078 c -3.858583,0 -5.52561,1.97999 -6.088487,5.92051 a 10.281182,10.281182 0 0 0 -0.105814,1.37704 c 0,2.54329 1.188781,4.56735 4.482724,4.56735 3.858588,0 5.54809,-2.06505 6.110968,-5.94439 0.06257,-0.49982 0.10448,-0.95868 0.10448,-1.41711 7.84e-4,-2.58514 -1.228895,-4.5034 -4.503883,-4.5034 z m 1.605761,5.92183 c -0.417424,2.85758 -1.313086,3.73342 -3.003472,3.73342 -1.354519,0 -2.021413,-0.56329 -2.021413,-2.25236 0,-0.41724 0.04213,-0.91729 0.125169,-1.48106 0.417424,-2.83548 1.251374,-3.71131 2.961157,-3.71131 1.376552,0 2.063729,0.56288 2.063729,2.27266 0,0.41678 -0.04213,0.89698 -0.12517,1.43865 z m 12.597475,-9.36478 -0.645743,3.82818 c -0.04124,0.33297 -0.02015,0.22213 0.105814,0.53512 -0.604755,-0.45845 -1.689951,-0.76169 -2.419881,-0.76169 -3.46188,0 -5.40043,1.567 -6.025459,5.94611 a 8.5572927,8.5572927 0 0 0 -0.10448,1.39773 c 0,3.19171 1.876404,4.38136 4.398982,4.38136 1.064924,0 2.106926,0.0228 2.919284,-0.66516 l 0.207614,1.29719 h 2.002465 l 2.335245,-15.95884 z m -1.980859,12.49262 c -0.937543,0.56152 -1.85436,0.68845 -2.417239,0.68845 -1.522454,0 -1.939429,-0.79295 -1.939429,-2.0642 0,-0.47997 0.06257,-1.04152 0.146799,-1.64803 0.478688,-3.3151 1.542735,-3.90002 2.919288,-3.90002 0.895661,0 1.583276,0.14662 2.231229,0.50205 z m 10.844492,-9.04967 c -3.817149,0 -5.608917,1.81292 -6.21455,5.92051 -0.06348,0.50121 -0.10534,0.98119 -0.10534,1.43961 0,2.81527 1.439581,4.50478 4.607911,4.50478 2.46087,0 4.297602,-1.02264 5.27701,-2.89944 l -2.106486,-0.85512 c -0.603871,0.91682 -1.417105,1.54272 -2.856246,1.54272 -1.542731,0 -2.16864,-0.41541 -2.16864,-1.79176 0,-0.27159 0.02106,-0.66602 0.06302,-0.66602 h 7.526752 c 0.105814,-1.06403 0.229187,-1.81601 0.229187,-2.43974 0,-2.08401 -0.791635,-4.756 -4.252641,-4.756 z m 1.438269,5.06849 h -4.587634 c 0.459726,-1.06402 1.229772,-2.7108 2.815257,-2.7108 1.229776,0 1.835407,0.71896 1.835407,1.94914 -0.0012,0.20833 -0.02016,0.76166 -0.06302,0.76166 z m 10.839194,-5.31977 0.249933,-2.12765 h -5.881316 l -0.24906,2.12765 h 1.542725 l -1.667037,10.63912 h -1.544928 l -0.248606,2.12805 h 5.879996 l 0.251262,-2.12805 h -1.544054 l 1.667468,-10.63912 z m 11.949544,3.19172 0.75153,-2.12766 h -2.02274 l -1.45854,0.30091 c -0.81368,-0.52011 -1.919153,-0.91059 -2.960711,-0.91059 -2.983198,0 -5.526056,1.44039 -5.526056,4.71499 0,0.91855 0.333244,1.65994 0.72861,2.16112 -0.624149,0.33299 -1.166745,0.89037 -1.166745,1.64232 0,0.33343 0.124307,0.6744 0.375562,0.98649 -1.252245,0.75197 -2.021412,1.99805 -2.021412,3.4566 0,2.81652 2.939564,3.41735 5.191502,3.41735 2.835534,0 6.21455,-0.64794 6.21455,-4.25572 0,-1.22979 -0.77136,-2.19069 -3.002595,-2.60764 l -4.024313,-0.75195 c -0.458406,-0.0842 -0.562866,-0.22992 -0.562866,-0.43877 0,-0.31283 0.18951,-0.47871 0.500712,-0.47871 l 0.27155,0.0411 c 0.542152,0.12462 1.16806,0.18818 1.813804,0.18818 2.899446,0 5.484618,-1.25179 5.484618,-4.50477 0,-0.45929 -0.0829,-0.77003 -0.29134,-1.27117 0.35395,0.16759 0.81368,0.4383 0.99969,0.4383 h 0.70525 z m -5.733213,8.63174 c 0.791635,0.14662 1.062271,0.43832 1.062271,0.95963 0,1.68948 -1.814249,1.89795 -3.127331,1.89795 -2.002025,0 -2.752221,-0.47864 -2.752221,-1.5436 0,-0.93882 0.270177,-1.37566 0.896982,-2.0439 z m -0.856448,-5.46209 c -1.209497,0 -1.876834,-0.4374 -1.876834,-1.48104 0,-1.5427 0.896986,-2.43972 2.460876,-2.43972 1.251371,0 1.856553,0.52146 1.856553,1.54185 0,1.54359 -0.876702,2.37891 -2.440595,2.37891 z m 13.997831,-6.11009 c -1.16806,0 -2.20962,0.57301 -3.5033,1.59384 l -0.18733,-0.78106 h -2.29471 l -1.60532,11.70271 h 2.77338 l 1.20995,-8.87468 c 0.81367,-0.50027 1.8138,-1.22668 2.66891,-1.22668 1.04201,0 1.41843,0.50293 1.41843,1.46165 0,0.22945 -0.022,0.90978 -0.064,1.15969 l -1.0204,7.48002 h 2.77382 l 1.02041,-7.54084 c 0.0421,-0.35265 0.0837,-0.934 0.0837,-1.26685 9e-4,-1.98346 -0.93841,-3.7078 -3.27367,-3.7078 z m 8.54231,9.58386 0.0211,-0.28672 1.20862,-8.48455 h -4.60879 l -0.29047,2.12766 h 2.02141 c -0.16705,0 -0.27105,0.18649 -0.29138,0.35448 l -0.83438,5.65076 c -0.0412,0.27206 -0.0617,0.83798 -0.0617,1.06584 0,1.45943 0.79164,2.50449 2.41723,2.50449 h 1.41842 l 0.31296,-2.12808 h -0.89611 c -0.31382,0 -0.41696,-0.55405 -0.41696,-0.80397 z m 1.79265,-13.02681 h -2.71079 c -0.16707,0 -0.16707,-0.61399 -0.18733,-0.40534 l -0.37643,2.99819 c -0.0215,0.18859 -0.0215,0.59948 0.14545,0.59948 h 2.71212 c 0.16705,0 0.16705,-0.72905 0.18733,-0.91857 l 0.37644,-2.31413 c 0.0211,-0.20832 0.0211,0.0411 -0.1468,0.0411 z m 5.65564,13.09777 c -0.68717,0 -1.02129,-0.29222 -1.02129,-0.91684 l 0.0211,-0.0413 0.87583,-5.7548 h 3.16921 l 0.95869,-2.12769 h -3.83655 l 0.64574,-4.68237 -2.91796,0.93311 -0.52232,3.74926 h -1.68863 l -0.29133,2.12769 h 1.9597 c -0.18733,1.06402 -0.37557,0.37372 -0.39581,0.58312 l -0.7511,5.04606 c -0.0412,0.22992 -0.0412,0.39662 -0.0412,0.60431 0,1.98129 1.45942,2.72272 3.21285,2.72272 1.62559,0 2.93955,-0.47473 3.96216,-1.3312 l -1.29368,-1.59125 c -0.64794,0.39524 -1.08521,0.68055 -2.04523,0.68055 z m 10.17628,-9.65482 c -3.81583,0 -5.60892,1.81292 -6.21412,5.92051 -0.0626,0.50121 -0.10448,0.98119 -0.10448,1.43961 0,2.81527 1.4387,4.50478 4.60791,4.50478 2.46087,0 4.29759,-1.02264 5.27612,-2.89944 l -2.10559,-0.85512 c -0.60387,0.91682 -1.41799,1.54272 -2.85758,1.54272 -1.54185,0 -2.16864,-0.41541 -2.16864,-1.79176 0,-0.27159 0.0224,-0.66602 0.0644,-0.66602 h 7.5272 c 0.10399,-1.06403 0.22917,-1.81601 0.22917,-2.43974 0,-2.08401 -0.79207,-4.756 -4.25439,-4.756 z m 1.43958,5.06849 h -4.58763 c 0.45842,-1.06402 1.22889,-2.7108 2.81526,-2.7108 1.22977,0 1.83541,0.71896 1.83541,1.94914 -9e-4,0.20833 -0.0215,0.76166 -0.063,0.76166 z m 10.48923,-5.06895 c -1.00102,0 -1.93942,0.57387 -2.87828,1.46867 l -0.16656,-0.65543 h -2.29294 l -1.60619,11.70271 h 2.79455 l 1.22976,-9.06243 c 0.73038,-0.43692 1.56433,-0.81014 2.35684,-0.81014 0.50117,0 0.97987,-0.0795 1.43828,-0.0189 L 148,318.18034 c -0.41917,-0.0834 -0.83614,-0.20748 -1.23197,-0.20748 z m -70.817823,-11.8248 c -6.311968,-2.72839 -12.218413,-9.66277 -12.23252,-16.75797 -0.01743,-7.7357 4.885162,-14.30332 10.982462,-18.61941 -0.733012,2.7694 -1.132801,5.30254 0.683209,7.77973 1.688188,2.30308 4.644934,3.4222 7.436831,2.8148 6.523539,-1.4281 6.822827,-8.59962 2.955426,-12.77775 -3.823763,-4.1376 -7.522782,-8.81116 -6.067324,-14.81151 0.728611,-3.00784 2.575469,-5.82535 4.915133,-7.83924 -1.798383,4.726 3.312016,9.38683 6.67913,11.70841 5.840759,4.02787 12.249256,7.07185 17.619716,11.7935 5.64903,4.96228 9.82057,11.67186 8.97824,19.45379 -0.91285,8.43478 -7.61535,14.30114 -15.13329,17.26272 15.88658,-3.50638 32.30165,-15.83635 32.63796,-33.45521 0.27856,-14.49503 -9.66498,-25.65025 -21.98256,-32.03671 l -0.64353,-0.35128 c 0.33806,0.82028 0.44871,1.51801 0.43593,2.14263 0.1102,-0.46061 0.18512,-0.93405 0.20629,-1.42242 a 6.9325797,6.9325797 0 0 1 -0.22566,1.71902 l 0.0193,-0.29679 a 7.2212903,7.2212903 0 0 1 -0.91197,2.17346 l 0.18073,-0.19426 c -2.45734,4.07592 -9.11003,4.96096 -12.39648,0.74051 -5.283178,-6.78891 0.11065,-14.10848 0.86525,-21.29758 0.94459,-9.00998 -4.705758,-17.7568 -11.7115,-22.99105 3.858575,6.24186 -1.22494,14.49989 -5.292003,19.11661 -3.943657,4.47525 -8.739779,8.21173 -13.09336,12.27789 -4.676661,4.36724 -9.172611,8.96765 -13.01665,14.09351 -7.68807,10.25959 -12.394714,23.16296 -8.935919,35.96228 3.456596,12.79055 14.536026,20.93268 27.047548,23.81182 z"
       fill="#ee4323"
       id="path237"
       style="stroke-width:0.440777"
       clip-path="url(#clipPath343)"
       transform="matrix(1.1755769,0,0,1.1755769,-33.659532,-226.67105)" /></g></svg>
