<?xml version="1.0" encoding="UTF-8" standalone="no"?>
<!-- Created with Inkscape (http://www.inkscape.org/) -->

<svg
   version="1.1"
   id="svg2"
   width="148"
   height="146"
   viewBox="0 0 148 146"
   sodipodi:docname="17.svg"
   xml:space="preserve"
   inkscape:version="1.2.2 (b0a8486541, 2022-12-01)"
   xmlns:inkscape="http://www.inkscape.org/namespaces/inkscape"
   xmlns:sodipodi="http://sodipodi.sourceforge.net/DTD/sodipodi-0.dtd"
   xmlns="http://www.w3.org/2000/svg"
   xmlns:svg="http://www.w3.org/2000/svg"><defs
     id="defs6" /><sodipodi:namedview
     id="namedview4"
     pagecolor="#ffffff"
     bordercolor="#111111"
     borderopacity="1"
     inkscape:showpageshadow="0"
     inkscape:pageopacity="0"
     inkscape:pagecheckerboard="1"
     inkscape:deskcolor="#d1d1d1"
     showgrid="false"
     inkscape:zoom="3.4041096"
     inkscape:cx="75.643862"
     inkscape:cy="254.69215"
     inkscape:window-width="1920"
     inkscape:window-height="2123"
     inkscape:window-x="26"
     inkscape:window-y="23"
     inkscape:window-maximized="0"
     inkscape:current-layer="g8" /><g
     inkscape:groupmode="layer"
     inkscape:label="Image"
     id="g8"><rect
       style="fill:#e6e6e6;fill-rule:evenodd"
       id="rect359"
       width="148"
       height="146"
       x="-0.047126994"
       y="0"
       ry="10.848359" /><g
       id="g841"
       transform="matrix(1.0831718,0,0,1.0831718,5.6082228,-168.93675)"><path
         d="m 73.785503,209.07256 h 12.245522 v 12.51811 h 6.191309 c 2.859752,0 5.800369,-0.50929 8.508026,-1.42666 1.33081,-0.45146 2.82387,-1.0791 4.13647,-1.86901 -1.72871,-2.25674 -2.61127,-5.10632 -2.87046,-7.9152 -0.35346,-3.82103 0.41771,-8.794 3.00327,-11.78442 l 1.28742,-1.48879 1.53377,1.23334 c 3.86174,3.10234 7.10975,7.43803 7.68224,12.38047 4.65004,-1.36775 10.10981,-1.04429 14.20825,1.32116 l 1.68158,0.97039 -0.8847,1.72764 c -3.46651,6.76486 -10.7139,8.86094 -17.79901,8.48982 -10.60197,26.40665 -33.684022,38.90815 -61.670496,38.90815 -14.45942,0 -27.724599,-5.40514 -35.278842,-18.23333 l -0.123709,-0.20885 -1.100522,-2.23961 c -2.553426,-5.64667 -3.401712,-11.83262 -2.826549,-18.01376 l 0.172978,-1.85134 h 10.471833 v -12.51811 h 12.244986 v -12.24552 h 24.491579 v -12.24552 h 14.695055 v 24.49104"
         fill="#364548"
         id="path291"
         style="fill-rule:evenodd;stroke-width:0.535534"
         sodipodi:nodetypes="cccscccccccccccsccccccccccccc" /><path
         d="m 113.45894,213.70386 c 0.82097,-6.38142 -3.95439,-11.39348 -6.91589,-13.7734 -3.41296,3.94582 -3.94314,14.28698 1.41113,18.64087 -2.98828,2.65411 -9.284552,5.05973 -15.731846,5.05973 H 13.742495 c -0.626575,6.73005 0.554813,12.92779 3.253369,18.23225 l 0.892736,1.63338 a 30.276954,30.276954 0 0 0 1.85027,2.77621 c 3.226593,0.20725 6.201484,0.27848 8.923068,0.2185 h 0.0011 c 5.348379,-0.11782 9.712446,-0.74975 13.019905,-1.89579 a 0.94307548,0.94307548 0 0 1 0.61747,1.78119 c -0.440209,0.15316 -0.898626,0.29561 -1.372038,0.4311 h -0.0016 c -2.604302,0.74386 -5.397112,1.24405 -9.000185,1.46629 0.214214,0.004 -0.222782,0.0321 -0.223853,0.0321 -0.122638,0.008 -0.276871,0.0257 -0.400044,0.0321 -1.418094,0.0798 -2.948651,0.0964 -4.513481,0.0964 -1.711567,0 -3.396893,-0.0321 -5.281437,-0.12853 l -0.0482,0.0321 c 6.538871,7.34967 16.763287,11.75765 29.579688,11.75765 27.123729,0 50.130267,-12.02381 60.318267,-39.01741 7.22757,0.74172 14.17398,-1.10159 17.33363,-7.26987 -5.03295,-2.9042 -11.50541,-1.97827 -15.23219,-0.10497"
         fill="#22a0c8"
         id="path293"
         style="fill-rule:evenodd;stroke-width:0.535534" /><path
         d="m 113.45894,213.70386 c 0.82097,-6.38142 -3.95439,-11.39348 -6.91589,-13.7734 -3.41296,3.94582 -3.94314,14.28698 1.41113,18.64087 -2.98828,2.65411 -9.284552,5.05973 -15.731846,5.05973 H 18.38986 c -0.32025,10.30689 3.504534,18.1305 10.271543,22.86034 h 0.0016 c 5.348379,-0.11782 9.712446,-0.74975 13.019905,-1.89579 a 0.94307548,0.94307548 0 0 1 0.61747,1.78119 c -0.440209,0.15316 -0.898626,0.29561 -1.372038,0.4311 h -0.0016 c -2.604302,0.74386 -5.637031,1.30831 -9.240104,1.53056 -0.0011,0 -0.08729,-0.083 -0.08836,-0.083 9.231,4.73519 22.615603,4.71805 37.961331,-1.17657 17.20671,-6.61063 33.218643,-19.20425 44.390413,-33.60851 -0.16816,0.0761 -0.33203,0.1537 -0.49108,0.23349"
         fill="#37b1d9"
         id="path295"
         style="fill-rule:evenodd;stroke-width:0.535534" /><path
         d="m 13.889767,231.80813 c 0.487336,3.60521 1.542338,6.98068 3.106097,10.05518 l 0.892736,1.63338 a 30.221258,30.221258 0 0 0 1.85027,2.77621 c 3.227128,0.20725 6.20202,0.27848 8.924139,0.2185 5.348379,-0.11782 9.712446,-0.74975 13.019905,-1.89579 a 0.94307548,0.94307548 0 0 1 0.61747,1.78119 c -0.440209,0.15316 -0.898626,0.29561 -1.372038,0.4311 h -0.0016 c -2.604302,0.74386 -5.620965,1.27618 -9.224038,1.49896 -0.123709,0.007 -0.339529,0.009 -0.464308,0.0161 -1.417023,0.0792 -2.932049,0.12799 -4.497415,0.12799 -1.711032,0 -3.461157,-0.0327 -5.34463,-0.12853 6.538871,7.34967 16.82648,11.77372 29.642881,11.77372 23.220757,0 43.423244,-8.81382 55.148764,-28.28798 H 13.889767"
         fill="#1b81a5"
         id="path297"
         style="fill-rule:evenodd;stroke-width:0.535534" /><path
         d="m 19.096229,231.80813 c 1.388104,6.33001 4.723946,11.29923 9.56678,14.68327 5.348379,-0.11782 9.712446,-0.74975 13.019905,-1.89579 a 0.94307548,0.94307548 0 0 1 0.61747,1.78119 c -0.440209,0.15316 -0.898626,0.29561 -1.372038,0.4311 h -0.0016 c -2.604302,0.74386 -5.684694,1.27618 -9.288302,1.49896 9.230465,4.73412 22.576509,4.66611 37.921166,-1.22798 9.282948,-3.56666 18.217263,-8.87594 26.232601,-15.27075 H 19.096229"
         fill="#1d91b4"
         id="path299"
         style="fill-rule:evenodd;stroke-width:0.535534" /><path
         d="M 24.394267,211.11348 H 35.007481 V 221.7267 H 24.394267 Z m 0.884167,0.88471 h 0.837575 v 8.84434 h -0.837575 z m 1.57447,0 h 0.871314 v 8.84434 H 26.85344 v -8.84434 z m 1.607674,0 h 0.871313 v 8.84434 h -0.871313 z m 1.608744,0 H 30.9401 v 8.84434 h -0.870778 z m 1.608209,0 h 0.870778 v 8.84434 h -0.870778 z m 1.607673,0 h 0.838111 v 8.84434 h -0.838111 z m 3.354585,-13.13023 h 10.61375 v 10.61268 H 36.639254 v -10.61268 z m 0.884703,0.8847 h 0.837039 v 8.84381 h -0.837039 z m 1.57447,0 h 0.870778 v 8.84381 h -0.870243 v -8.84381 z m 1.607673,0 h 0.870778 v 8.84381 h -0.870778 z m 1.608209,0 h 0.870778 v 8.84381 h -0.870778 z m 1.608208,0 h 0.871314 v 8.84381 h -0.871314 z m 1.607674,0 h 0.838646 v 8.84381 h -0.838646 z"
         fill="#23a3c2"
         id="path301"
         style="fill-rule:evenodd;stroke-width:0.535534" /><path
         d="m 36.639789,211.11348 h 10.61375 V 221.7267 H 36.639254 v -10.61322 z m 0.884703,0.88471 h 0.837039 v 8.84434 h -0.837039 z m 1.57447,0 h 0.870778 v 8.84434 h -0.870243 v -8.84434 z m 1.607673,0 h 0.870778 v 8.84434 h -0.870778 z m 1.608209,0 h 0.870778 v 8.84434 h -0.870778 z m 1.608208,0 h 0.871314 v 8.84434 h -0.871314 z m 1.607674,0 h 0.838646 v 8.84434 h -0.838646 z"
         fill="#34bbde"
         id="path303"
         style="fill-rule:evenodd;stroke-width:0.535534" /><path
         d="M 48.885847,211.11348 H 59.499061 V 221.7267 H 48.885847 Z m 0.884166,0.88471 h 0.83704 v 8.84434 h -0.83704 z m 1.57447,0 h 0.870779 v 8.84434 h -0.870779 z m 1.608209,0 h 0.870779 v 8.84434 h -0.870779 z m 1.608209,0 h 0.870778 v 8.84434 h -0.870778 z m 1.607673,0 h 0.87185 v 8.84434 h -0.87185 z m 1.608209,0 h 0.837575 v 8.84434 h -0.837575 z"
         fill="#23a3c2"
         id="path305"
         style="fill-rule:evenodd;stroke-width:0.535534" /><path
         d="m 48.885847,198.86796 h 10.613214 v 10.61268 H 48.885847 Z m 0.884166,0.8847 h 0.83704 v 8.84381 h -0.83704 z m 1.57447,0 h 0.870779 v 8.84381 h -0.870779 z m 1.608209,0 h 0.870779 v 8.84381 h -0.870779 z m 1.608209,0 h 0.870778 v 8.84381 h -0.870778 z m 1.607673,0 h 0.87185 v 8.84381 h -0.87185 z m 1.608209,0 h 0.837575 v 8.84381 h -0.837575 z m 3.354585,11.36082 H 71.744582 V 221.7267 H 61.131368 Z m 0.884703,0.88471 h 0.837039 v 8.84434 h -0.837039 z m 1.57447,0 h 0.870778 v 8.84434 h -0.870778 z m 1.607673,0 h 0.870778 v 8.84434 h -0.870778 z m 1.608209,0 h 0.871314 v 8.84434 h -0.871314 z m 1.608209,0 h 0.871314 v 8.84434 h -0.871314 z m 1.608208,0 h 0.837576 v 8.84434 H 70.02284 Z"
         fill="#34bbde"
         id="path307"
         style="fill-rule:evenodd;stroke-width:0.535534" /><path
         d="m 61.131368,198.86796 h 10.613214 v 10.61268 H 61.131368 Z m 0.884703,0.8847 h 0.837039 v 8.84381 h -0.837039 z m 1.57447,0 h 0.870778 v 8.84381 h -0.870778 z m 1.607673,0 h 0.870778 v 8.84381 h -0.870778 z m 1.608209,0 h 0.871314 v 8.84381 h -0.871314 z m 1.608209,0 h 0.871314 v 8.84381 h -0.871314 z m 1.608208,0 h 0.837576 v 8.84381 H 70.02284 Z"
         fill="#23a3c2"
         id="path309"
         style="fill-rule:evenodd;stroke-width:0.535534" /><path
         d="m 61.131368,186.6219 h 10.613214 v 10.61429 H 61.131368 Z m 0.884703,0.88417 h 0.837039 v 8.84488 h -0.837039 v -8.84541 z m 1.57447,0 h 0.870778 v 8.84488 h -0.870778 v -8.84541 z m 1.607673,0 h 0.870778 v 8.84488 h -0.870778 v -8.84541 z m 1.608209,0 h 0.871314 v 8.84488 h -0.871314 v -8.84541 z m 1.608209,0 h 0.871314 v 8.84488 h -0.871314 v -8.84541 z m 1.608208,0 h 0.837576 v 8.84488 H 70.02284 v -8.84541 z"
         fill="#34bbde"
         id="path311"
         style="fill-rule:evenodd;stroke-width:0.535534" /><path
         d="M 73.37689,211.11348 H 83.990104 V 221.7267 H 73.37689 Z m 0.883631,0.88471 h 0.838111 v 8.84434 h -0.837575 v -8.84434 z m 1.574471,0 h 0.871314 v 8.84434 h -0.870779 v -8.84434 z m 1.608744,0 h 0.871314 v 8.84434 h -0.871314 z m 1.607673,0 h 0.871314 v 8.84434 h -0.871314 z m 1.608744,0 h 0.870779 v 8.84434 h -0.870779 z m 1.607674,0 h 0.837575 v 8.84434 h -0.837575 z"
         fill="#23a3c2"
         id="path313"
         style="fill-rule:evenodd;stroke-width:0.535534" /><path
         d="m 46.588941,238.93394 a 2.9283002,2.9283002 0 1 1 -0.0011,5.85607 2.9283002,2.9283002 0 0 1 0.0011,-5.85607"
         fill="#d3ecec"
         id="path315"
         style="fill-rule:evenodd;stroke-width:0.535534" /><path
         d="m 46.588941,239.76456 c 0.267767,0 0.523217,0.0503 0.758852,0.14191 a 0.85578343,0.85578343 0 0 0 0.427356,1.59589 c 0.323998,0 0.605153,-0.1794 0.750819,-0.44502 a 2.0966158,2.0966158 0 1 1 -1.937027,-1.29278 M -5.1993447,232.86634 H 131.00143 c -2.96526,-0.75189 -9.38256,-1.76833 -8.32435,-5.65524 -5.39282,6.24005 -18.3972,4.37799 -21.67949,1.30135 -3.654479,5.30072 -24.931248,3.2855 -26.415213,-0.844 -4.582029,5.3773 -18.779572,5.3773 -23.361602,0 -1.485036,4.1295 -22.761268,6.14472 -26.416288,0.84346 -3.281753,3.07718 -16.2855912,4.93924 -21.6784192,-1.30027 1.0582153,3.88637 -5.3590893,4.90281 -8.3254125,5.65524"
         fill="#364548"
         id="path317"
         style="fill-rule:evenodd;stroke-width:0.535534" /><path
         d="m 54.371858,260.03291 c -7.251132,-3.4408 -11.230685,-8.11869 -13.445119,-13.22447 -2.693736,0.76849 -5.931039,1.26011 -9.693166,1.47111 -1.417023,0.0793 -2.90795,0.11996 -4.471709,0.11996 -1.803679,0 -3.70429,-0.0536 -5.699689,-0.15906 6.649726,6.64598 14.830009,11.76247 29.977054,11.85566 1.118195,0 2.227822,-0.0214 3.332629,-0.0632"
         fill="#bdd9d7"
         id="path319"
         style="fill-rule:evenodd;stroke-width:0.535534" /><path
         d="m 43.61994,251.52006 c -1.003055,-1.36186 -1.97612,-3.07343 -2.691594,-4.7127 -2.693736,0.76957 -5.932111,1.26119 -9.694773,1.47272 2.584487,1.40257 6.280208,2.70231 12.386903,3.23998"
         fill="#d3ecec"
         id="path321"
         style="fill-rule:evenodd;stroke-width:0.535534" /></g></g></svg>
