<?xml version="1.0" encoding="UTF-8" standalone="no"?>
<!-- Created with Inkscape (http://www.inkscape.org/) -->

<svg
   version="1.1"
   id="svg2"
   width="148"
   height="146"
   viewBox="0 0 148 146"
   sodipodi:docname="19.svg"
   xml:space="preserve"
   inkscape:version="1.2.2 (b0a8486541, 2022-12-01)"
   xmlns:inkscape="http://www.inkscape.org/namespaces/inkscape"
   xmlns:sodipodi="http://sodipodi.sourceforge.net/DTD/sodipodi-0.dtd"
   xmlns="http://www.w3.org/2000/svg"
   xmlns:svg="http://www.w3.org/2000/svg"><defs
     id="defs6" /><sodipodi:namedview
     id="namedview4"
     pagecolor="#ffffff"
     bordercolor="#111111"
     borderopacity="1"
     inkscape:showpageshadow="0"
     inkscape:pageopacity="0"
     inkscape:pagecheckerboard="1"
     inkscape:deskcolor="#d1d1d1"
     showgrid="false"
     inkscape:zoom="2.407069"
     inkscape:cx="159.73784"
     inkscape:cy="79.765059"
     inkscape:window-width="1920"
     inkscape:window-height="2123"
     inkscape:window-x="20"
     inkscape:window-y="20"
     inkscape:window-maximized="0"
     inkscape:current-layer="g8" /><g
     inkscape:groupmode="layer"
     inkscape:label="Image"
     id="g8"><rect
       style="fill:#e6e6e6;fill-rule:evenodd"
       id="rect359"
       width="148"
       height="146"
       x="0"
       y="0"
       ry="10.848359" /><path
       d="m 136.94982,37.477004 a 2.053586,2.053586 0 0 1 0.0716,0.530608 v 27.85158 a 2.0307404,2.0307404 0 0 1 -1.02036,1.761609 l -23.37641,13.45877 v 26.676319 c 0,0.72597 -0.38571,1.39605 -1.01537,1.76161 l -48.796067,28.09023 c -0.112287,0.0635 -0.23351,0.10411 -0.355406,0.1472 -0.046,0.0148 -0.08928,0.0432 -0.137049,0.0554 a 2.0434325,2.0434325 0 0 1 -1.040785,0 c -0.05548,-0.0148 -0.10688,-0.046 -0.159913,-0.0663 -0.112287,-0.0406 -0.228505,-0.0757 -0.335112,-0.13705 L 11.999076,109.51682 a 2.0332787,2.0332787 0 0 1 -1.020491,-1.7616 V 24.200336 c 0,-0.182776 0.0257,-0.360411 0.0717,-0.533042 0.01489,-0.05817 0.05141,-0.110935 0.0717,-0.17006 0.03788,-0.10688 0.07305,-0.215786 0.129877,-0.31482 0.03789,-0.06629 0.09334,-0.119047 0.139619,-0.180205 0.05817,-0.08118 0.110935,-0.164919 0.180205,-0.23608 0.05817,-0.05818 0.133934,-0.10147 0.2005,-0.152203 0.07305,-0.06088 0.139619,-0.127173 0.223363,-0.175199 v 0 L 36.389806,8.3936104 a 2.0358171,2.0358171 0 0 1 2.030836,0 L 62.814888,22.438727 v 0 c 0.08118,0.0514 0.149767,0.113639 0.223365,0.172629 0.06629,0.05005 0.139619,0.09605 0.198063,0.152337 0.0717,0.07306 0.121766,0.157342 0.182778,0.238516 0.0433,0.06088 0.101469,0.113639 0.137049,0.180205 0.05817,0.10147 0.09064,0.208213 0.132581,0.31482 0.02029,0.05817 0.05548,0.112287 0.0717,0.17263 a 2.053586,2.053586 0 0 1 0.0717,0.530472 V 76.387854 L 84.159839,64.683253 V 38.004366 c 0,-0.177771 0.02569,-0.357979 0.07166,-0.528037 0.01757,-0.06088 0.05002,-0.11364 0.0703,-0.17263 0.04056,-0.10688 0.07571,-0.215788 0.132634,-0.314684 0.03786,-0.06629 0.09329,-0.119061 0.137044,-0.180206 0.06085,-0.08118 0.112355,-0.165054 0.182783,-0.236081 0.05814,-0.05818 0.132635,-0.10147 0.197925,-0.152337 0.07572,-0.06088 0.142194,-0.127173 0.223358,-0.1752 v 0 L 109.57238,22.200075 a 2.0332787,2.0332787 0 0 1 2.03084,0 l 24.39424,14.045116 c 0.0865,0.05005 0.15233,0.113639 0.22838,0.17263 0.0635,0.05005 0.13717,0.09606 0.19549,0.152336 0.0716,0.07305 0.12181,0.157343 0.18277,0.238652 0.046,0.06088 0.10156,0.11364 0.13706,0.180206 0.0581,0.09876 0.0919,0.208076 0.13263,0.314684 0.023,0.05817 0.0554,0.112287 0.0716,0.17263 z M 132.9543,64.68393 V 41.523254 l -8.53665,4.914404 -11.79363,6.790332 v 23.16054 l 20.33285,-11.7046 z m -24.39425,41.89669 V 83.404797 L 96.959472,90.030071 63.832945,108.93629 v 23.39406 z M 15.04445,27.71679 v 78.86383 l 44.721952,25.74716 V 108.93873 L 36.402793,95.716171 h -0.01354 -0.01354 c -0.07847,-0.04597 -0.14476,-0.112355 -0.218358,-0.167627 -0.06358,-0.05138 -0.137049,-0.09193 -0.192924,-0.147196 v -0.01353 c -0.06629,-0.06354 -0.110935,-0.142194 -0.167488,-0.213217 -0.0514,-0.06895 -0.110936,-0.127228 -0.152336,-0.198061 v -0.01353 c -0.046,-0.07571 -0.07305,-0.167491 -0.10688,-0.253806 -0.03247,-0.07571 -0.07577,-0.147331 -0.09606,-0.228508 v 0 c -0.0257,-0.09599 -0.03112,-0.197925 -0.04059,-0.296949 -0.01354,-0.07571 -0.03112,-0.152349 -0.03112,-0.228509 V 39.422337 L 23.579049,32.629434 15.042259,27.720172 Z M 37.407996,12.501416 17.082862,24.201012 37.402856,35.900608 57.725555,24.198577 37.402856,12.501416 Z M 47.978058,85.516672 59.768974,78.729044 V 27.71679 l -8.536655,4.914404 -11.793621,6.790332 V 90.433643 Z M 110.59332,26.308016 90.270751,38.007612 110.59332,49.707207 130.91344,38.005041 Z M 108.56005,53.22799 96.766549,46.437658 88.229761,41.523254 V 64.68393 l 11.791049,6.787627 8.53924,4.916973 z M 61.79724,105.42052 91.605921,88.402945 106.50649,79.899167 86.199058,68.207147 62.817596,81.668487 41.50755,93.936705 Z"
       fill="#ff2d20"
       id="path460"
       style="stroke-width:2.53844" /></g></svg>
