<?xml version="1.0" encoding="UTF-8" standalone="no"?>
<!-- Created with Inkscape (http://www.inkscape.org/) -->

<svg
   version="1.1"
   id="svg2"
   width="148"
   height="146"
   viewBox="0 0 148 146"
   sodipodi:docname="20.svg"
   xml:space="preserve"
   inkscape:version="1.2.2 (b0a8486541, 2022-12-01)"
   xmlns:inkscape="http://www.inkscape.org/namespaces/inkscape"
   xmlns:sodipodi="http://sodipodi.sourceforge.net/DTD/sodipodi-0.dtd"
   xmlns="http://www.w3.org/2000/svg"
   xmlns:svg="http://www.w3.org/2000/svg"><defs
     id="defs6" /><sodipodi:namedview
     id="namedview4"
     pagecolor="#ffffff"
     bordercolor="#111111"
     borderopacity="1"
     inkscape:showpageshadow="0"
     inkscape:pageopacity="0"
     inkscape:pagecheckerboard="1"
     inkscape:deskcolor="#d1d1d1"
     showgrid="false"
     inkscape:zoom="3.4041096"
     inkscape:cx="85.63179"
     inkscape:cy="135.71831"
     inkscape:window-width="1920"
     inkscape:window-height="2123"
     inkscape:window-x="20"
     inkscape:window-y="20"
     inkscape:window-maximized="0"
     inkscape:current-layer="g8" /><g
     inkscape:groupmode="layer"
     inkscape:label="Image"
     id="g8"><rect
       style="fill:#e6e6e6;fill-rule:evenodd"
       id="rect359"
       width="148"
       height="146"
       x="0"
       y="0"
       ry="10.848359" /><path
       d="M 8.7659423,104.5346 18.659646,54.449654 h 22.877251 c 9.892999,0.618533 14.83985,5.564676 14.83985,14.222023 0,14.83985 -11.74789,23.49649 -22.260128,22.877953 H 22.987965 L 20.51454,104.5346 Z M 25.460687,82.275165 28.552645,63.724826 h 8.038106 c 4.32832,0 7.419573,1.854888 7.419573,5.564679 -0.617827,10.512233 -5.56468,12.367127 -11.12936,12.985661 H 25.461391 Z M 54.078231,91.549629 63.97123,41.465403 H 75.719828 L 73.246402,54.449654 H 84.37576 c 9.893707,0.618533 13.60349,5.564676 12.367128,11.748594 L 92.414572,91.549629 H 80.048147 l 4.32832,-22.877953 c 0.617829,-3.091962 0.617829,-4.946851 -3.709788,-4.946851 H 71.391511 L 65.82683,91.549629 Z m 37.544309,12.984971 9.893,-50.084947 h 22.87796 c 9.89371,0.618533 14.84056,5.564677 14.84056,14.222023 0,14.839851 -11.74859,23.49649 -22.26013,22.877953 h -11.13007 l -2.47342,12.984971 z m 16.69405,-22.259435 3.09195,-18.55034 h 8.03882 c 4.32832,0 7.41957,1.854889 7.41957,5.564679 -0.61783,10.512233 -5.56469,12.367127 -11.12936,12.985661 h -7.42028 z"
       fill="#232531"
       id="path293"
       style="fill-rule:evenodd;stroke-width:0.705284" /></g></svg>
