<?xml version="1.0" encoding="UTF-8" standalone="no"?>
<!-- Created with Inkscape (http://www.inkscape.org/) -->

<svg
   version="1.1"
   id="svg2"
   width="148"
   height="146"
   viewBox="0 0 148 146"
   sodipodi:docname="22.svg"
   xml:space="preserve"
   inkscape:version="1.2.2 (b0a8486541, 2022-12-01)"
   xmlns:inkscape="http://www.inkscape.org/namespaces/inkscape"
   xmlns:sodipodi="http://sodipodi.sourceforge.net/DTD/sodipodi-0.dtd"
   xmlns="http://www.w3.org/2000/svg"
   xmlns:svg="http://www.w3.org/2000/svg"><defs
     id="defs6" /><sodipodi:namedview
     id="namedview4"
     pagecolor="#ffffff"
     bordercolor="#111111"
     borderopacity="1"
     inkscape:showpageshadow="0"
     inkscape:pageopacity="0"
     inkscape:pagecheckerboard="1"
     inkscape:deskcolor="#d1d1d1"
     showgrid="false"
     inkscape:zoom="3.4041096"
     inkscape:cx="31.579477"
     inkscape:cy="73.146881"
     inkscape:window-width="1920"
     inkscape:window-height="2123"
     inkscape:window-x="26"
     inkscape:window-y="23"
     inkscape:window-maximized="0"
     inkscape:current-layer="g8" /><g
     inkscape:groupmode="layer"
     inkscape:label="Image"
     id="g8"><rect
       style="fill:#e6e6e6;fill-rule:evenodd"
       id="rect359"
       width="148"
       height="146"
       x="0"
       y="0"
       ry="10.848359" /><g
       fill="#d70751"
       id="g295"
       transform="matrix(0.09610936,0,0,0.08978397,-11.361931,-0.3708318)"><path
         d="m 1061.405,885.972 c -24.8,0.6 4.722,12.986 37.186,17.708 8.854,-7.083 17.118,-14.166 24.2,-20.66 -20.07,4.722 -40.728,4.722 -61.387,2.95 m 133.4,-33.053 c 14.757,-20.66 25.38,-42.5 29.513,-65.52 -3.542,16.527 -12.395,30.694 -20.66,45.45 -46.63,28.923 -4.132,-17.118 0,-34.825 -50.172,62.568 -7.083,37.186 -8.854,54.894 m 48.992,-128.086 c 2.95,-44.86 -8.854,-30.694 -12.986,-13.576 4.722,2.95 8.264,31.874 12.986,13.576 M 967.553,114.5 c 12.986,2.36 28.923,4.132 26.562,7.083 14.166,-2.95 17.708,-5.903 -26.562,-7.083 m 26.562,7.674 -9.444,1.77 8.854,-0.6 0.6,-1.18 m 324.043,586.73 c 1.77,40.138 -11.805,59.616 -23.6,93.85 l -21.25,10.625 c -17.708,34.235 1.77,21.84 -10.625,48.992 -27.152,24.2 -83.227,76.144 -100.935,80.866 -12.986,0 8.854,-15.347 11.805,-21.25 -36.596,25.38 -29.513,37.777 -85.588,53.123 l -1.77,-3.542 C 948.085,1036.488 755.66,907.8 758.6,731.912 c -1.18,11.215 -4.132,8.264 -7.083,12.986 -7.083,-90.3 41.9,-181.2 124.545,-218.397 80.866,-40.138 175.308,-23.6 233.153,30.103 -31.874,-41.318 -95.032,-85.588 -169.995,-81.456 -73.192,1.18 -142.253,47.8 -164.683,98.574 -37.777,23.6 -41.9,91.5 -58.436,103.886 -21.84,161.732 41.318,231.973 148.746,314.02 17.118,11.215 4.722,12.986 7.083,21.84 -35.416,-16.527 -68.47,-41.9 -95.032,-72.602 14.166,20.66 29.513,41.318 49.582,57.255 -33.645,-11.215 -78.505,-81.456 -91.5,-84.407 57.846,103.886 235.514,182.4 328.185,143.433 -43.1,1.77 -97.393,0.6 -145.794,-17.118 -20.07,-10.625 -47.8,-31.874 -43.1,-36.006 126.906,47.22 257.354,36.006 367.142,-51.943 27.742,-21.84 58.436,-58.436 67.3,-59.026 -12.986,20.07 2.36,9.444 -7.673,27.152 27.742,-44.86 -11.805,-18.298 28.923,-77.324 l 15.347,20.66 c -5.903,-37.186 46.04,-82.637 40.728,-141.072 11.805,-17.708 12.986,19.48 0.6,60.797 17.708,-46.04 4.722,-53.123 8.854,-91.5 4.722,12.986 11.215,26.562 14.757,39.547 -11.215,-44.27 11.805,-74.963 17.118,-100.344 -5.903,-2.36 -17.708,19.48 -20.07,-33.055 0.6,-23.02 6.493,-11.805 8.854,-17.708 -4.722,-2.36 -15.937,-20.07 -23.02,-53.714 5.312,-7.673 13.576,20.66 20.66,21.25 -4.722,-26.562 -12.395,-46.63 -12.395,-67.3 -20.66,-43.1 -7.083,5.903 -24.2,-18.298 -21.84,-68.47 18.298,-15.937 20.66,-46.63 33.055,47.8 51.943,122.774 60.797,153.468 -6.493,-37.777 -17.118,-74.373 -30.694,-109.198 10.034,4.132 -15.937,-77.324 12.986,-23.6 -31.284,-115.1 -134,-223.12 -228.43,-273.3 11.805,10.625 25.97,23.6 20.66,25.97 -47.22,-27.742 -38.957,-30.103 -45.45,-41.9 -38.367,-15.347 -40.728,1.18 -66.1,0 -72.012,-38.367 -86.178,-34.235 -152.287,-58.436 l 2.95,14.166 c -47.8,-15.937 -55.485,5.903 -107.428,0 -2.95,-2.36 16.527,-8.854 33.055,-11.215 -46.04,5.903 -44.27,-8.854 -89.13,1.77 11.215,-7.673 23.02,-12.986 34.825,-19.48 -37.777,2.36 -90.3,21.84 -73.783,4.132 -61.387,27.742 -170.585,66.1 -231.973,123.365 l -1.77,-12.986 C 507.76,221.916 413.9,289.206 406.237,332.885 l -7.673,1.77 c -14.757,24.8 -24.2,52.533 -35.416,78.505 -18.888,32.464 -27.742,12.395 -25.38,17.708 -37.777,76.144 -56.075,140.482 -72.602,193.015 11.215,17.118 0,103.296 4.722,172.356 -18.888,341.17 239.056,672.307 521.8,748.45 41.318,14.757 102.705,14.166 155.24,15.937 -61.977,-17.708 -69.65,-9.444 -129.857,-30.103 -43.1,-20.66 -53.123,-43.68 -83.817,-70.24 l 12.395,21.25 c -60.207,-21.25 -34.825,-26.562 -83.817,-41.9 l 12.986,-17.118 c -19.48,-1.77 -51.943,-33.055 -60.797,-50.172 l -21.25,0.6 c -25.38,-31.874 -39.547,-54.304 -38.367,-72.012 l -9.444,10.625 c -7.673,-13.576 -94.442,-118.642 -49.582,-94.442 -8.264,-7.673 -19.48,-12.395 -31.284,-34.235 l 8.854,-10.625 c -21.84,-27.742 -39.547,-63.748 -38.367,-75.553 11.805,15.347 19.48,18.298 27.742,21.25 -54.894,-135.76 -57.846,-7.673 -99.164,-138.12 l 8.854,-0.6 c -6.493,-10.034 -10.625,-21.25 -15.937,-31.874 l 3.542,-37.777 c -39.547,-45.45 -11.215,-193.015 -5.312,-274.47 4.132,-33.055 33.055,-67.88 54.894,-123.365 l -13.576,-2.36 c 25.38,-44.86 146.385,-179.44 201.87,-172.356 27.152,-34.235 -5.312,0 -10.625,-8.854 59.616,-61.387 77.914,-43.68 118.052,-54.304 43.1,-25.38 -37.186,10.034 -16.527,-10.034 74.963,-18.888 53.123,-43.68 150.517,-53.123 10.034,5.903 -23.6,8.854 -32.464,16.527 61.977,-30.694 197.147,-23.6 284.506,17.118 101.525,47.22 215.445,187.703 220.167,319.92 l 5.312,1.18 c -2.36,52.533 8.264,113.33 -10.625,168.815 l 12.395,-25.38"
         id="path291" /><path
         d="m 791.065,920.207 -3.542,17.118 c 16.527,22.43 29.513,46.04 50.172,63.158 -15.347,-28.923 -26.562,-40.728 -46.63,-80.275 m 38.367,-1.772 c -8.854,-9.444 -13.576,-21.25 -19.48,-32.464 5.312,20.07 16.527,37.186 27.152,54.894 l -7.673,-22.43 m 681.753,-148.156 -3.542,9.444 c -6.493,47.22 -21.25,94.442 -43.1,138.12 24.2,-46.04 40.138,-96.213 46.63,-147.565 M 972.275,102.696 c 16.527,-5.903 41.318,-3.542 59.026,-7.673 -23.02,1.77 -46.04,2.95 -69.06,5.903 l 10.034,1.77 m -588.5,312.838 c 4.132,36.006 -27.152,49.582 7.083,25.97 17.708,-40.138 -7.673,-10.625 -7.083,-25.97 m -39.547,165.863 c 7.673,-23.6 9.444,-38.367 12.395,-51.943 -21.84,27.152 -10.034,33.055 -12.395,51.943"
         id="path293" /></g></g></svg>
