<?xml version="1.0" encoding="UTF-8" standalone="no"?>
<!-- Created with Inkscape (http://www.inkscape.org/) -->

<svg
   version="1.1"
   id="svg2"
   width="148"
   height="146"
   viewBox="0 0 148 146"
   sodipodi:docname="24.svg"
   xml:space="preserve"
   inkscape:version="1.2.2 (b0a8486541, 2022-12-01)"
   xmlns:inkscape="http://www.inkscape.org/namespaces/inkscape"
   xmlns:sodipodi="http://sodipodi.sourceforge.net/DTD/sodipodi-0.dtd"
   xmlns="http://www.w3.org/2000/svg"
   xmlns:svg="http://www.w3.org/2000/svg"><defs
     id="defs6" /><sodipodi:namedview
     id="namedview4"
     pagecolor="#ffffff"
     bordercolor="#111111"
     borderopacity="1"
     inkscape:showpageshadow="0"
     inkscape:pageopacity="0"
     inkscape:pagecheckerboard="1"
     inkscape:deskcolor="#d1d1d1"
     showgrid="false"
     inkscape:zoom="3.4041096"
     inkscape:cx="45.826962"
     inkscape:cy="73.146881"
     inkscape:window-width="1920"
     inkscape:window-height="2123"
     inkscape:window-x="26"
     inkscape:window-y="23"
     inkscape:window-maximized="0"
     inkscape:current-layer="g8" /><g
     inkscape:groupmode="layer"
     inkscape:label="Image"
     id="g8"><rect
       style="fill:#e6e6e6;fill-rule:evenodd"
       id="rect359"
       width="148"
       height="146"
       x="0"
       y="0"
       ry="10.848359" /><g
       id="g309"
       transform="matrix(0.45304549,0,0,0.45304549,16.131244,13.199476)"><path
         d="m 255,158 c -2,-5 -6,-8 -11,-9 l -8,1 -14,2 c 12,-20 22,-43 27,-65 9,-34 5,-50 -1,-57 A 77,77 0 0 0 186,0 C 172,0 159,3 153,5 L 134,3 c -12,0 -24,3 -33,8 L 78,5 C 55,2 36,5 23,14 7,26 -1,46 0,74 a 342,342 0 0 0 28,97 c 7,14 14,22 23,24 5,2 13,3 22,-4 l 5,4 9,3 c 11,3 22,2 31,-1 a 643,643 0 0 1 0,10 109,109 0 0 0 5,33 c 1,4 4,11 9,16 6,6 13,8 20,8 l 9,-1 c 10,-2 21,-6 29,-17 8,-11 11,-27 12,-53 v -2 l 1,-2 1,1 h 1 c 10,0 22,-2 30,-6 5,-2 24,-12 20,-26"
         id="path291" /><path
         d="m 238,161 c -30,6 -32,-4 -32,-4 C 238,110 251,51 239,37 208,-3 155,16 154,16 l -20,-2 c -14,0 -24,4 -32,10 0,0 -95,-40 -91,49 1,19 28,143 59,106 l 22,-26 c 6,4 12,6 19,5 h 1 v 5 c -8,9 -6,10 -22,14 -16,3 -7,9 0,11 7,2 25,4 36,-12 v 2 c 3,2 5,16 5,29 -1,12 -1,21 2,27 2,7 5,22 26,18 17,-4 27,-14 28,-30 1,-12 3,-10 3,-20 l 1,-5 c 2,-16 1,-21 12,-19 l 2,1 c 8,0 19,-2 25,-5 13,-6 21,-16 8,-13"
         fill="#336791"
         id="path293" /><path
         d="m 108,82 h -6 l -1,2 1,3 c 1,2 3,3 5,3 h 1 c 3,0 6,-2 6,-4 1,-2 -3,-4 -6,-4 m 89,0 c 0,-2 -4,-3 -7,-2 -3,0 -6,1 -6,3 1,2 3,4 6,4 h 1 l 4,-2 2,-3"
         fill="#ffffff"
         id="path295" /><path
         d="m 248,160 c -1,-3 -5,-5 -11,-3 -18,3 -24,1 -27,-1 14,-21 26,-47 32,-71 3,-11 5,-22 5,-30 0,-10 -2,-17 -5,-21 A 70,70 0 0 0 185,7 c -16,0 -30,4 -33,6 -5,-2 -12,-3 -18,-3 -13,0 -23,3 -32,9 C 98,17 88,14 76,12 55,9 39,11 27,20 13,30 6,48 8,73 c 0,8 5,35 13,60 10,33 21,51 32,55 l 5,1 c 4,0 9,-2 14,-9 l 21,-22 c 4,2 9,3 14,3 v 1 l -2,3 c -4,5 -5,5 -16,8 -3,0 -12,2 -12,8 0,7 10,10 11,10 l 12,1 c 9,0 17,-3 24,-8 -1,23 0,46 3,53 3,6 8,20 26,20 l 9,-1 c 18,-4 26,-12 29,-30 l 6,-45 11,1 c 8,0 17,-2 23,-5 7,-3 19,-10 17,-17 z m -44,-83 -1,10 -2,12 1,14 c 1,9 3,19 -2,28 l -2,-4 -3,-6 c -7,-12 -22,-39 -14,-50 2,-3 8,-6 23,-4 z M 186,15 c 21,0 38,8 50,23 9,12 -1,65 -30,111 l -1,-1 c 7,-13 6,-25 5,-36 l -1,-13 1,-11 a 72,72 0 0 0 1,-16 C 211,67 205,52 193,38 187,31 177,22 165,17 Z M 67,176 c -6,7 -10,6 -12,5 C 47,178 36,160 28,130 20,105 15,80 15,73 14,50 19,34 31,26 51,12 83,20 95,24 v 1 C 74,46 74,82 74,85 v 3 c 1,7 2,18 0,31 a 38,38 0 0 0 12,34 z m 22,-30 c -6,-7 -9,-16 -8,-26 2,-14 1,-26 1,-32 v -2 c 3,-3 17,-11 27,-8 5,1 8,4 9,9 6,28 1,40 -4,50 l -2,5 -1,2 -3,10 c -7,0 -14,-3 -19,-8 z m 1,38 -5,-2 6,-2 c 13,-3 15,-5 19,-10 l 4,-5 c 3,-3 4,-2 6,-1 1,0 3,2 4,5 l -1,4 c -9,13 -23,13 -33,11 z m 70,65 c -16,3 -22,-5 -26,-15 a 293,293 0 0 1 -3,-67 c -2,-5 -5,-9 -8,-10 -2,-1 -5,-2 -8,-1 l 3,-10 1,-1 2,-5 c 5,-10 11,-24 4,-54 -2,-12 -11,-17 -23,-16 a 54,54 0 0 0 -20,7 c 1,-12 5,-33 18,-47 9,-8 20,-13 34,-12 27,0 44,14 54,26 8,10 13,20 15,25 -14,-1 -23,1 -28,8 -10,15 6,44 13,57 l 3,6 8,13 2,2 c -4,2 -11,4 -11,18 l -6,51 c -3,16 -8,21 -24,25 z m 68,-78 c -4,2 -11,3 -18,3 -8,1 -11,0 -12,-1 -1,-9 3,-10 6,-11 h 2 l 1,1 c 6,4 16,4 31,1 h 1 z"
         fill="#ffffff"
         id="path297" /></g></g></svg>
