<?xml version="1.0" encoding="UTF-8" standalone="no"?>
<!-- Created with Inkscape (http://www.inkscape.org/) -->

<svg
   version="1.1"
   id="svg2"
   width="148"
   height="146"
   viewBox="0 0 148 146"
   sodipodi:docname="26.svg"
   xml:space="preserve"
   inkscape:version="1.2.2 (b0a8486541, 2022-12-01)"
   xmlns:inkscape="http://www.inkscape.org/namespaces/inkscape"
   xmlns:sodipodi="http://sodipodi.sourceforge.net/DTD/sodipodi-0.dtd"
   xmlns="http://www.w3.org/2000/svg"
   xmlns:svg="http://www.w3.org/2000/svg"><defs
     id="defs6" /><sodipodi:namedview
     id="namedview4"
     pagecolor="#ffffff"
     bordercolor="#111111"
     borderopacity="1"
     inkscape:showpageshadow="0"
     inkscape:pageopacity="0"
     inkscape:pagecheckerboard="1"
     inkscape:deskcolor="#d1d1d1"
     showgrid="false"
     inkscape:zoom="3.4041096"
     inkscape:cx="22.325956"
     inkscape:cy="73.146881"
     inkscape:window-width="1920"
     inkscape:window-height="2123"
     inkscape:window-x="26"
     inkscape:window-y="23"
     inkscape:window-maximized="0"
     inkscape:current-layer="g8" /><g
     inkscape:groupmode="layer"
     inkscape:label="Image"
     id="g8"><rect
       style="fill:#e6e6e6;fill-rule:evenodd"
       id="rect359"
       width="148"
       height="146"
       x="0"
       y="0"
       ry="10.848359" /><path
       fill="#00dc82"
       d="m 82.314347,117.4595 h 50.662263 c 1.60931,0 3.18988,-0.41044 4.58358,-1.19088 a 9.0303672,9.0303672 0 0 0 3.35492,-3.25536 8.6901914,8.6901914 0 0 0 1.22655,-4.44625 c 0,-1.56086 -0.42535,-3.09352 -1.23081,-4.44518 L 106.88793,46.960038 a 9.0319641,9.0319641 0 0 0 -3.35438,-3.254297 9.3833195,9.3833195 0 0 0 -4.582519,-1.191415 c -1.60932,0 -3.189346,0.41098 -4.583063,1.191415 a 9.0308995,9.0308995 0 0 0 -3.353845,3.254297 L 82.314347,61.585474 65.305552,32.985141 a 9.0356911,9.0356911 0 0 0 -3.355977,-3.253765 9.389708,9.389708 0 0 0 -4.583592,-1.190881 c -1.608782,0 -3.189881,0.410979 -4.583591,1.190881 a 9.0356911,9.0356911 0 0 0 -3.355444,3.253765 L 7.0880826,104.12183 a 8.6784796,8.6784796 0 0 0 -1.2297431,4.44518 c 0,1.56088 0.4221581,3.0946 1.2265491,4.44625 a 9.0308995,9.0308995 0 0 0 3.3549124,3.25536 9.384385,9.384385 0 0 0 4.583592,1.19088 h 31.801395 c 12.600351,0 21.892106,-5.36829 28.286246,-15.84187 L 90.634024,75.541208 98.948371,61.585474 123.90206,103.5043 H 90.634024 Z M 46.30574,103.49046 24.112852,103.48518 57.380889,47.596781 73.980302,75.541252 62.866294,94.218454 c -4.246078,6.795486 -9.069762,9.271476 -16.560022,9.271476 z"
       id="path291"
       style="stroke-width:0.532357" /></g></svg>
