<?xml version="1.0" encoding="UTF-8" standalone="no"?>
<!-- Created with Inkscape (http://www.inkscape.org/) -->

<svg
   version="1.1"
   id="svg2"
   width="148"
   height="146"
   viewBox="0 0 148 146"
   sodipodi:docname="27.svg"
   xml:space="preserve"
   inkscape:version="1.2.2 (b0a8486541, 2022-12-01)"
   xmlns:inkscape="http://www.inkscape.org/namespaces/inkscape"
   xmlns:sodipodi="http://sodipodi.sourceforge.net/DTD/sodipodi-0.dtd"
   xmlns="http://www.w3.org/2000/svg"
   xmlns:svg="http://www.w3.org/2000/svg"><defs
     id="defs6" /><sodipodi:namedview
     id="namedview4"
     pagecolor="#ffffff"
     bordercolor="#111111"
     borderopacity="1"
     inkscape:showpageshadow="0"
     inkscape:pageopacity="0"
     inkscape:pagecheckerboard="1"
     inkscape:deskcolor="#d1d1d1"
     showgrid="false"
     inkscape:zoom="3.4041096"
     inkscape:cx="45.826962"
     inkscape:cy="73.146881"
     inkscape:window-width="1920"
     inkscape:window-height="2123"
     inkscape:window-x="26"
     inkscape:window-y="23"
     inkscape:window-maximized="0"
     inkscape:current-layer="g8" /><g
     inkscape:groupmode="layer"
     inkscape:label="Image"
     id="g8"><rect
       style="fill:#e6e6e6;fill-rule:evenodd"
       id="rect359"
       width="148"
       height="146"
       x="0"
       y="1.0953066e-07"
       ry="10.848359" /><g
       id="g354"
       transform="matrix(0.48043415,0,0,0.48043415,12.504429,11.504444)"><path
         d="M 254.953,144.253 C 263.912,74.122 214.384,10.005 144.381,1.047 74.378,-7.912 10.005,41.616 1.047,111.619 c -8.959,70.003 40.569,134.248 110.572,143.334 70.131,8.959 134.248,-40.569 143.334,-110.7 z"
         fill="#ff6c37"
         id="path291" /><path
         d="m 174.2,82.184 -54.007,54.007 -15.229,-15.23 c 53.11,-53.11 58.358,-48.503 69.236,-38.777 z"
         fill="#ffffff"
         id="path293" /><path
         d="m 120.193,137.47 c -0.384,0 -0.64,-0.128 -0.895,-0.384 L 103.94,121.857 a 1.237,1.237 0 0 1 0,-1.792 c 54.007,-54.006 59.638,-48.887 71.028,-38.649 0.255,0.256 0.383,0.512 0.383,0.896 0,0.384 -0.128,0.64 -0.383,0.896 l -54.007,53.878 c -0.128,0.256 -0.512,0.384 -0.768,0.384 z m -13.437,-16.509 13.437,13.438 52.087,-52.087 c -9.47,-8.446 -15.87,-11.006 -65.524,38.65 z"
         fill="#ff6c37"
         id="path295" /><path
         d="m 135.679,151.676 -14.718,-14.718 54.007,-54.006 c 14.46,14.59 -7.167,38.265 -39.29,68.724 z"
         fill="#ffffff"
         id="path297" /><path
         d="m 135.679,152.956 c -0.384,0 -0.64,-0.128 -0.896,-0.384 l -14.718,-14.718 c -0.256,-0.256 -0.256,-0.512 -0.256,-0.896 0,-0.384 0.128,-0.64 0.384,-0.895 L 174.2,82.056 a 1.237,1.237 0 0 1 1.791,0 15.58,15.58 0 0 1 4.991,11.902 c -0.256,14.206 -16.38,32.25 -44.28,58.614 -0.383,0.256 -0.767,0.384 -1.023,0.384 z m -12.926,-15.998 c 8.19,8.319 11.646,11.646 12.926,12.926 21.5,-20.476 42.36,-41.464 42.488,-55.926 0.128,-3.327 -1.152,-6.655 -3.327,-9.214 z"
         fill="#ff6c37"
         id="path299" /><path
         d="m 105.22,121.345 10.878,10.878 c 0.256,0.256 0.256,0.512 0,0.768 -0.128,0.128 -0.128,0.128 -0.256,0.128 l -22.524,4.863 c -1.152,0.128 -2.175,-0.64 -2.431,-1.791 -0.128,-0.64 0.128,-1.28 0.512,-1.664 l 13.053,-13.054 c 0.256,-0.256 0.64,-0.384 0.768,-0.128 z"
         fill="#ffffff"
         id="path301" /><path
         d="m 92.934,139.262 c -1.92,0 -3.327,-1.536 -3.327,-3.455 0,-0.896 0.384,-1.792 1.024,-2.432 l 13.053,-13.054 c 0.768,-0.64 1.792,-0.64 2.56,0 l 10.878,10.878 c 0.768,0.64 0.768,1.792 0,2.56 -0.256,0.256 -0.512,0.384 -0.896,0.512 l -22.524,4.863 c -0.256,0 -0.512,0.128 -0.768,0.128 z m 11.902,-16.51 -12.542,12.543 c -0.256,0.256 -0.383,0.64 -0.128,1.024 0.128,0.383 0.512,0.511 0.896,0.383 l 21.116,-4.607 -9.342,-9.342 z"
         fill="#ff6c37"
         id="path303" /><path
         d="m 202.739,52.238 c -8.191,-7.935 -21.373,-7.679 -29.307,0.64 -7.935,8.318 -7.679,21.372 0.64,29.306 A 20.678,20.678 0 0 0 199.155,85 l -14.59,-14.59 z"
         fill="#ffffff"
         id="path305" /><path
         d="m 188.405,89.223 c -12.158,0 -22.012,-9.854 -22.012,-22.012 0,-12.158 9.854,-22.012 22.012,-22.012 5.631,0 11.134,2.176 15.23,6.143 0.255,0.256 0.383,0.512 0.383,0.896 0,0.384 -0.128,0.64 -0.384,0.895 l -17.277,17.277 13.566,13.566 c 0.512,0.512 0.512,1.28 0,1.792 l -0.256,0.256 c -3.327,2.047 -7.295,3.199 -11.262,3.199 z m 0,-41.337 c -10.75,0 -19.452,8.703 -19.324,19.453 0,10.75 8.702,19.452 19.452,19.324 2.944,0 5.887,-0.64 8.575,-2.047 L 183.67,71.306 c -0.256,-0.256 -0.384,-0.512 -0.384,-0.896 0,-0.384 0.128,-0.64 0.384,-0.895 l 17.149,-17.15 c -3.456,-2.943 -7.807,-4.479 -12.414,-4.479 z"
         fill="#ff6c37"
         id="path307" /><path
         d="m 203.122,52.622 -0.255,-0.256 -18.301,18.044 14.461,14.462 c 1.408,-0.896 2.816,-1.92 3.967,-3.072 a 20.51,20.51 0 0 0 0.128,-29.178 z"
         fill="#ffffff"
         id="path309" /><path
         d="m 199.155,86.28 c -0.384,0 -0.64,-0.128 -0.896,-0.384 L 183.67,71.306 c -0.256,-0.256 -0.384,-0.512 -0.384,-0.896 0,-0.384 0.128,-0.64 0.384,-0.895 l 18.173,-18.173 a 1.237,1.237 0 0 1 1.791,0 l 0.384,0.256 c 8.575,8.574 8.575,22.396 0.128,31.098 -1.28,1.28 -2.687,2.432 -4.223,3.328 -0.384,0.128 -0.64,0.256 -0.768,0.256 z m -12.798,-15.87 12.926,12.926 c 1.024,-0.64 2.048,-1.536 2.816,-2.304 7.294,-7.294 7.678,-19.196 0.64,-26.875 z"
         fill="#ff6c37"
         id="path311" /><path
         d="m 176.375,84.488 a 7.879,7.879 0 0 0 -11.134,0 l -48.247,48.247 8.063,8.063 51.062,-44.792 c 3.328,-2.816 3.584,-7.807 0.768,-11.134 -0.256,-0.128 -0.384,-0.256 -0.512,-0.384 z"
         fill="#ffffff"
         id="path313" /><path
         d="m 124.929,142.077 c -0.384,0 -0.64,-0.128 -0.896,-0.383 l -8.063,-8.063 a 1.237,1.237 0 0 1 0,-1.792 l 48.247,-48.247 a 9.115,9.115 0 0 1 12.926,0 9.115,9.115 0 0 1 0,12.926 l -0.384,0.384 -51.063,44.792 c -0.128,0.255 -0.384,0.383 -0.767,0.383 z m -6.143,-9.342 6.27,6.271 50.167,-44.024 c 2.816,-2.304 3.072,-6.527 0.768,-9.342 -2.303,-2.816 -6.526,-3.072 -9.342,-0.768 -0.128,0.128 -0.256,0.256 -0.512,0.384 l -47.351,47.48 z"
         fill="#ff6c37"
         id="path315" /><path
         d="m 80.009,187.637 c -0.512,0.256 -0.768,0.768 -0.64,1.28 l 2.175,9.214 c 0.512,1.28 -0.256,2.816 -1.663,3.2 -1.024,0.384 -2.176,0 -2.816,-0.768 l -14.077,-13.95 45.943,-45.943 15.87,0.256 10.75,10.75 c -2.56,2.175 -18.045,17.149 -55.542,35.961 z"
         fill="#ffffff"
         id="path317" /><path
         d="m 78.985,202.61 c -1.024,0 -2.048,-0.383 -2.688,-1.151 l -13.95,-13.95 c -0.255,-0.256 -0.383,-0.512 -0.383,-0.896 0,-0.383 0.128,-0.64 0.384,-0.895 l 45.944,-45.944 c 0.256,-0.256 0.64,-0.384 0.895,-0.384 l 15.87,0.256 c 0.383,0 0.64,0.128 0.895,0.384 l 10.75,10.75 c 0.256,0.256 0.384,0.64 0.384,1.024 0,0.384 -0.128,0.64 -0.512,0.896 l -0.895,0.767 c -13.566,11.902 -31.995,23.804 -54.902,35.194 l 2.175,9.086 c 0.384,1.664 -0.384,3.456 -1.92,4.352 -0.767,0.384 -1.407,0.512 -2.047,0.512 z m -14.078,-15.997 13.182,13.054 c 0.384,0.64 1.152,0.896 1.792,0.512 0.64,-0.384 0.896,-1.152 0.512,-1.792 l -2.176,-9.214 c -0.256,-1.152 0.256,-2.176 1.28,-2.688 22.652,-11.39 40.952,-23.163 54.39,-34.81 l -9.47,-9.47 -14.718,-0.256 z"
         fill="#ff6c37"
         id="path319" /><path
         d="m 52.11,197.62 11.006,-11.007 16.38,16.381 -26.107,-1.791 c -1.151,-0.128 -1.92,-1.152 -1.791,-2.304 0,-0.512 0.128,-1.024 0.512,-1.28 z"
         fill="#ffffff"
         id="path321" /><path
         d="m 79.497,204.146 -26.236,-1.791 c -1.92,-0.128 -3.199,-1.792 -3.071,-3.712 0.128,-0.768 0.384,-1.535 1.024,-2.047 L 62.22,185.59 a 1.237,1.237 0 0 1 1.792,0 l 16.38,16.38 c 0.385,0.385 0.512,0.897 0.257,1.408 -0.256,0.512 -0.64,0.768 -1.152,0.768 z m -16.381,-15.74 -10.11,10.11 c -0.384,0.255 -0.384,0.895 0,1.151 0.127,0.128 0.255,0.256 0.511,0.256 l 22.652,1.536 -13.053,-13.054 z m 41.336,-41.849 c -0.768,0 -1.28,-0.64 -1.28,-1.28 0,-0.384 0.128,-0.64 0.384,-0.896 l 12.414,-12.414 a 1.237,1.237 0 0 1 1.792,0 l 8.062,8.063 c 0.384,0.384 0.512,0.768 0.384,1.28 -0.128,0.384 -0.512,0.767 -1.023,0.895 l -20.477,4.352 z m 12.414,-11.902 -8.446,8.446 13.821,-2.943 z"
         fill="#ff6c37"
         id="path323" /><path
         d="m 124.8,140.926 -14.077,3.071 c -1.024,0.256 -2.048,-0.384 -2.303,-1.408 -0.128,-0.64 0,-1.28 0.511,-1.791 l 7.807,-7.807 8.063,7.935 z"
         fill="#ffffff"
         id="path325" /><path
         d="m 110.467,145.277 a 3.168,3.168 0 0 1 -3.2,-3.2 c 0,-0.895 0.385,-1.663 0.897,-2.303 l 7.806,-7.807 a 1.237,1.237 0 0 1 1.792,0 l 8.062,8.063 c 0.384,0.384 0.512,0.768 0.384,1.28 -0.128,0.384 -0.512,0.767 -1.023,0.895 l -14.078,3.072 z m 6.399,-10.622 -6.91,6.91 c -0.257,0.257 -0.257,0.512 -0.129,0.768 0.128,0.256 0.384,0.384 0.768,0.384 l 11.774,-2.56 z M 203.25,64.907 c -0.256,-0.767 -1.151,-1.151 -1.92,-0.895 -0.767,0.255 -1.151,1.151 -0.895,1.92 0,0.127 0.128,0.255 0.128,0.383 0.768,1.536 0.512,3.455 -0.512,4.863 -0.512,0.64 -0.384,1.536 0.128,2.048 0.64,0.512 1.536,0.384 2.048,-0.256 1.92,-2.432 2.303,-5.503 1.023,-8.063 z"
         fill="#ff6c37"
         id="path327" /></g></g></svg>
