<?xml version="1.0" encoding="UTF-8" standalone="no"?>
<!-- Created with Inkscape (http://www.inkscape.org/) -->

<svg
   version="1.1"
   id="svg2"
   width="148"
   height="146"
   viewBox="0 0 148 146"
   sodipodi:docname="28.svg"
   xml:space="preserve"
   inkscape:version="1.2.2 (b0a8486541, 2022-12-01)"
   xmlns:inkscape="http://www.inkscape.org/namespaces/inkscape"
   xmlns:sodipodi="http://sodipodi.sourceforge.net/DTD/sodipodi-0.dtd"
   xmlns="http://www.w3.org/2000/svg"
   xmlns:svg="http://www.w3.org/2000/svg"><defs
     id="defs6"><linearGradient
       x1="-5.508684"
       y1="63.454958"
       x2="198.29675"
       y2="133.96135"
       id="gradient"
       gradientTransform="matrix(1.2909944,0,0,0.77459669,-119.48089,-18.928775)"
       gradientUnits="userSpaceOnUse"><stop
         stop-color="#2298BD"
         offset="0%"
         id="stop291" /><stop
         stop-color="#0ED7B5"
         offset="100%"
         id="stop293" /></linearGradient></defs><sodipodi:namedview
     id="namedview4"
     pagecolor="#ffffff"
     bordercolor="#111111"
     borderopacity="1"
     inkscape:showpageshadow="0"
     inkscape:pageopacity="0"
     inkscape:pagecheckerboard="1"
     inkscape:deskcolor="#d1d1d1"
     showgrid="false"
     inkscape:zoom="3.4041096"
     inkscape:cx="45.826962"
     inkscape:cy="73.146881"
     inkscape:window-width="1920"
     inkscape:window-height="2123"
     inkscape:window-x="26"
     inkscape:window-y="23"
     inkscape:window-maximized="0"
     inkscape:current-layer="g8" /><g
     inkscape:groupmode="layer"
     inkscape:label="Image"
     id="g8"><rect
       style="fill:#e6e6e6;fill-rule:evenodd"
       id="rect359"
       width="148"
       height="146"
       x="0"
       y="0"
       ry="10.848359" /><path
       d="m 74.000002,28.6 c -19.73314,0 -32.066858,9.86686 -36.999999,29.600001 7.4,-9.866859 16.03314,-13.56686 25.9,-11.100001 5.629202,1.407156 9.652952,5.49161 14.106828,10.011969 C 84.2623,64.476703 92.658987,73 111,73 c 19.73314,0 32.06686,-9.866859 37,-29.599999 -7.4,9.866859 -16.03314,13.566859 -25.9,11.1 -5.6292,-1.407156 -9.65295,-5.49161 -14.10683,-10.011968 C 100.73771,37.123297 92.341019,28.6 74.000002,28.6 Z M 37.000003,73 C 17.266859,73 4.9331385,82.86686 0,102.6 7.3999991,92.733144 16.033142,89.033139 25.900003,91.5 c 5.629203,1.407153 9.652953,5.49161 14.106828,10.01197 C 47.2623,108.87671 55.658987,117.4 74.000002,117.4 93.733144,117.4 106.06687,107.53314 111,87.799996 103.60001,97.666865 94.966863,101.36686 85.100003,98.899999 79.470799,97.492846 75.447049,93.408389 70.993175,88.88803 63.737706,81.523297 55.341018,73 37.000003,73 Z"
       fill="url(#gradient)"
       id="path298"
       style="fill:url(#gradient);stroke-width:0.578125" /></g></svg>
