<?xml version="1.0" encoding="UTF-8" standalone="no"?>
<!-- Created with Inkscape (http://www.inkscape.org/) -->

<svg
   version="1.1"
   id="svg2"
   width="148"
   height="146"
   viewBox="0 0 148 146"
   sodipodi:docname="29.svg"
   xml:space="preserve"
   inkscape:version="1.2.2 (b0a8486541, 2022-12-01)"
   xmlns:inkscape="http://www.inkscape.org/namespaces/inkscape"
   xmlns:sodipodi="http://sodipodi.sourceforge.net/DTD/sodipodi-0.dtd"
   xmlns="http://www.w3.org/2000/svg"
   xmlns:svg="http://www.w3.org/2000/svg"><defs
     id="defs6"><clipPath
       id="a"><path
         fill="#fff"
         d="M0 0h306v344.35H0z"
         id="path301" /></clipPath></defs><sodipodi:namedview
     id="namedview4"
     pagecolor="#ffffff"
     bordercolor="#111111"
     borderopacity="1"
     inkscape:showpageshadow="0"
     inkscape:pageopacity="0"
     inkscape:pagecheckerboard="1"
     inkscape:deskcolor="#d1d1d1"
     showgrid="false"
     inkscape:zoom="3.4041096"
     inkscape:cx="92.828974"
     inkscape:cy="73.146881"
     inkscape:window-width="1920"
     inkscape:window-height="2123"
     inkscape:window-x="26"
     inkscape:window-y="23"
     inkscape:window-maximized="0"
     inkscape:current-layer="g8" /><g
     inkscape:groupmode="layer"
     inkscape:label="Image"
     id="g8"><rect
       style="fill:#e6e6e6;fill-rule:evenodd"
       id="rect359"
       width="148"
       height="146"
       x="0"
       y="0"
       ry="10.848359" /><g
       style="fill:none"
       id="g317"
       transform="matrix(0.40962751,0,0,0.40962751,11.326991,2.4725883)"><g
         clip-path="url(#a)"
         id="g299"><path
           fill="#00599c"
           d="M 302.107,258.262 C 304.508,254.103 306,249.417 306,245.209 V 99.139 c 0,-4.207 -1.49,-8.892 -3.892,-13.051 L 153,172.175 Z"
           id="path291" /><path
           fill="#004482"
           d="m 166.25,341.193 126.5,-73.034 c 3.644,-2.104 6.956,-5.737 9.357,-9.897 L 153,172.175 3.893,258.263 c 2.4,4.159 5.714,7.793 9.357,9.896 l 126.5,73.034 c 7.287,4.208 19.213,4.208 26.5,0 z"
           id="path293" /><path
           fill="#659ad2"
           d="m 302.108,86.087 c -2.402,-4.16 -5.715,-7.793 -9.358,-9.897 L 166.25,3.156 c -7.287,-4.208 -19.213,-4.208 -26.5,0 L 13.25,76.19 C 5.962,80.397 0,90.725 0,99.14 v 146.069 c 0,4.208 1.491,8.894 3.893,13.053 L 153,172.175 Z"
           id="path295" /><path
           fill="#ffffff"
           d="m 153,274.175 c -56.243,0 -102,-45.757 -102,-102 0,-56.243 45.757,-102 102,-102 36.292,0 70.139,19.53 88.331,50.968 l -44.143,25.544 C 188.083,130.951 171.15,121.175 153,121.175 c -28.122,0 -51,22.878 -51,51 0,28.121 22.878,51 51,51 18.152,0 35.085,-9.776 44.191,-25.515 l 44.143,25.543 c -18.192,31.441 -52.04,50.972 -88.334,50.972 z"
           id="path297" /></g></g></g></svg>
