<?xml version="1.0" encoding="UTF-8" standalone="no"?>
<!-- Created with Inkscape (http://www.inkscape.org/) -->

<svg
   version="1.1"
   id="svg2"
   width="148"
   height="146"
   viewBox="0 0 148 146"
   sodipodi:docname="32.svg"
   xml:space="preserve"
   inkscape:version="1.2.2 (b0a8486541, 2022-12-01)"
   xmlns:inkscape="http://www.inkscape.org/namespaces/inkscape"
   xmlns:sodipodi="http://sodipodi.sourceforge.net/DTD/sodipodi-0.dtd"
   xmlns="http://www.w3.org/2000/svg"
   xmlns:svg="http://www.w3.org/2000/svg"><defs
     id="defs6" /><sodipodi:namedview
     id="namedview4"
     pagecolor="#ffffff"
     bordercolor="#111111"
     borderopacity="1"
     inkscape:showpageshadow="0"
     inkscape:pageopacity="0"
     inkscape:pagecheckerboard="1"
     inkscape:deskcolor="#d1d1d1"
     showgrid="false"
     inkscape:zoom="3.4041096"
     inkscape:cx="45.826962"
     inkscape:cy="73.146881"
     inkscape:window-width="1920"
     inkscape:window-height="2123"
     inkscape:window-x="26"
     inkscape:window-y="23"
     inkscape:window-maximized="0"
     inkscape:current-layer="g8" /><g
     inkscape:groupmode="layer"
     inkscape:label="Image"
     id="g8"><rect
       style="fill:#e6e6e6;fill-rule:evenodd"
       id="rect359"
       width="148"
       height="146"
       x="0"
       y="0"
       ry="10.848359" /><path
       fill="#cf649a"
       d="m 127.48312,81.398064 c -5.19942,0 -9.82113,1.155419 -13.57626,2.888564 -1.4443,-2.599709 -2.59972,-4.910564 -2.88858,-6.932562 -0.28885,-2.022 -0.57771,-3.177427 -0.28885,-5.777136 0.28885,-2.599709 1.73313,-6.06599 1.73313,-6.354854 0,0 -0.28885,-1.444281 -3.17742,-1.444281 -3.17743,0 -5.77714,0.577709 -6.06599,1.444281 l -1.15543,4.332854 c -0.57772,2.599709 -5.777141,12.420841 -8.954565,17.331418 -1.155428,-2.022 -2.021998,-3.755144 -2.021998,-4.910577 C 90.7983,79.66492 90.509443,78.509493 90.7983,75.909775 c 0.288857,-2.599709 1.733141,-5.777136 1.733141,-6.06599 0,-0.288855 -0.288856,-1.733137 -3.177426,-1.733137 -3.177425,0 -5.777137,0.57771 -6.065994,1.444282 l -1.155428,4.332854 -9.821134,21.953124 -2.310855,5.199422 c -0.577713,1.15543 0,0 0,0.28886 l -0.866571,1.44427 -1.155426,1.4443 c 0,0 -0.288857,-2.022 0.288857,-4.621722 0.866569,-5.48827 3.466282,-14.15398 3.466282,-14.73169 0,0 0.577713,-1.444293 -1.733142,-2.310865 -2.021997,-0.866564 -2.59971,0.577721 -2.888568,0.577721 l -0.288857,0.288851 c 0,0 2.310854,-9.821125 -4.62171,-9.821125 -4.043998,0 -10.109992,4.910563 -12.998561,8.954553 l -9.821138,5.488285 -4.910565,2.59972 -0.288858,-0.28887 C 25.805501,81.398064 10.496082,75.332066 11.362654,63.488932 c 0,-4.332854 1.733145,-15.598271 29.174548,-29.463404 22.819694,-11.265416 40.728821,-8.08799 43.906247,-1.155418 4.62171,9.821126 -9.532277,28.019113 -33.218543,30.618822 -8.954567,0.866572 -13.576272,-2.599709 -14.731703,-3.755136 -1.155426,-1.44429 -1.444285,-1.44429 -2.021998,-1.155427 -0.577711,0.288862 -0.288858,1.444282 0,2.310854 0.866572,1.733144 3.755141,4.910562 8.665706,6.643708 4.332856,1.44429 14.731704,2.310854 27.441408,-2.599717 C 84.732306,59.444941 95.997725,44.135518 92.820298,31.136965 89.354015,18.138404 67.68975,13.80555 47.469767,21.026976 35.048918,25.359829 22.050361,32.292383 12.518081,41.246954 1.2526644,51.645797 -0.48048048,60.889223 0.09722889,64.644367 2.9858008,78.220638 21.472648,87.175198 28.982923,93.530048 l -0.866566,0.57772 c -3.75514,2.02199 -18.1979857,9.532272 -21.6642665,17.331402 -4.043999,8.95456 0.5777094,15.30942 3.7551365,16.176 9.532278,2.88857 19.642267,-2.02201 24.841691,-9.82115 5.199425,-8.08798 4.621712,-18.486832 2.310856,-23.108542 l -0.288853,-0.28886 3.177422,-1.73314 5.199425,-2.88856 c -0.866573,2.59971 -1.444285,5.48827 -1.733138,9.82112 -0.577719,4.910572 1.733138,11.554282 4.332851,14.153992 1.155427,1.15543 2.599712,1.15543 3.466282,1.15543 3.177426,0 4.62171,-2.59971 6.354852,-5.77713 l 3.75514,-8.088 c 0,0 -2.310856,11.84313 3.75514,11.84313 2.021999,0 4.332852,-2.59971 5.199424,-4.044 l 0.288856,-0.28886 0.288857,-0.57771 5.777138,-10.687702 7.221422,-16.464842 1.444285,5.777142 c 0.577713,2.31086 2.021997,4.6217 2.888567,6.93256 l -1.155427,2.022 -2.310854,2.88857 c -2.88857,3.466282 -6.643708,7.510272 -6.932565,8.665702 -0.577714,1.44428 -0.577714,2.31086 0.577713,3.17743 0.86657,0.57772 2.310854,0.57772 3.75514,0.57772 l 5.199423,-1.15543 4.910567,-2.59972 c 2.88857,-2.022 4.621711,-5.19942 4.33285,-9.243412 0,-2.022 -0.866566,-4.33286 -1.733138,-6.35486 l 0.866572,-1.15543 c 4.621705,-6.643702 8.087995,-14.15398 8.087995,-14.15398 l 1.44428,6.066003 2.59971,5.777127 a 25.708265,25.708265 0 0 0 -7.79913,10.39885 c -1.733143,4.910572 -0.577719,6.932562 2.022,7.510272 1.15542,0.28886 2.88857,-0.28885 4.04399,-0.86657 1.44429,-0.28885 3.17743,-1.15541 4.91057,-2.31086 2.88857,-2.31084 5.77713,-5.199412 5.48828,-9.243412 0,-1.73314 -0.57772,-3.75513 -1.15543,-5.48828 3.46628,-1.44428 8.37685,-2.31085 14.15399,-1.44428 12.99856,1.44428 15.59826,9.53227 15.02056,12.7097 -0.57772,3.466272 -3.17743,5.199422 -4.044,5.777132 l -1.15543,1.15543 c 0.28886,0.57772 0.57772,0.57772 1.44429,0.57772 0.86656,-0.28885 6.6437,-2.88856 6.93256,-8.954562 0.28886,-8.08799 -7.22142,-16.753706 -20.50884,-16.464844 z M 28.116357,114.6166 c -4.043999,4.62172 -10.109996,6.64371 -12.709704,4.91057 -2.599717,-1.44428 -1.733145,-8.37685 3.755139,-13.28742 3.177422,-2.88856 7.221422,-5.77713 9.821131,-7.510272 l 2.599716,-1.44429 0.288858,-0.28886 0.866566,-0.28885 c 1.733142,6.932562 0,12.998562 -4.621706,17.909122 z M 59.312899,93.530048 c -1.444284,3.75514 -4.62171,12.998572 -6.354852,12.420842 -1.733141,-0.28885 -2.599711,-7.510272 -0.577714,-14.442842 1.155428,-3.46628 3.75514,-7.510271 5.199425,-9.243407 2.310856,-2.599721 4.910567,-3.466286 5.488282,-2.310867 0.86657,1.44429 -2.88857,11.265414 -3.755141,13.576274 z m 25.708264,12.420842 -1.444285,0.28886 v -0.57771 l 4.62171,-4.91056 2.599712,-3.177432 v 0.28886 c 0,4.043992 -4.043996,6.932562 -5.777137,8.087982 z m 19.642267,-4.6217 c -0.57771,-0.28886 -0.28886,-1.444292 1.15543,-4.621712 0.57771,-1.44429 2.022,-3.75515 4.33285,-5.77715 l 0.57772,2.59972 c 0,5.19943 -3.75515,6.932572 -6.066,7.799142 z"
       id="path291"
       style="stroke-width:0.288857" /></g></svg>
