<?xml version="1.0" encoding="UTF-8" standalone="no"?>
<!-- Created with Inkscape (http://www.inkscape.org/) -->

<svg
   version="1.1"
   id="svg2"
   width="148"
   height="146"
   viewBox="0 0 148 146"
   sodipodi:docname="33.svg"
   xml:space="preserve"
   inkscape:version="1.2.2 (b0a8486541, 2022-12-01)"
   xmlns:inkscape="http://www.inkscape.org/namespaces/inkscape"
   xmlns:sodipodi="http://sodipodi.sourceforge.net/DTD/sodipodi-0.dtd"
   xmlns="http://www.w3.org/2000/svg"
   xmlns:svg="http://www.w3.org/2000/svg"><defs
     id="defs6" /><sodipodi:namedview
     id="namedview4"
     pagecolor="#ffffff"
     bordercolor="#111111"
     borderopacity="1"
     inkscape:showpageshadow="0"
     inkscape:pageopacity="0"
     inkscape:pagecheckerboard="1"
     inkscape:deskcolor="#d1d1d1"
     showgrid="false"
     inkscape:zoom="2.407069"
     inkscape:cx="101.78354"
     inkscape:cy="81.426831"
     inkscape:window-width="1920"
     inkscape:window-height="2123"
     inkscape:window-x="26"
     inkscape:window-y="23"
     inkscape:window-maximized="0"
     inkscape:current-layer="g8" /><g
     inkscape:groupmode="layer"
     inkscape:label="Image"
     id="g8"><rect
       style="fill:#e6e6e6;fill-rule:evenodd"
       id="rect359"
       width="148"
       height="146"
       x="0"
       y="-9.9999994e-08"
       ry="10.848359" /><g
       id="g303"
       transform="matrix(5.5213957,0,0,5.5213957,-8.8209355,-15.342331)"><path
         d="M 14.135,4 H 18.1 v 18.169 a 26.218,26.218 0 0 1 -5.143,0.535 C 8.115,22.699 5.595,20.536 5.595,16.382 c 0,-4 2.673,-6.6 6.816,-6.6 a 6.448,6.448 0 0 1 1.724,0.2 z m 0,9.142 a 3.992,3.992 0 0 0 -1.337,-0.2 c -2,0 -3.163,1.223 -3.163,3.366 0,2.087 1.107,3.239 3.138,3.239 a 9.355,9.355 0 0 0 1.362,-0.1 v -6.3 z"
         style="fill:#44b78b"
         id="path291" /><path
         d="m 24.4,10.059 v 9.1 c 0,3.133 -0.235,4.639 -0.923,5.938 A 6.316,6.316 0 0 1 20.237,28 L 16.559,26.267 A 5.708,5.708 0 0 0 19.7,23.638 c 0.566,-1.121 0.745,-2.42 0.745,-5.837 V 10.059 Z M 20.441,4.02 h 3.964 v 4.028 h -3.964 z"
         style="fill:#44b78b"
         id="path293" /></g></g></svg>
