<?xml version="1.0" encoding="UTF-8" standalone="no"?>
<!-- Created with Inkscape (http://www.inkscape.org/) -->

<svg
   version="1.1"
   id="svg2"
   width="148"
   height="146"
   viewBox="0 0 148 146"
   sodipodi:docname="38.svg"
   xml:space="preserve"
   inkscape:version="1.2.2 (b0a8486541, 2022-12-01)"
   xmlns:inkscape="http://www.inkscape.org/namespaces/inkscape"
   xmlns:sodipodi="http://sodipodi.sourceforge.net/DTD/sodipodi-0.dtd"
   xmlns="http://www.w3.org/2000/svg"
   xmlns:svg="http://www.w3.org/2000/svg"><defs
     id="defs6"><linearGradient
       id="a"
       x1="46.27146"
       x2="196.4692"
       y1="111.6196"
       y2="117.12734"
       gradientTransform="matrix(2.0300037,0,0,1.4738716,-83.194088,-35.872204)"
       gradientUnits="userSpaceOnUse"><stop
         offset="0%"
         stop-color="#0064E1"
         id="stop291" /><stop
         offset="40%"
         stop-color="#0064E1"
         id="stop293" /><stop
         offset="83%"
         stop-color="#0073EE"
         id="stop295" /><stop
         offset="100%"
         stop-color="#0082FB"
         id="stop297" /></linearGradient><linearGradient
       id="b"
       x1="57.03164"
       x2="57.03164"
       y1="86.922456"
       y2="41.272992"
       gradientTransform="matrix(1.2150256,0,0,2.4624707,-83.194088,-35.872204)"
       gradientUnits="userSpaceOnUse"><stop
         offset="0%"
         stop-color="#0082FB"
         id="stop300" /><stop
         offset="100%"
         stop-color="#0064E0"
         id="stop302" /></linearGradient></defs><sodipodi:namedview
     id="namedview4"
     pagecolor="#ffffff"
     bordercolor="#111111"
     borderopacity="1"
     inkscape:showpageshadow="0"
     inkscape:pageopacity="0"
     inkscape:pagecheckerboard="1"
     inkscape:deskcolor="#d1d1d1"
     showgrid="false"
     inkscape:zoom="3.4041096"
     inkscape:cx="92.828974"
     inkscape:cy="73.146881"
     inkscape:window-width="1920"
     inkscape:window-height="2123"
     inkscape:window-x="26"
     inkscape:window-y="23"
     inkscape:window-maximized="0"
     inkscape:current-layer="g8" /><g
     inkscape:groupmode="layer"
     inkscape:label="Image"
     id="g8"><rect
       style="fill:#e6e6e6;fill-rule:evenodd"
       id="rect359"
       width="148"
       height="146"
       x="-2.0000002e-07"
       y="0"
       ry="10.848359" /><g
       id="g328"
       transform="matrix(0.578125,0,0,0.578125,-2e-7,23.848391)"><path
         fill="#0081fb"
         d="m 27.651,112.136 c 0,9.775 2.146,17.28 4.95,21.82 3.677,5.947 9.16,8.466 14.751,8.466 7.211,0 13.808,-1.79 26.52,-19.372 10.185,-14.092 22.186,-33.874 30.26,-46.275 l 13.675,-21.01 C 127.306,41.174 138.3,24.954 150.907,13.959 161.196,4.985 172.298,0 183.47,0 c 18.758,0 36.625,10.87 50.3,31.257 14.965,22.327 22.23,50.45 22.23,79.472 0,17.253 -3.4,29.93 -9.187,39.946 -5.591,9.686 -16.488,19.363 -34.818,19.363 v -27.616 c 15.695,0 19.612,-14.422 19.612,-30.927 0,-23.52 -5.484,-49.623 -17.564,-68.273 -8.574,-13.23 -19.684,-21.313 -31.907,-21.313 -13.22,0 -23.859,9.97 -35.815,27.75 -6.356,9.445 -12.882,20.956 -20.208,33.944 l -8.066,14.289 c -16.203,28.728 -20.307,35.271 -28.408,46.07 -14.2,18.91 -26.324,26.076 -42.287,26.076 -18.935,0 -30.91,-8.2 -38.325,-20.556 C 2.973,139.413 0,126.202 0,111.148 Z"
         id="path307" /><path
         fill="url(#a)"
         d="M 21.802,33.206 C 34.48,13.666 52.774,0 73.757,0 85.91,0 97.99,3.597 110.605,13.897 c 13.798,11.261 28.505,29.805 46.853,60.368 l 6.58,10.967 c 15.881,26.459 24.917,40.07 30.205,46.49 6.802,8.243 11.565,10.7 17.752,10.7 15.695,0 19.612,-14.422 19.612,-30.927 L 256,110.729 c 0,17.253 -3.4,29.93 -9.187,39.946 -5.591,9.686 -16.488,19.363 -34.818,19.363 -11.395,0 -21.49,-2.475 -32.654,-13.007 -8.582,-8.083 -18.615,-22.443 -26.334,-35.352 L 130.047,83.327 C 118.528,64.08 107.96,49.73 101.845,43.23 95.267,36.242 86.809,27.802 73.313,27.802 c -10.923,0 -20.2,7.666 -27.963,19.39 z"
         id="path309"
         style="fill:url(#a)" /><path
         fill="url(#b)"
         d="m 73.312,27.802 c -10.923,0 -20.2,7.666 -27.963,19.39 -10.976,16.568 -17.698,41.245 -17.698,64.944 0,9.775 2.146,17.28 4.95,21.82 L 9.027,149.482 C 2.973,139.413 0,126.202 0,111.148 0,83.772 7.514,55.24 21.802,33.206 34.48,13.666 52.774,0 73.757,0 Z"
         id="path311"
         style="fill:url(#b)" /></g></g></svg>
