<?xml version="1.0" encoding="UTF-8" standalone="no"?>
<!-- Created with Inkscape (http://www.inkscape.org/) -->

<svg
   version="1.1"
   id="svg2"
   width="148"
   height="146"
   viewBox="0 0 148 146"
   sodipodi:docname="01.svg"
   xml:space="preserve"
   inkscape:version="1.2.2 (b0a8486541, 2022-12-01)"
   xmlns:inkscape="http://www.inkscape.org/namespaces/inkscape"
   xmlns:sodipodi="http://sodipodi.sourceforge.net/DTD/sodipodi-0.dtd"
   xmlns="http://www.w3.org/2000/svg"
   xmlns:svg="http://www.w3.org/2000/svg"><defs
     id="defs6" /><sodipodi:namedview
     id="namedview4"
     pagecolor="#ffffff"
     bordercolor="#111111"
     borderopacity="1"
     inkscape:showpageshadow="0"
     inkscape:pageopacity="0"
     inkscape:pagecheckerboard="1"
     inkscape:deskcolor="#d1d1d1"
     showgrid="false"
     inkscape:zoom="3.4041096"
     inkscape:cx="74.17505"
     inkscape:cy="73.146881"
     inkscape:window-width="1920"
     inkscape:window-height="2123"
     inkscape:window-x="20"
     inkscape:window-y="20"
     inkscape:window-maximized="0"
     inkscape:current-layer="g8" /><g
     inkscape:groupmode="layer"
     inkscape:label="Image"
     id="g8"><rect
       style="fill:#008080;fill-rule:evenodd"
       id="rect359"
       width="148"
       height="146"
       x="0"
       y="0"
       ry="10.848359" /><g
       id="g251"
       transform="matrix(0.56599164,0,0,0.56599164,1.5530701,22.864599)"><path
         fill="#34a853"
         d="m 255.285,143.47 c -0.084,-0.524 -0.164,-1.042 -0.251,-1.56 A 128.119,128.119 0 0 0 242.24,103.622 128.778,128.778 0 0 0 218.79,71.762 129.166,129.166 0 0 0 196.077,53.757 c 0.049,-0.08 0.09,-0.168 0.14,-0.25 2.582,-4.461 5.172,-8.917 7.755,-13.38 l 7.576,-13.068 c 1.818,-3.126 3.632,-6.26 5.438,-9.386 a 11.776,11.776 0 0 0 0.662,-10.484 11.668,11.668 0 0 0 -4.823,-5.536 11.85,11.85 0 0 0 -5.004,-1.61 11.963,11.963 0 0 0 -2.218,0.018 11.738,11.738 0 0 0 -8.968,5.798 c -1.814,3.127 -3.628,6.26 -5.438,9.386 l -7.576,13.069 c -2.583,4.462 -5.173,8.918 -7.755,13.38 -0.282,0.487 -0.567,0.973 -0.848,1.467 -0.392,-0.157 -0.78,-0.313 -1.172,-0.462 -14.24,-5.43 -29.688,-8.4 -45.836,-8.4 -0.442,0 -0.879,0 -1.324,0.006 -14.357,0.143 -28.152,2.64 -41.022,7.12 a 119.434,119.434 0 0 0 -4.42,1.642 C 80.982,42.612 80.712,42.156 80.454,41.7 77.871,37.238 75.281,32.782 72.699,28.32 L 65.123,15.25 C 63.305,12.124 61.491,8.991 59.684,5.864 A 11.736,11.736 0 0 0 48.5,0.048 11.71,11.71 0 0 0 43.49,1.66 11.716,11.716 0 0 0 39.413,5.723 C 39.132,6.197 38.881,6.69 38.671,7.196 a 11.808,11.808 0 0 0 -0.365,8.188 c 0.259,0.786 0.594,1.554 1.023,2.296 a 3973.32,3973.32 0 0 1 5.439,9.386 c 2.53,4.357 5.054,8.713 7.58,13.069 2.582,4.462 5.168,8.918 7.75,13.38 0.02,0.038 0.046,0.075 0.065,0.112 A 129.184,129.184 0 0 0 45.32,64.38 a 129.693,129.693 0 0 0 -22.2,24.015 127.737,127.737 0 0 0 -9.34,15.24 128.238,128.238 0 0 0 -10.843,28.764 130.743,130.743 0 0 0 -1.951,9.524 c -0.087,0.518 -0.167,1.042 -0.247,1.56 A 124.978,124.978 0 0 0 0,149.118 h 256 c -0.205,-1.891 -0.449,-3.77 -0.734,-5.636 z"
         id="path239" /><path
         fill="#202124"
         d="m 194.59,113.712 c 5.122,-3.41 5.867,-11.3 1.661,-17.62 -4.203,-6.323 -11.763,-8.682 -16.883,-5.273 -5.122,3.41 -5.868,11.3 -1.662,17.621 4.203,6.322 11.764,8.682 16.883,5.272 z m -116.072,-5.25 c 4.206,-6.321 3.46,-14.21 -1.662,-17.62 -5.123,-3.41 -12.68,-1.05 -16.886,5.27 -4.203,6.323 -3.458,14.212 1.662,17.622 5.122,3.41 12.683,1.05 16.886,-5.272 z"
         id="path241" /></g></g></svg>
